<?xml version="1.0" standalone="no"?>
<!DOCTYPE svg PUBLIC "-//W3C//DTD SVG 20010904//EN"
 "http://www.w3.org/TR/2001/REC-SVG-20010904/DTD/svg10.dtd">
<svg version="1.0" xmlns="http://www.w3.org/2000/svg"
 width="512.000000pt" height="512.000000pt" viewBox="0 0 512.000000 512.000000"
 preserveAspectRatio="xMidYMid meet">

<g transform="translate(0.000000,512.000000) scale(0.100000,-0.100000)"
fill="#000000" stroke="none">
<path d="M1244 5110 c-11 -4 -33 -22 -47 -40 l-27 -32 0 -1154 0 -1154 -152 0
c-127 0 -160 -4 -194 -19 -70 -32 -114 -112 -100 -184 3 -19 37 -88 75 -153
37 -65 73 -129 79 -141 11 -20 9 -23 -32 -42 -29 -13 -54 -34 -73 -62 -25 -38
-28 -52 -31 -148 -3 -83 0 -116 12 -146 10 -22 13 -41 7 -43 -43 -14 -210
-133 -281 -200 -104 -97 -173 -187 -228 -297 -75 -152 -102 -264 -103 -426 -1
-168 28 -292 101 -439 75 -149 232 -328 350 -398 l45 -27 2113 -3 c1944 -2
2116 -1 2148 14 74 35 69 -43 69 1137 l0 1059 -24 19 c-30 25 -76 24 -101 -1
-20 -20 -20 -33 -20 -1050 l0 -1030 -1430 0 -1431 0 57 66 c70 83 117 157 161
251 34 73 73 206 73 248 0 34 -36 65 -75 65 -47 0 -64 -22 -86 -112 -42 -164
-161 -350 -297 -462 l-69 -56 -517 0 c-368 0 -524 3 -539 11 -47 25 -149 124
-206 200 -119 157 -173 316 -172 508 1 332 201 623 545 792 l101 49 265 0 265
0 102 -50 c265 -130 441 -331 519 -592 18 -60 37 -78 80 -78 41 0 74 29 74 66
0 35 -43 162 -81 237 -94 186 -268 364 -458 468 -45 25 -60 38 -55 49 17 39
26 122 21 192 -7 99 -34 152 -97 185 -25 13 -45 27 -45 31 0 4 36 70 80 147
71 124 79 144 79 191 0 67 -35 123 -96 153 -37 18 -63 21 -161 21 l-117 0 0
1120 0 1120 1755 0 1755 0 0 -1238 c0 -1229 0 -1239 20 -1257 28 -25 76 -23
103 4 l22 22 0 1262 c0 1171 -1 1264 -17 1293 -38 69 109 64 -1890 63 -991 0
-1812 -4 -1824 -9z m295 -2543 c8 -10 -13 -54 -87 -185 l-97 -171 -145 -1
-145 0 -97 170 c-59 101 -95 175 -92 185 5 13 47 15 329 15 255 0 325 -3 334
-13z m-19 -526 c16 -32 13 -147 -6 -165 -13 -14 -55 -16 -308 -16 -214 0 -295
3 -304 12 -12 12 -17 143 -6 172 5 14 42 16 310 16 290 0 304 -1 314 -19z"/>
<path d="M1570 4730 c-30 -30 -27 -83 6 -109 26 -21 37 -21 460 -21 296 0 441
4 457 11 25 11 47 47 47 75 0 8 -11 26 -25 39 l-24 25 -451 0 c-437 0 -451 -1
-470 -20z"/>
<path d="M4017 4739 c-46 -27 -41 -105 9 -128 16 -7 109 -11 269 -11 241 0
244 0 271 23 35 31 38 82 5 109 -21 16 -45 18 -280 18 -160 0 -263 -5 -274
-11z"/>
<path d="M4008 4460 c-24 -25 -29 -36 -24 -58 15 -60 23 -62 306 -62 236 0
260 2 281 18 33 27 30 78 -5 109 -27 23 -29 23 -277 23 l-251 0 -30 -30z"/>
<path d="M3195 4348 c-11 -6 -28 -20 -37 -32 -16 -19 -18 -70 -18 -663 l0
-643 -64 0 -65 0 -3 219 c-3 199 -5 221 -22 240 -25 27 -86 29 -109 3 -15 -16
-17 -48 -17 -240 l0 -222 -50 0 -50 0 0 490 0 490 50 0 50 0 0 -128 c0 -146 7
-162 72 -162 62 0 72 23 77 167 4 162 -3 209 -39 245 l-28 28 -137 0 -137 0
-29 -29 -29 -29 0 -536 0 -536 -70 0 -70 0 0 411 0 411 -28 28 c-35 34 -88 44
-210 38 -167 -8 -162 6 -162 -492 l0 -396 -65 0 -65 0 0 275 c0 293 -4 320
-49 345 -11 5 -78 10 -150 10 -130 0 -131 0 -163 -29 l-33 -29 0 -332 0 -332
33 -29 32 -29 1461 0 1461 0 34 34 34 34 0 394 c0 294 -3 399 -13 418 -22 45
-70 60 -187 60 -117 0 -165 -15 -187 -60 -9 -19 -13 -116 -13 -377 l0 -353
-65 0 -65 0 0 503 c0 484 -1 503 -20 535 -28 46 -58 54 -198 50 l-124 -3 -29
-33 -29 -32 0 -510 0 -510 -65 0 -65 0 0 628 c0 577 -1 630 -18 662 -9 19 -28
40 -42 47 -32 16 -257 17 -285 1z m195 -738 l0 -600 -50 0 -50 0 0 600 0 600
50 0 50 0 0 -600z m530 -130 l0 -470 -50 0 -50 0 0 470 0 470 50 0 50 0 0
-470z m-1600 -100 l0 -370 -50 0 -50 0 0 363 c0 200 3 367 7 370 3 4 26 7 50
7 l43 0 0 -370z m2130 -50 l0 -320 -50 0 -50 0 0 320 0 320 50 0 50 0 0 -320z
m-2660 -80 l0 -240 -50 0 -50 0 0 240 0 240 50 0 50 0 0 -240z"/>
<path d="M3660 2475 c-41 -13 -100 -40 -130 -59 -54 -34 -56 -34 -75 -17 -53
49 -100 32 -170 -61 -97 -128 -145 -271 -145 -433 0 -121 19 -204 71 -310 69
-141 177 -248 324 -321 424 -210 928 54 1004 527 21 127 7 166 -63 178 -38 6
-38 6 -57 80 -51 201 -223 373 -425 425 -95 25 -242 21 -334 -9z m333 -148
c75 -27 153 -82 196 -136 38 -47 91 -158 91 -188 l0 -23 -202 0 -203 0 -142
142 c-79 79 -143 146 -143 150 0 10 74 48 125 64 69 22 205 17 278 -9z m-383
-292 l206 -205 287 0 c330 0 305 10 264 -103 -33 -91 -71 -151 -136 -216 -180
-180 -473 -211 -690 -72 -109 70 -203 201 -236 328 -19 74 -19 203 0 277 15
57 81 196 93 196 4 0 99 -92 212 -205z"/>
<path d="M2055 2385 c-26 -25 -29 -35 -19 -73 14 -50 29 -52 499 -52 l436 0
24 25 c32 31 33 74 2 103 -23 22 -25 22 -471 22 l-447 0 -24 -25z"/>
<path d="M2051 2094 c-27 -35 -26 -57 3 -91 l24 -28 419 -3 c230 -2 433 0 451
3 66 12 95 82 52 125 -19 19 -33 20 -474 20 l-455 0 -20 -26z"/>
<path d="M2200 1833 c-52 -19 -68 -85 -30 -123 19 -19 33 -20 413 -20 l394 0
21 23 c27 29 28 67 3 98 l-19 24 -384 2 c-210 1 -390 -1 -398 -4z"/>
<path d="M2406 1529 c-34 -27 -36 -77 -3 -107 23 -21 30 -22 294 -22 258 0
271 1 297 21 34 27 35 71 1 104 l-24 25 -269 0 c-257 0 -270 -1 -296 -21z"/>
<path d="M1167 1498 c-22 -17 -37 -61 -37 -109 0 -36 -2 -39 -28 -39 -45 0
-131 -49 -162 -92 -85 -117 -47 -278 81 -342 49 -24 63 -26 175 -26 114 0 125
-2 150 -23 35 -31 37 -77 4 -112 -23 -25 -25 -25 -200 -25 -164 0 -179 -2
-204 -21 -34 -27 -36 -77 -3 -107 20 -19 35 -22 105 -22 l82 0 0 -39 c0 -80
29 -121 84 -121 45 0 66 32 66 100 l0 60 33 0 c47 0 131 45 163 87 75 99 61
229 -35 316 -51 46 -92 57 -223 57 -119 0 -151 10 -168 51 -14 33 -6 62 23 89
19 18 36 20 199 20 177 0 179 0 203 25 34 33 33 77 -1 104 -22 17 -41 21 -110
21 l-84 0 0 60 c0 48 -4 63 -22 80 -25 23 -66 26 -91 8z"/>
<path d="M2595 921 c-83 -38 -134 -117 -135 -209 0 -93 48 -168 135 -208 l50
-24 855 1 c921 0 893 -2 964 53 106 80 108 264 4 351 -68 57 -26 55 -965 55
-821 0 -870 -1 -908 -19z m1185 -211 l0 -80 -560 0 -561 0 -24 25 c-32 31 -33
80 -3 112 l21 23 564 0 563 0 0 -80z m589 63 c11 -10 24 -32 27 -50 5 -27 1
-37 -24 -63 l-30 -30 -206 0 -206 0 0 80 0 80 209 0 c184 0 211 -2 230 -17z"/>
</g>
</svg>
