<?xml version="1.0" standalone="no"?>
<!DOCTYPE svg PUBLIC "-//W3C//DTD SVG 20010904//EN"
 "http://www.w3.org/TR/2001/REC-SVG-20010904/DTD/svg10.dtd">
<svg version="1.0" xmlns="http://www.w3.org/2000/svg"
 width="512.000000pt" height="512.000000pt" viewBox="0 0 512.000000 512.000000"
 preserveAspectRatio="xMidYMid meet">

<g transform="translate(0.000000,512.000000) scale(0.100000,-0.100000)"
fill="#000000" stroke="none">
<path d="M2928 5100 c-36 -28 -559 -737 -568 -770 -10 -36 6 -86 36 -109 24
-19 41 -21 155 -21 l129 0 0 -458 0 -458 -49 -48 -50 -49 -83 35 c-46 20 -100
41 -120 48 l-38 12 0 191 c0 106 -5 209 -10 229 -13 45 -67 94 -117 105 -21 4
-135 8 -253 8 -252 0 -283 -8 -326 -80 -23 -41 -24 -48 -24 -246 l0 -204 -102
-40 c-56 -22 -112 -44 -125 -49 -21 -9 -37 4 -171 136 -91 91 -158 149 -175
153 -81 21 -149 -18 -308 -177 -104 -103 -166 -183 -179 -229 -21 -72 -8 -93
153 -256 l151 -153 -24 -47 c-13 -27 -36 -79 -51 -118 l-27 -70 -209 -5 c-192
-5 -211 -7 -243 -27 -52 -32 -70 -71 -82 -175 -12 -105 -4 -352 13 -413 11
-41 39 -78 74 -98 13 -8 99 -14 234 -17 l213 -5 28 -75 c15 -41 37 -95 49
-119 l23 -43 -145 -147 c-220 -222 -220 -244 3 -474 96 -100 193 -181 236
-197 17 -7 48 -9 74 -5 41 6 57 19 196 157 l152 149 58 -29 c33 -16 87 -39
122 -52 l62 -22 0 -200 c0 -219 5 -245 59 -290 43 -37 93 -43 326 -43 193 1
202 1 250 25 84 42 89 59 95 304 l5 208 75 28 c41 15 95 37 119 49 l44 23 104
-104 c96 -95 108 -112 163 -223 162 -329 449 -543 805 -600 567 -92 1111 284
1231 850 54 253 7 544 -123 763 -56 95 -157 215 -229 274 l-64 53 0 253 c0
239 -1 253 -20 272 -30 30 -83 27 -109 -6 -20 -25 -21 -40 -21 -226 l0 -198
-37 19 c-49 24 -186 70 -234 77 l-38 6 -3 594 -3 594 -28 27 c-26 26 -34 28
-137 33 l-110 5 206 280 c113 154 211 286 218 293 10 10 53 -43 217 -270 112
-155 205 -288 207 -295 3 -10 -19 -13 -95 -13 -108 0 -132 -11 -154 -67 -5
-13 -9 -147 -9 -297 0 -261 1 -274 21 -300 26 -33 79 -36 109 -6 19 19 20 33
20 270 l0 250 105 0 c153 0 205 28 205 111 0 32 -34 84 -275 417 -174 241
-284 383 -298 388 -30 10 -72 7 -95 -5 -11 -6 -107 -129 -213 -273 -380 -516
-359 -486 -359 -529 0 -29 8 -47 29 -71 l29 -33 131 -4 131 -3 0 -539 0 -539
-64 0 -64 0 -7 75 c-8 85 -30 127 -85 159 -32 19 -55 21 -242 24 -134 3 -208
7 -208 14 0 6 -21 60 -46 120 l-47 110 141 142 c77 77 145 151 151 163 15 30
14 99 -3 131 -8 16 -33 50 -55 77 l-41 50 0 482 0 483 116 0 c65 0 125 5 137
11 60 31 74 101 32 163 -68 100 -516 715 -529 725 -29 24 -89 25 -118 1z m273
-463 l208 -287 -90 0 c-98 0 -139 -13 -161 -53 -10 -16 -14 -131 -18 -466 l-5
-444 -44 37 c-24 21 -58 44 -74 53 -40 20 -115 13 -156 -16 l-31 -22 0 398 c0
246 -4 412 -11 436 -15 57 -46 71 -164 77 l-101 5 210 287 c116 158 215 286
220 285 5 -2 103 -132 217 -290z m-1042 -973 l31 -6 0 -204 c0 -111 4 -213 9
-226 16 -42 60 -75 139 -103 42 -15 102 -40 132 -55 129 -65 147 -58 332 127
l147 146 28 -18 c36 -24 234 -222 258 -258 l18 -28 -140 -142 c-78 -78 -146
-152 -152 -164 -20 -40 -13 -110 18 -171 16 -31 41 -91 55 -132 30 -83 38 -95
80 -128 28 -21 37 -22 241 -22 242 0 225 7 225 -91 l0 -46 -62 -18 c-35 -9
-99 -34 -144 -54 -231 -108 -406 -278 -519 -506 -72 -145 -104 -270 -112 -438
l-6 -128 -31 29 c-41 39 -88 62 -127 62 -18 0 -75 -20 -128 -44 -53 -24 -114
-49 -136 -56 -22 -7 -52 -22 -68 -32 -53 -37 -57 -59 -57 -282 0 -134 -4 -207
-11 -211 -17 -11 -239 -18 -332 -10 l-87 7 0 201 c0 281 4 274 -215 363 -227
92 -204 97 -400 -97 l-151 -149 -39 32 c-65 51 -133 118 -202 197 l-64 75 145
145 c79 81 149 156 155 168 20 39 12 88 -28 174 -21 46 -44 102 -51 124 -23
73 -52 114 -95 135 -37 18 -62 20 -242 20 l-201 0 -7 97 c-7 94 0 307 11 324
3 5 98 9 212 9 266 0 271 2 327 158 14 40 39 101 56 135 31 66 36 108 18 154
-6 15 -73 91 -150 168 -76 78 -139 146 -139 152 0 14 176 199 241 254 l50 42
147 -146 c189 -187 209 -193 362 -117 30 15 85 37 121 49 69 23 110 56 128
104 7 17 11 111 11 227 0 198 0 199 23 203 36 7 342 8 376 1z m1896 -1673
c270 -71 492 -256 615 -512 66 -139 83 -220 83 -394 0 -181 -17 -259 -92 -410
-94 -190 -236 -332 -426 -426 -149 -73 -230 -92 -405 -93 -105 0 -164 5 -214
17 -203 51 -387 165 -510 316 -367 450 -250 1109 249 1403 98 58 222 101 350
122 68 10 271 -3 350 -23z"/>
<path d="M1850 2979 c-234 -31 -476 -174 -618 -367 -193 -261 -236 -608 -112
-905 107 -257 325 -452 597 -533 119 -36 311 -44 434 -19 193 39 331 114 474
259 105 107 145 165 201 294 46 106 53 163 25 191 -26 26 -82 28 -103 4 -9
-10 -31 -59 -50 -108 -115 -309 -397 -504 -728 -505 -345 0 -635 219 -742 560
-30 98 -33 307 -5 410 73 265 289 481 554 551 112 30 280 30 388 0 227 -63
399 -203 500 -406 24 -49 52 -123 61 -164 19 -85 40 -111 87 -111 73 0 87 59
47 191 -97 323 -361 570 -685 642 -94 21 -233 28 -325 16z"/>
<path d="M1832 2636 c-77 -20 -190 -79 -248 -130 -110 -97 -188 -256 -200
-408 -11 -134 40 -295 128 -403 226 -276 625 -299 874 -51 116 116 174 255
174 418 0 156 -51 286 -157 398 -122 130 -232 180 -408 186 -71 2 -129 -1
-163 -10z m331 -179 c91 -45 166 -121 210 -214 30 -64 32 -74 32 -183 0 -111
-1 -118 -34 -185 -75 -153 -236 -255 -404 -255 -63 0 -169 32 -226 69 -323
208 -256 674 114 798 26 8 74 12 137 9 89 -3 105 -6 171 -39z"/>
<path d="M1854 2327 c-64 -31 -120 -87 -148 -146 -31 -69 -29 -179 7 -247 76
-148 254 -206 397 -128 164 89 203 307 80 447 -57 65 -111 90 -204 94 -70 4
-88 1 -132 -20z m187 -142 c94 -49 91 -203 -5 -249 -139 -66 -267 98 -169 215
15 17 36 35 47 39 34 14 95 11 127 -5z"/>
<path d="M3670 1906 c-269 -57 -479 -220 -595 -459 -57 -120 -74 -188 -81
-322 -18 -332 162 -637 461 -784 140 -69 211 -86 370 -85 171 0 290 32 433
115 73 44 237 208 281 281 43 75 84 176 84 210 0 41 -29 68 -73 68 -40 0 -63
-18 -75 -60 -19 -64 -93 -186 -151 -249 -272 -293 -726 -292 -1000 1 -73 79
-113 145 -150 253 -25 72 -28 94 -28 210 0 116 3 138 28 210 41 118 80 181
170 271 91 90 155 130 269 169 372 124 777 -102 876 -490 12 -46 28 -85 38
-93 29 -21 83 -11 106 20 20 27 20 29 3 100 -36 154 -94 262 -205 380 -114
122 -249 203 -401 242 -89 23 -277 29 -360 12z"/>
<path d="M3770 1670 c-19 -19 -20 -33 -20 -315 l0 -296 25 -24 c13 -14 35 -25
48 -25 26 0 370 217 400 252 9 11 17 31 17 45 0 31 -42 73 -73 73 -13 0 -76
-34 -140 -75 -65 -41 -119 -75 -122 -75 -3 0 -5 90 -5 201 0 239 -6 259 -77
259 -20 0 -41 -8 -53 -20z"/>
</g>
</svg>
