<svg aria-hidden="true" style="position: absolute; width: 0; height: 0; overflow: hidden;" version="1.1" xmlns="http://www.w3.org/2000/svg" xmlns:xlink="http://www.w3.org/1999/xlink">
<defs>
<symbol id="icon-icon1" viewBox="0 0 32 32">
<path d="M1.25 1.65c-0.15 0.35-0.2 5.7-0.15 11.85l0.15 11.25 10.65 0.3-0.6 2.35c-0.45 1.8-0.85 2.4-1.7 2.5-0.6 0.1-1.1 0.4-1.1 0.65s3.2 0.45 7.5 0.45c4.3 0 7.5-0.2 7.5-0.45s-0.5-0.55-1.1-0.65c-0.85-0.1-1.25-0.7-1.7-2.5l-0.6-2.35 10.65-0.3v-23.5l-14.65-0.15c-11.55-0.1-14.7 0-14.85 0.55zM30 2.5c0 0.3-3.85 0.5-10.5 0.5s-10.5 0.2-10.5 0.5c0 0.3 3.85 0.5 10.5 0.5h10.5v17h-28v-19h14c9 0 14 0.2 14 0.5zM30 23c0 1-0.35 1-14 1s-14 0-14-1c0-1 0.35-1 14-1s14 0 14 1zM19.8 27.6l0.6 2.4h-8.8l0.45-1.9c0.3-1 0.6-2.15 0.7-2.5 0.15-0.45 1.15-0.6 3.35-0.5l3.1 0.15 0.6 2.35z"></path>
<path d="M3 3.5c0 0.25 0.25 0.5 0.5 0.5 0.3 0 0.5-0.25 0.5-0.5 0-0.3-0.2-0.5-0.5-0.5-0.25 0-0.5 0.2-0.5 0.5z"></path>
<path d="M5 3.5c0 0.25 0.25 0.5 0.5 0.5 0.3 0 0.5-0.25 0.5-0.5 0-0.3-0.2-0.5-0.5-0.5-0.25 0-0.5 0.2-0.5 0.5z"></path>
<path d="M7 3.5c0 0.25 0.25 0.5 0.5 0.5 0.3 0 0.5-0.25 0.5-0.5 0-0.3-0.2-0.5-0.5-0.5-0.25 0-0.5 0.2-0.5 0.5z"></path>
<path d="M3 6.5c0 0.8 0.25 1.5 0.5 1.5 0.3 0 0.5-0.25 0.5-0.5 0-0.3 4.35-0.5 12-0.5s12 0.2 12 0.5c0 0.25 0.25 0.5 0.5 0.5 0.3 0 0.5-0.7 0.5-1.5 0-0.85-0.2-1.5-0.5-1.5-0.25 0-0.5 0.2-0.5 0.5s-4.35 0.5-12 0.5c-7.65 0-12-0.2-12-0.5s-0.2-0.5-0.5-0.5c-0.25 0-0.5 0.65-0.5 1.5z"></path>
<path d="M3 12.5v3.5h13v-7h-13v3.5zM15 12.35v2.35l-1.75-1.7c-1.45-1.4-1.85-1.55-2.5-1s-0.95 0.5-1.75-0.25c-1-0.9-1.050-0.9-3 1l-2 1.95v-4.7h11v2.35zM9.5 13.75l1.15 1.25h-5.3l1.15-1.25c0.65-0.7 1.3-1.25 1.5-1.25s0.85 0.55 1.5 1.25zM12.75 14c0.7 0.8 0.75 1 0.2 1-0.8 0-1.95-0.95-1.95-1.6 0-0.7 0.8-0.45 1.75 0.6z"></path>
<path d="M17 11.5c0 0.3 2.35 0.5 6 0.5s6-0.2 6-0.5c0-0.3-2.35-0.5-6-0.5s-6 0.2-6 0.5z"></path>
<path d="M18.5 13.5c0 0.3 1.85 0.5 4.5 0.5s4.5-0.2 4.5-0.5c0-0.3-1.85-0.5-4.5-0.5s-4.5 0.2-4.5 0.5z"></path>
<path d="M3 18.5c0 0.8 0.25 1.5 0.5 1.5 0.3 0 0.5-0.25 0.5-0.5 0-0.3 4.35-0.5 12-0.5s12 0.2 12 0.5c0 0.25 0.25 0.5 0.5 0.5 0.3 0 0.5-0.7 0.5-1.5 0-0.85-0.2-1.5-0.5-1.5-0.25 0-0.5 0.2-0.5 0.5s-4.35 0.5-12 0.5c-7.65 0-12-0.2-12-0.5s-0.2-0.5-0.5-0.5c-0.25 0-0.5 0.65-0.5 1.5z"></path>
</symbol>
<symbol id="icon-icon2" viewBox="0 0 32 32">
<path d="M9.3 1.7c-11.2 4.15-10.75 20.3 0.65 23.65l3.050 0.9v4.75h18v-18h-4.8l-0.65-2.5c-1.4-5.4-5.7-8.95-11.2-9.3-1.95-0.15-3.8 0.050-5.050 0.5zM16.35 3.75c2.35 2.35 1.75 3-2.85 3s-5.2-0.65-2.85-3c0.95-0.95 2.25-1.75 2.85-1.75s1.9 0.8 2.85 1.75zM9.2 3.6c-0.8 1.45-1.3 1.85-2 1.55-1-0.4-0.85-0.9 0.45-1.55 1.5-0.75 2-0.7 1.55 0zM19.25 3.6c1.4 0.65 1.6 1.15 0.55 1.55-0.7 0.3-1.2-0.1-2-1.55-0.45-0.75-0.2-0.75 1.45 0zM6.9 6.15c0.4 0.45 0.4 1.55-0.050 3.75l-0.6 3.1h-2.1c-2.55 0-2.7-0.55-1.1-3.95 1.6-3.6 2.65-4.35 3.85-2.9zM23.65 8.45c1.95 3.9 1.85 4.55-0.8 4.55h-2.1l-0.6-3.1c-1-5.2 1.1-6.1 3.5-1.45zM13.5 7.75c1.5 0 3.25-0.2 3.8-0.4 1.25-0.45 1.45-0.1 1.95 3.35l0.35 2.3h-12.2l0.35-2.3c0.5-3.45 0.7-3.8 1.95-3.35 0.55 0.2 2.3 0.4 3.8 0.4zM6.9 17.1c0.5 2.6 0.45 3.25-0.1 3.85-1.1 1.1-2.25 0.3-3.55-2.55-1.8-3.85-1.7-4.4 0.9-4.4h2.15l0.6 3.1zM13 16.45c0 2.25-0.1 2.45-1.35 2.7-0.8 0.15-1.75 0.4-2.2 0.6-0.95 0.35-1.25-0.2-1.7-3.45l-0.35-2.3h5.6v2.45zM30 15c0 0.95-0.35 1-8 1s-8-0.050-8-1c0-0.95 0.35-1 8-1s8 0.050 8 1zM30 23.5v6.5h-16v-13h16v6.5zM13 22.5c0 2.25-0.1 2.5-0.9 2.050-0.9-0.45-2.15-1.8-2.8-2.95-0.4-0.65 1.2-1.5 2.85-1.55 0.7-0.050 0.85 0.4 0.85 2.45zM9.35 23.85c-0.3 0.3-2.85-0.95-2.85-1.4 0-0.85 1.3-0.75 2.15 0.15 0.5 0.6 0.8 1.15 0.7 1.25z"></path>
<path d="M14.5 15c0 0.25 0.25 0.5 0.5 0.5 0.3 0 0.5-0.25 0.5-0.5 0-0.3-0.2-0.5-0.5-0.5-0.25 0-0.5 0.2-0.5 0.5z"></path>
<path d="M16 15c0 0.25 0.25 0.5 0.5 0.5 0.3 0 0.5-0.25 0.5-0.5 0-0.3-0.2-0.5-0.5-0.5-0.25 0-0.5 0.2-0.5 0.5z"></path>
<path d="M17.5 15c0 0.25 0.25 0.5 0.5 0.5 0.3 0 0.5-0.25 0.5-0.5 0-0.3-0.2-0.5-0.5-0.5-0.25 0-0.5 0.2-0.5 0.5z"></path>
<path d="M15 20.5v2.5h6v-5h-6v2.5zM20 20.5c0 1.4-0.1 1.5-2 1.5s-2-0.1-2-1.5c0-1.4 0.1-1.5 2-1.5s2 0.1 2 1.5z"></path>
<path d="M22 19.5c0 0.25 0.25 0.5 0.5 0.5 0.3 0 0.5-0.25 0.5-0.5 0-0.3-0.2-0.5-0.5-0.5-0.25 0-0.5 0.2-0.5 0.5z"></path>
<path d="M24 19.5c0 0.25 1.15 0.5 2.5 0.5 1.4 0 2.5-0.25 2.5-0.5 0-0.3-1.1-0.5-2.5-0.5-1.35 0-2.5 0.2-2.5 0.5z"></path>
<path d="M22 21.5c0 0.25 0.25 0.5 0.5 0.5 0.3 0 0.5-0.25 0.5-0.5 0-0.3-0.2-0.5-0.5-0.5-0.25 0-0.5 0.2-0.5 0.5z"></path>
<path d="M24 21.5c0 0.25 1.15 0.5 2.5 0.5 1.4 0 2.5-0.25 2.5-0.5 0-0.3-1.1-0.5-2.5-0.5-1.35 0-2.5 0.2-2.5 0.5z"></path>
<path d="M15 26.5v2.5h6v-5h-6v2.5zM20 26.5c0 1.4-0.1 1.5-2 1.5s-2-0.1-2-1.5c0-1.4 0.1-1.5 2-1.5s2 0.1 2 1.5z"></path>
<path d="M22 25.5c0 0.25 0.25 0.5 0.5 0.5 0.3 0 0.5-0.25 0.5-0.5 0-0.3-0.2-0.5-0.5-0.5-0.25 0-0.5 0.2-0.5 0.5z"></path>
<path d="M24 25.5c0 0.25 1.15 0.5 2.5 0.5 1.4 0 2.5-0.25 2.5-0.5 0-0.3-1.1-0.5-2.5-0.5-1.35 0-2.5 0.2-2.5 0.5z"></path>
<path d="M22 27.5c0 0.25 0.25 0.5 0.5 0.5 0.3 0 0.5-0.25 0.5-0.5 0-0.3-0.2-0.5-0.5-0.5-0.25 0-0.5 0.2-0.5 0.5z"></path>
<path d="M24 27.5c0 0.25 1.15 0.5 2.5 0.5 1.4 0 2.5-0.25 2.5-0.5 0-0.3-1.1-0.5-2.5-0.5-1.35 0-2.5 0.2-2.5 0.5z"></path>
</symbol>
<symbol id="icon-icon3" viewBox="0 0 32 32">
<path d="M4 1.55c0 0.25-0.25 0.35-0.5 0.2-0.75-0.45-2.1 0.75-1.8 1.6 0.15 0.35 0.050 0.65-0.2 0.65-0.3 0-0.5 0.45-0.5 1s0.2 1 0.5 1c0.25 0 0.35 0.3 0.2 0.65-0.3 0.85 1.050 2.050 1.8 1.6 0.25-0.15 0.5-0.050 0.5 0.2 0 0.3 0.45 0.55 1 0.55s1-0.25 1-0.55c0-0.25 0.25-0.35 0.5-0.2 0.75 0.45 2.1-0.75 1.8-1.6-0.15-0.35-0.050-0.65 0.2-0.65 0.3 0 0.5-0.45 0.5-1s-0.25-1-0.55-1c-0.25 0-0.35-0.25-0.2-0.5 0.45-0.75-0.75-2.1-1.6-1.8-0.35 0.15-0.65 0.050-0.65-0.2 0-0.3-0.45-0.5-1-0.5s-1 0.25-1 0.55zM5.5 2.5c0 0.25 0.35 0.5 0.75 0.5s0.75 0.3 0.75 0.7c0 0.4 0.3 0.85 0.65 1 0.5 0.25 0.5 0.35 0 0.6-0.35 0.15-0.65 0.6-0.65 1s-0.3 0.7-0.7 0.7c-0.4 0-0.85 0.3-1 0.6-0.25 0.5-0.35 0.5-0.6 0-0.15-0.3-0.6-0.6-1-0.6s-0.7-0.3-0.7-0.7c0-0.4-0.3-0.85-0.6-1-0.5-0.25-0.5-0.35 0-0.6 0.3-0.15 0.6-0.6 0.6-1s0.35-0.7 0.75-0.7c0.4 0 0.75-0.25 0.75-0.5 0-0.3 0.25-0.5 0.5-0.5 0.3 0 0.5 0.2 0.5 0.5z"></path>
<path d="M3.7 4.2c-0.5 1.3 0.2 2.4 1.4 2.2 1.65-0.2 1.65-2.6 0-2.8-0.65-0.1-1.25 0.15-1.4 0.6zM5.5 5c0 0.25-0.2 0.5-0.5 0.5-0.25 0-0.5-0.25-0.5-0.5 0-0.3 0.25-0.5 0.5-0.5 0.3 0 0.5 0.2 0.5 0.5z"></path>
<path d="M14.5 1.8c0 0.6-0.3 0.75-1.2 0.5-1.5-0.35-2.9 1.050-2.45 2.6 0.2 0.8 0.050 1.1-0.55 1.1-1.15 0-1.1 2.85 0.1 3.15 0.45 0.15-0.8 0.25-2.8 0.3l-3.6 0.050 0.1 10.6 0.15 10.65h23.5l0.15-10.65 0.1-10.6-3.6-0.050c-2-0.050-3.25-0.15-2.75-0.3 1.15-0.3 1.2-3.15 0.050-3.15-0.6 0-0.75-0.3-0.5-1.2 0.35-1.5-1.050-2.9-2.6-2.45-0.8 0.2-1.1 0.050-1.1-0.55 0-0.55-0.45-0.8-1.5-0.8s-1.5 0.25-1.5 0.8zM16.85 3c0.3 1.050 1.4 1.35 1.9 0.5 0.25-0.4 0.55-0.35 1.050 0.050s0.6 0.75 0.2 1.15c-0.8 0.8-0.6 1.65 0.5 1.95 0.55 0.15 1 0.5 1 0.85s-0.45 0.7-1 0.85c-1.050 0.3-1.35 1.4-0.5 1.9 0.4 0.25 0.35 0.55-0.050 1.050s-0.75 0.6-1.15 0.2c-0.8-0.8-1.65-0.6-1.95 0.5-0.15 0.55-0.5 1-0.85 1s-0.7-0.45-0.85-1c-0.3-1.050-1.4-1.35-1.9-0.5-0.25 0.4-0.55 0.35-1.050-0.050s-0.6-0.75-0.2-1.15c0.8-0.8 0.6-1.65-0.5-1.95-0.55-0.15-1-0.5-1-0.85s0.45-0.7 1-0.85c1.050-0.3 1.35-1.4 0.5-1.9-0.4-0.25-0.35-0.55 0.050-1.050s0.75-0.6 1.15-0.2c0.8 0.8 1.65 0.6 1.95-0.5 0.15-0.55 0.5-1 0.85-1s0.7 0.45 0.85 1zM9.4 10.85c-0.75 0.1-2.1 0.1-3 0s-0.3-0.2 1.35-0.2c1.65 0 2.4 0.1 1.65 0.2zM25.9 10.85c-0.75 0.1-2.1 0.1-3 0s-0.3-0.2 1.35-0.2c1.65 0 2.4 0.1 1.65 0.2zM11.75 12.5c0.15 0.3 0.85 0.35 1.55 0.2 0.9-0.25 1.2-0.1 1.2 0.5 0 0.55 0.45 0.8 1.5 0.8s1.5-0.25 1.5-0.8c0-0.6 0.3-0.75 1.2-0.5 0.7 0.15 1.4 0.1 1.55-0.2 0.15-0.25 1.75-0.5 3.55-0.5h3.2v18h-22v-18h3.2c1.8 0 3.4 0.25 3.55 0.5z"></path>
<path d="M14 5.5c-0.55 0.55-1 1.45-1 2 0 1.3 1.7 3 3 3s3-1.7 3-3c0-0.55-0.45-1.45-1-2s-1.45-1-2-1c-0.55 0-1.45 0.45-2 1zM17.5 6.25c1.3 1.6-0.65 4.050-2.35 2.95-1.15-0.7-1.4-2.050-0.65-2.95 0.8-0.95 2.2-0.95 3 0z"></path>
<path d="M6.7 14.15c-0.15 0.4-0.2 1.95-0.1 3.4l0.15 2.7h6.5v-6.5l-3.15-0.15c-2.35-0.1-3.2 0.050-3.4 0.55zM12.5 17v2.5h-5v-5h5v2.5z"></path>
<path d="M20.5 14c0 0.25 1.15 0.5 2.5 0.5 1.4 0 2.5-0.25 2.5-0.5 0-0.3-1.1-0.5-2.5-0.5-1.35 0-2.5 0.2-2.5 0.5z"></path>
<path d="M14.5 15.5c0 0.25 0.45 0.5 1 0.5s1-0.25 1-0.5c0-0.3-0.45-0.5-1-0.5s-1 0.2-1 0.5z"></path>
<path d="M17 15.5c0 0.25 1.25 0.5 2.75 0.5s2.75-0.25 2.75-0.5c0-0.3-1.25-0.5-2.75-0.5s-2.75 0.2-2.75 0.5z"></path>
<path d="M23 15.5c0 0.25 0.55 0.5 1.25 0.5s1.25-0.25 1.25-0.5c0-0.3-0.55-0.5-1.25-0.5s-1.25 0.2-1.25 0.5z"></path>
<path d="M14.5 17c0 0.25 0.25 0.5 0.5 0.5 0.3 0 0.5-0.25 0.5-0.5 0-0.3-0.2-0.5-0.5-0.5-0.25 0-0.5 0.2-0.5 0.5z"></path>
<path d="M16 17c0 0.25 1.25 0.5 2.75 0.5s2.75-0.25 2.75-0.5c0-0.3-1.25-0.5-2.75-0.5s-2.75 0.2-2.75 0.5z"></path>
<path d="M22 17c0 0.25 0.8 0.5 1.75 0.5s1.75-0.25 1.75-0.5c0-0.3-0.8-0.5-1.75-0.5s-1.75 0.2-1.75 0.5z"></path>
<path d="M14.5 18.5c0 0.3 2.15 0.5 5.5 0.5s5.5-0.2 5.5-0.5c0-0.3-2.15-0.5-5.5-0.5s-5.5 0.2-5.5 0.5z"></path>
<path d="M14.5 20c0 0.25 0.55 0.5 1.25 0.5s1.25-0.25 1.25-0.5c0-0.3-0.55-0.5-1.25-0.5s-1.25 0.2-1.25 0.5z"></path>
<path d="M17.5 20c0 0.25 1.25 0.5 2.75 0.5s2.75-0.25 2.75-0.5c0-0.3-1.25-0.5-2.75-0.5s-2.75 0.2-2.75 0.5z"></path>
<path d="M23.5 20c0 0.25 0.45 0.5 1 0.5s1-0.25 1-0.5c0-0.3-0.45-0.5-1-0.5s-1 0.2-1 0.5z"></path>
<path d="M6.7 22.65c-0.15 0.4-0.2 1.95-0.1 3.4l0.15 2.7h6.5v-6.5l-3.15-0.15c-2.35-0.1-3.2 0.050-3.4 0.55zM12.5 25.5v2.5h-5v-5h5v2.5z"></path>
<path d="M14.5 22.5c0 0.3 2.15 0.5 5.5 0.5s5.5-0.2 5.5-0.5c0-0.3-2.15-0.5-5.5-0.5s-5.5 0.2-5.5 0.5z"></path>
<path d="M14.5 24c0 0.25 0.45 0.5 1 0.5s1-0.25 1-0.5c0-0.3-0.45-0.5-1-0.5s-1 0.2-1 0.5z"></path>
<path d="M17 24c0 0.25 1.25 0.5 2.75 0.5s2.75-0.25 2.75-0.5c0-0.3-1.25-0.5-2.75-0.5s-2.75 0.2-2.75 0.5z"></path>
<path d="M23 24c0 0.25 0.55 0.5 1.25 0.5s1.25-0.25 1.25-0.5c0-0.3-0.55-0.5-1.25-0.5s-1.25 0.2-1.25 0.5z"></path>
<path d="M14.5 25.5c0 0.25 0.25 0.5 0.5 0.5 0.3 0 0.5-0.25 0.5-0.5 0-0.3-0.2-0.5-0.5-0.5-0.25 0-0.5 0.2-0.5 0.5z"></path>
<path d="M16 25.5c0 0.25 1.25 0.5 2.75 0.5s2.75-0.25 2.75-0.5c0-0.3-1.25-0.5-2.75-0.5s-2.75 0.2-2.75 0.5z"></path>
<path d="M22 25.5c0 0.25 0.8 0.5 1.75 0.5s1.75-0.25 1.75-0.5c0-0.3-0.8-0.5-1.75-0.5s-1.75 0.2-1.75 0.5z"></path>
<path d="M14.5 27c0 0.3 2.15 0.5 5.5 0.5s5.5-0.2 5.5-0.5c0-0.3-2.15-0.5-5.5-0.5s-5.5 0.2-5.5 0.5z"></path>
<path d="M14.5 28.5c0 0.25 0.55 0.5 1.25 0.5s1.25-0.25 1.25-0.5c0-0.3-0.55-0.5-1.25-0.5s-1.25 0.2-1.25 0.5z"></path>
<path d="M17.5 28.5c0 0.25 1.25 0.5 2.75 0.5s2.75-0.25 2.75-0.5c0-0.3-1.25-0.5-2.75-0.5s-2.75 0.2-2.75 0.5z"></path>
<path d="M23.5 28.5c0 0.25 0.45 0.5 1 0.5s1-0.25 1-0.5c0-0.3-0.45-0.5-1-0.5s-1 0.2-1 0.5z"></path>
<path d="M26 1.55c0 0.25-0.25 0.35-0.5 0.2-0.75-0.45-2.1 0.75-1.8 1.6 0.15 0.35 0.050 0.65-0.2 0.65-0.3 0-0.5 0.45-0.5 1s0.2 1 0.5 1c0.25 0 0.35 0.3 0.2 0.65-0.3 0.85 1.050 2.050 1.8 1.6 0.25-0.15 0.5-0.050 0.5 0.2 0 0.3 0.45 0.55 1 0.55s1-0.25 1-0.55c0-0.25 0.25-0.35 0.5-0.2 0.75 0.45 2.1-0.75 1.8-1.6-0.15-0.35-0.050-0.65 0.2-0.65 0.3 0 0.5-0.45 0.5-1s-0.25-1-0.55-1c-0.25 0-0.35-0.25-0.2-0.5 0.45-0.75-0.75-2.1-1.6-1.8-0.35 0.15-0.65 0.050-0.65-0.2 0-0.3-0.45-0.5-1-0.5s-1 0.25-1 0.55zM27.5 2.5c0 0.25 0.35 0.5 0.75 0.5s0.75 0.3 0.75 0.7c0 0.4 0.3 0.85 0.65 1 0.5 0.25 0.5 0.35 0 0.6-0.35 0.15-0.65 0.6-0.65 1s-0.3 0.7-0.7 0.7c-0.4 0-0.85 0.3-1 0.6-0.25 0.5-0.35 0.5-0.6 0-0.15-0.3-0.6-0.6-1-0.6s-0.7-0.3-0.7-0.7c0-0.4-0.3-0.85-0.6-1-0.5-0.25-0.5-0.35 0-0.6 0.3-0.15 0.6-0.6 0.6-1s0.35-0.7 0.75-0.7c0.4 0 0.75-0.25 0.75-0.5 0-0.3 0.25-0.5 0.5-0.5 0.3 0 0.5 0.2 0.5 0.5z"></path>
<path d="M25.7 4.2c-0.5 1.3 0.2 2.4 1.4 2.2 1.65-0.2 1.65-2.6 0-2.8-0.65-0.1-1.25 0.15-1.4 0.6zM27.5 5c0 0.25-0.2 0.5-0.5 0.5-0.25 0-0.5-0.25-0.5-0.5 0-0.3 0.25-0.5 0.5-0.5 0.3 0 0.5 0.2 0.5 0.5z"></path>
<path d="M1 20c0 9.15 0.050 9.5 1 9.5 0.55 0 1-0.25 1-0.5 0-0.3-0.2-0.5-0.5-0.5s-0.5-3.15-0.5-8.5c0-5.35 0.2-8.5 0.5-8.5s0.5-0.25 0.5-0.5c0-0.3-0.45-0.5-1-0.5-0.95 0-1 0.35-1 9.5z"></path>
<path d="M29 11c0 0.25 0.25 0.5 0.5 0.5 0.3 0 0.5 3.15 0.5 8.5s-0.2 8.5-0.5 8.5c-0.25 0-0.5 0.2-0.5 0.5 0 0.25 0.45 0.5 1 0.5 0.95 0 1-0.35 1-9.5s-0.050-9.5-1-9.5c-0.55 0-1 0.2-1 0.5z"></path>
</symbol>
<symbol id="icon-icon4" viewBox="0 0 32 32">
<path d="M10.1 1.1c-0.4 0.4-0.6 2.8-0.6 7.5v6.85l-7.75 0.3-0.15 5.9c-0.1 3.6-0.35 5.85-0.65 5.85s-0.45 0.8-0.35 1.9l0.15 1.85h20.5l0.15-1.85c0.1-1.1-0.050-1.9-0.35-1.9-0.35 0-0.55-1.5-0.55-4v-4h4.9c3.15 0 5.1-0.2 5.5-0.6 0.85-0.85 0.85-16.95 0-17.8s-19.95-0.85-20.8 0zM30.4 2.6c0.15 0.85-0.55 0.9-9.85 0.9-8.050 0-10.050-0.15-10.050-0.65 0-0.4 0.15-0.85 0.35-1.050 0.2-0.15 4.6-0.25 9.85-0.2 8.6 0.15 9.55 0.25 9.7 1zM30.4 11.35l-0.15 6.9h-19.5l-0.15-6.9-0.15-6.85h20.1l-0.15 6.85zM6.4 16.85l-3.4 0.2v9.95h15.95l0.2-3.9 0.15-3.85 0.1 4.1 0.1 4.15h-17v-11l7.25 0.2-3.35 0.15zM10 18.75c0.45 0.55 1.65 0.75 4.3 0.75h3.7v6.5h-14v-8h2.7c1.75 0 2.9 0.25 3.3 0.75zM8.3 29.25c0.2 0.5 1.050 0.75 2.7 0.75s2.5-0.25 2.7-0.75c0.2-0.55 1.1-0.75 3.55-0.75 2.9 0 3.25 0.1 3.25 1 0 0.95-0.35 1-9.5 1s-9.5-0.050-9.5-1c0-0.9 0.35-1 3.25-1 2.45 0 3.35 0.2 3.55 0.75zM11.9 28.85c-0.5 0.1-1.3 0.1-1.75 0-0.5-0.15-0.1-0.25 0.85-0.25s1.35 0.1 0.9 0.25z"></path>
<path d="M11 2.5c0 0.25 0.25 0.5 0.5 0.5 0.3 0 0.5-0.25 0.5-0.5 0-0.3-0.2-0.5-0.5-0.5-0.25 0-0.5 0.2-0.5 0.5z"></path>
<path d="M12.5 2.5c0 0.25 0.25 0.5 0.5 0.5 0.3 0 0.5-0.25 0.5-0.5 0-0.3-0.2-0.5-0.5-0.5-0.25 0-0.5 0.2-0.5 0.5z"></path>
<path d="M14 2.5c0 0.25 0.25 0.5 0.5 0.5 0.3 0 0.5-0.25 0.5-0.5 0-0.3-0.2-0.5-0.5-0.5-0.25 0-0.5 0.2-0.5 0.5z"></path>
<path d="M12 9v3.5h17v-7h-17v3.5zM28 9v2.5h-15v-5h15v2.5z"></path>
<path d="M12 13.5c0 0.3 3.15 0.5 8.5 0.5s8.5-0.2 8.5-0.5c0-0.3-3.15-0.5-8.5-0.5s-8.5 0.2-8.5 0.5z"></path>
<path d="M13.5 15c0 0.3 2.65 0.5 7 0.5s7-0.2 7-0.5c0-0.3-2.65-0.5-7-0.5s-7 0.2-7 0.5z"></path>
<path d="M16 16.5c0 0.3 1.85 0.5 4.5 0.5s4.5-0.2 4.5-0.5c0-0.3-1.85-0.5-4.5-0.5s-4.5 0.2-4.5 0.5z"></path>
<path d="M2 29.5c0 0.25 0.55 0.5 1.25 0.5s1.25-0.25 1.25-0.5c0-0.3-0.55-0.5-1.25-0.5s-1.25 0.2-1.25 0.5z"></path>
<path d="M5 29.5c0 0.25 0.35 0.5 0.75 0.5s0.75-0.25 0.75-0.5c0-0.3-0.35-0.5-0.75-0.5s-0.75 0.2-0.75 0.5z"></path>
<path d="M5 7.25c0 0.55-0.55 0.75-2 0.75h-2v7h1.5c1.4 0 1.5-0.1 1.5-2 0-1.1 0.25-2 0.5-2 0.3 0 0.5 0.35 0.5 0.75 0 1.1 0.5 0.9 2.5-0.75l1.75-1.5-1.75-1.5c-2-1.65-2.5-1.85-2.5-0.75zM7.25 9.55c0 0.5-0.55 0.65-2.1 0.55l-2.15-0.2v2.050c0 1.15-0.2 2.050-0.5 2.050-0.25 0-0.5-1.1-0.5-2.45v-2.5l2.15-0.2c2.75-0.2 3.1-0.15 3.1 0.7z"></path>
<path d="M26 22c0 1.1-0.2 2-0.5 2-0.25 0-0.5-0.35-0.5-0.75 0-1.1-0.5-0.9-2.5 0.75l-1.75 1.5 1.75 1.5c2 1.65 2.5 1.85 2.5 0.75 0-0.55 0.55-0.75 2-0.75h2v-7h-1.5c-1.4 0-1.5 0.1-1.5 2zM28 23.5v2.5l-2 0.050c-1.1 0.050-2.3 0.1-2.6 0.15-0.35 0.050-0.65-0.3-0.65-0.7 0-0.6 0.5-0.7 2.15-0.6l2.1 0.2v-2.050c0-1.15 0.25-2.050 0.5-2.050 0.3 0 0.5 1.1 0.5 2.5z"></path>
</symbol>
<symbol id="icon-icon5" viewBox="0 0 32 32">
<path d="M0 13.5v13.45l14.75 0.3 0.5 4.5 6.45 0.15c4.3 0.1 6.65-0.050 7.1-0.45 0.4-0.3 0.7-1.45 0.7-2.5 0-1.75 0.15-1.95 1.25-1.95h1.25v-27h-32v13.5zM31 2.5v1.5h-30v-3h30v1.5zM31 15.5c0 9.3-0.1 11-0.75 11-0.55 0-0.75-0.95-0.85-4.35l-0.15-4.4h-14l-0.5 8.5-13.75 0.3v-22.050h30v11zM28.5 24.75v6.25h-12.5v-12.5h12.5v6.25z"></path>
<path d="M25.4 2.6c0.45 0.45 0.75 0.45 1.2 0s0.35-0.6-0.6-0.6c-0.95 0-1.050 0.15-0.6 0.6z"></path>
<path d="M28.5 2.5c0 0.25 0.35 0.5 0.75 0.5s0.75-0.25 0.75-0.5c0-0.3-0.35-0.5-0.75-0.5s-0.75 0.2-0.75 0.5z"></path>
<path d="M2.5 6.75c0 0.15 0.55 0.5 1.25 0.75 1.2 0.45 1.25 0.7 1.25 4.2 0 2.9 0.15 3.75 0.8 4 1.25 0.5 5.1 0.35 5.45-0.2 0.2-0.3-0.75-0.5-2.45-0.5-2.15 0-2.8-0.15-2.8-0.75s0.65-0.75 2.95-0.75c2.85 0 2.95-0.050 3.5-1.55 1-2.8 0.85-2.95-2.85-2.95-3 0-3.4-0.1-3.85-1.15-0.45-0.95-3.25-1.95-3.25-1.1zM11.8 10.6c-0.15 0.65-0.3 1.3-0.3 1.5 0 0.25-1.25 0.4-2.75 0.4-2.7 0-2.75 0-2.75-1.5v-1.5h3.050c2.95 0 3.050 0.050 2.75 1.1z"></path>
<path d="M7 11c0 0.25 0.25 0.5 0.5 0.5 0.3 0 0.5-0.25 0.5-0.5 0-0.3-0.2-0.5-0.5-0.5-0.25 0-0.5 0.2-0.5 0.5z"></path>
<path d="M9.5 11c0 0.25 0.25 0.5 0.5 0.5 0.3 0 0.5-0.25 0.5-0.5 0-0.3-0.2-0.5-0.5-0.5-0.25 0-0.5 0.2-0.5 0.5z"></path>
<path d="M15 7.75v1.25h14.5v-2.5h-14.5v1.25zM25.65 7.85c-1.7 0.1-4.65 0.1-6.5 0s-0.5-0.15 3.1-0.15c3.6 0 5.1 0.050 3.4 0.15z"></path>
<path d="M15 11c0 0.25 0.45 0.5 1 0.5s1-0.25 1-0.5c0-0.3-0.45-0.5-1-0.5s-1 0.2-1 0.5z"></path>
<path d="M18 11c0 0.3 2.25 0.5 5.75 0.5s5.75-0.2 5.75-0.5c0-0.3-2.25-0.5-5.75-0.5s-5.75 0.2-5.75 0.5z"></path>
<path d="M15.25 13.5c0.2 0.3 3.1 0.5 7 0.5s6.8-0.2 7-0.5c0.2-0.3-2.25-0.5-7-0.5s-7.2 0.2-7 0.5z"></path>
<path d="M15 15.5c0 0.3 2.65 0.5 6.95 0.5 4.15 0 7.1-0.2 7.3-0.5s-2.25-0.5-6.95-0.5c-4.55 0-7.3 0.2-7.3 0.5z"></path>
<path d="M3.050 18.2c-0.35 0.4-0.55 1.8-0.45 3.4l0.15 2.65h9.95l0.5-1.65c0.25-1 0.25-2.2 0-3.25l-0.5-1.6-4.5-0.15c-3.5-0.1-4.7 0.050-5.15 0.6zM12.4 20.65c0.25 2.8-0.5 3.35-4.15 3.35-4.5 0-4.75-0.15-4.75-3.050v-2.5l8.75 0.3 0.15 1.9z"></path>
<path d="M5 21.3c0 0.7 0.2 1.15 0.5 0.95 0.3-0.15 0.5-0.75 0.5-1.3 0-0.5-0.2-0.95-0.5-0.95-0.25 0-0.5 0.6-0.5 1.3z"></path>
<path d="M7.5 21.3c0 0.7 0.2 1.15 0.5 0.95 0.3-0.15 0.5-0.75 0.5-1.3 0-0.5-0.2-0.95-0.5-0.95-0.25 0-0.5 0.6-0.5 1.3z"></path>
<path d="M10 21.3c0 0.7 0.2 1.15 0.5 0.95 0.3-0.15 0.5-0.75 0.5-1.3 0-0.5-0.2-0.95-0.5-0.95-0.25 0-0.5 0.6-0.5 1.3z"></path>
<path d="M17.15 20.4c0.55 0.6 0.75 1.45 0.55 2.6-0.25 1.6-0.050 2 2.5 4.5l2.8 2.75 2.35-2.4 2.4-2.35-2.75-2.8c-2.55-2.6-2.85-2.75-4.6-2.5-1 0.15-2 0.1-2.15-0.2-0.15-0.25-0.65-0.5-1.1-0.5-0.75 0-0.75 0.1 0 0.9zM24.35 23.1l2.15 2.1-3.7 3.8-2.15-2.1c-2.15-2.15-2.9-4.4-1.4-4.4 0.4 0 0.75-0.35 0.75-0.75 0-1.45 2.2-0.75 4.35 1.35z"></path>
<path d="M21.5 23c-0.4 0.25-0.55 0.6-0.35 0.8s0.65 0.1 0.95-0.2c0.75-0.75 0.35-1.2-0.6-0.6z"></path>
<path d="M22 24.75c-1.1 1.35-0.25 1.85 0.95 0.55 0.95-1 1.050-1.3 0.45-1.3-0.45 0-1.050 0.35-1.4 0.75z"></path>
<path d="M23.3 26.1c-0.45 0.6-0.65 1.2-0.55 1.35 0.3 0.25 2.25-1.45 2.25-2.050 0-0.75-0.95-0.4-1.7 0.7z"></path>
</symbol>
<symbol id="icon-icon6" viewBox="0 0 32 32">
<path d="M6.56 6.56l-0.8 0.768v17.344l0.8 0.768 0.768 0.8h17.344l0.768-0.8 0.8-0.768v-17.344l-0.8-0.768-0.768-0.8h-17.344l-0.768 0.8zM24.96 7.040c0.352 0.352 0.64 0.992 0.64 1.44 0 0.704-0.128 0.8-1.344 0.864l-1.376 0.032 1.376 0.128 1.344 0.128v13.728l-7.904 0.064-7.936 0.096 7.936 0.064c4.896 0.064 7.904 0.224 7.904 0.416s-0.288 0.608-0.64 0.96c-0.608 0.608-1.056 0.64-8.96 0.64s-8.352-0.032-8.96-0.64c-0.992-0.992-0.768-1.28 0.896-1.344l1.504-0.064-1.504-0.096-1.536-0.128v-13.728l6.336-0.064 6.304-0.096-6.304-0.064-6.336-0.096v-0.8c0-0.448 0.288-1.088 0.64-1.44 0.608-0.608 1.056-0.64 8.96-0.64s8.352 0.032 8.96 0.64z"></path>
<path d="M8.128 7.52c-0.128 0.288-0.064 0.672 0.128 0.864 0.48 0.48 1.408 0.032 1.28-0.608-0.128-0.736-1.152-0.928-1.408-0.256zM9.28 7.84c0 0.256-0.224 0.48-0.48 0.48s-0.48-0.224-0.48-0.48c0-0.256 0.224-0.48 0.48-0.48s0.48 0.224 0.48 0.48z"></path>
<path d="M10.368 7.52c-0.128 0.288-0.064 0.672 0.128 0.864 0.48 0.48 1.408 0.032 1.28-0.608-0.128-0.736-1.152-0.928-1.408-0.256zM11.52 7.84c0 0.256-0.224 0.48-0.48 0.48s-0.48-0.224-0.48-0.48c0-0.256 0.224-0.48 0.48-0.48s0.48 0.224 0.48 0.48z"></path>
<path d="M12.608 7.52c-0.128 0.288-0.064 0.672 0.128 0.864 0.48 0.48 1.408 0.032 1.28-0.608-0.128-0.736-1.152-0.928-1.408-0.256zM13.76 7.84c0 0.256-0.224 0.48-0.48 0.48s-0.48-0.224-0.48-0.48c0-0.256 0.224-0.48 0.48-0.48s0.48 0.224 0.48 0.48z"></path>
<path d="M20.096 9.504c0.384 0.064 0.96 0.064 1.28 0 0.288-0.096-0.032-0.16-0.736-0.128-0.704 0-0.96 0.064-0.544 0.128z"></path>
<path d="M13.568 16.64c0 3.264 0.064 4.576 0.096 2.944 0.064-1.6 0.064-4.288 0-5.92-0.032-1.6-0.096-0.288-0.096 2.976z"></path>
<path d="M15.104 13.344l0.064 2.176 0.096-2.016 0.128-1.984h8.608v4.128l-3.264 0.128-3.296 0.096 6.88 0.128v-4.8h-9.28l0.064 2.144z"></path>
<path d="M8.896 12.064c0.736 0.064 1.888 0.064 2.56 0 0.64-0.064 0.032-0.128-1.376-0.128s-1.952 0.064-1.184 0.128z"></path>
<path d="M8.896 14.304c0.736 0.064 1.888 0.064 2.56 0 0.64-0.064 0.032-0.128-1.376-0.128s-1.952 0.064-1.184 0.128z"></path>
<path d="M16.256 15.904c0.192 0.064 0.576 0.064 0.8 0 0.192-0.096 0.032-0.16-0.416-0.16s-0.608 0.064-0.384 0.16z"></path>
<path d="M8.896 16.544c0.736 0.064 1.888 0.064 2.56 0 0.64-0.064 0.032-0.128-1.376-0.128s-1.952 0.064-1.184 0.128z"></path>
<path d="M19.52 19.36v2.4h4.8v-4.8h-4.8v2.4zM24 19.36v2.080h-4.16v-4.16h4.16v2.080z"></path>
<path d="M8.896 18.784c0.736 0.064 1.888 0.064 2.56 0 0.64-0.064 0.032-0.128-1.376-0.128s-1.952 0.064-1.184 0.128z"></path>
<path d="M15.936 18.784c0.544 0.064 1.504 0.064 2.080 0 0.544-0.064 0.096-0.128-1.056-0.128s-1.6 0.064-1.024 0.128z"></path>
<path d="M8.896 21.024c0.736 0.064 1.888 0.064 2.56 0 0.64-0.064 0.032-0.128-1.376-0.128s-1.952 0.064-1.184 0.128z"></path>
<path d="M15.936 21.024c0.544 0.064 1.504 0.064 2.080 0 0.544-0.064 0.096-0.128-1.056-0.128s-1.6 0.064-1.024 0.128z"></path>
</symbol>
<symbol id="icon-icon7" viewBox="0 0 32 32">
<path d="M1.65 0.9c-1.1 0.7-1.65 3.15-1.65 7.25 0 4.35 0.6 6.25 1.5 4.85 0.25-0.4 0.5-1.5 0.5-2.4v-1.6h28v1.6c0 0.9 0.25 2 0.5 2.4 0.9 1.4 1.5-0.5 1.5-4.85 0-4.1-0.55-6.55-1.65-7.25-0.8-0.5-27.9-0.5-28.7 0zM29.9 4.85l0.15 2.65h-28.050v-2.4c0-1.35 0.15-2.6 0.35-2.75 0.2-0.2 6.4-0.3 13.85-0.25l13.55 0.15 0.15 2.6z"></path>
<path d="M4.15 4.6c0.1 0.35 0.5 0.65 0.85 0.65s0.75-0.3 0.9-0.65c0.1-0.35-0.25-0.6-0.9-0.6s-1 0.25-0.85 0.6z"></path>
<path d="M8.15 4.6c0.1 0.35 0.5 0.65 0.85 0.65s0.75-0.3 0.9-0.65c0.1-0.35-0.25-0.6-0.9-0.6s-1 0.25-0.85 0.6z"></path>
<path d="M15.3 11.8c-0.15 0.45-0.3 3.95-0.3 7.85-0.050 5.45-0.2 7.35-0.75 8.050-1.1 1.45-0.9 2.65 0.5 3.6 1.15 0.75 1.35 0.75 2.5 0 1.4-0.95 1.6-2.15 0.5-3.6-0.55-0.7-0.7-2.6-0.75-8.050 0-6.9-0.2-8.65-1-8.65-0.2 0-0.55 0.35-0.7 0.8zM16.8 29.050c0.5 0.85-0.65 1.8-1.35 1.1-0.6-0.6-0.2-1.65 0.55-1.65 0.25 0 0.6 0.25 0.8 0.55z"></path>
<path d="M11.8 13.85c-0.15 0.15-0.3 2.25-0.3 4.6 0 3.6-0.15 4.4-1.050 5.35-0.6 0.6-1.35 1-1.7 0.9-1.25-0.5-2.75 0.75-2.75 2.2 0 1.65 0.8 2.6 2.25 2.6 1.4 0 2.25-0.95 2.25-2.5 0-0.75 0.55-1.85 1.25-2.5 1.15-1.1 1.25-1.5 1.25-5.8 0-4.25-0.35-5.7-1.2-4.85zM9 27.3c0 0.4-0.35 0.7-0.75 0.7-0.75 0-1.050-1.050-0.45-1.65 0.5-0.45 1.2 0.1 1.2 0.95z"></path>
<path d="M19.3 13.85c-0.15 0.15-0.3 2.4-0.3 4.9 0 4.25 0.1 4.65 1.25 5.75 0.7 0.65 1.25 1.75 1.25 2.5 0 1.6 0.85 2.5 2.3 2.5 1.4 0 2.7-1.7 2.35-3.050-0.3-1.15-1.95-2.15-2.9-1.75-0.35 0.1-1.1-0.3-1.7-0.9-0.9-0.95-1.050-1.75-1.050-5.45 0-3.95-0.35-5.3-1.2-4.5zM24.5 27.3c0 0.4-0.35 0.7-0.75 0.7-0.75 0-1.050-1.050-0.45-1.65 0.5-0.45 1.2 0.1 1.2 0.95z"></path>
<path d="M7.050 17.2c-0.65 0.7-1.45 1.1-1.8 1-1.25-0.5-2.75 0.75-2.75 2.2 0 1.65 0.8 2.6 2.25 2.6 1.4 0 2.25-0.95 2.25-2.5 0-0.75 0.55-1.85 1.25-2.5s1.25-1.35 1.25-1.6c0-0.8-1.35-0.35-2.45 0.8zM5.5 20.8c0 0.4-0.35 0.7-0.75 0.7-0.75 0-1.050-1.050-0.45-1.65 0.5-0.45 1.2 0.1 1.2 0.95z"></path>
<path d="M22.5 16.4c0 0.25 0.55 0.95 1.25 1.6s1.25 1.75 1.25 2.5c0 1.55 0.85 2.5 2.25 2.5 1.45 0 2.25-0.95 2.25-2.6 0-1.45-1.5-2.7-2.75-2.2-0.35 0.1-1.15-0.3-1.8-1-1.1-1.15-2.45-1.6-2.45-0.8zM28 20.8c0 0.4-0.35 0.7-0.75 0.7-0.75 0-1.050-1.050-0.45-1.65 0.5-0.45 1.2 0.1 1.2 0.95z"></path>
</symbol>
<symbol id="icon-tablet" viewBox="0 0 32 32">
<path d="M25 0h-20c-1.65 0-3 1.35-3 3v26c0 1.65 1.35 3 3 3h20c1.65 0 3-1.35 3-3v-26c0-1.65-1.35-3-3-3zM15 31c-0.552 0-1-0.448-1-1s0.448-1 1-1 1 0.448 1 1-0.448 1-1 1zM24 28h-18v-24h18v24z"></path>
</symbol>
<symbol id="icon-cogs" viewBox="0 0 32 32">
<path d="M11.366 22.564l1.291-1.807-1.414-1.414-1.807 1.291c-0.335-0.187-0.694-0.337-1.071-0.444l-0.365-2.19h-2l-0.365 2.19c-0.377 0.107-0.736 0.256-1.071 0.444l-1.807-1.291-1.414 1.414 1.291 1.807c-0.187 0.335-0.337 0.694-0.443 1.071l-2.19 0.365v2l2.19 0.365c0.107 0.377 0.256 0.736 0.444 1.071l-1.291 1.807 1.414 1.414 1.807-1.291c0.335 0.187 0.694 0.337 1.071 0.444l0.365 2.19h2l0.365-2.19c0.377-0.107 0.736-0.256 1.071-0.444l1.807 1.291 1.414-1.414-1.291-1.807c0.187-0.335 0.337-0.694 0.444-1.071l2.19-0.365v-2l-2.19-0.365c-0.107-0.377-0.256-0.736-0.444-1.071zM7 27c-1.105 0-2-0.895-2-2s0.895-2 2-2 2 0.895 2 2-0.895 2-2 2zM32 12v-2l-2.106-0.383c-0.039-0.251-0.088-0.499-0.148-0.743l1.799-1.159-0.765-1.848-2.092 0.452c-0.132-0.216-0.273-0.426-0.422-0.629l1.219-1.761-1.414-1.414-1.761 1.219c-0.203-0.149-0.413-0.29-0.629-0.422l0.452-2.092-1.848-0.765-1.159 1.799c-0.244-0.059-0.492-0.109-0.743-0.148l-0.383-2.106h-2l-0.383 2.106c-0.251 0.039-0.499 0.088-0.743 0.148l-1.159-1.799-1.848 0.765 0.452 2.092c-0.216 0.132-0.426 0.273-0.629 0.422l-1.761-1.219-1.414 1.414 1.219 1.761c-0.149 0.203-0.29 0.413-0.422 0.629l-2.092-0.452-0.765 1.848 1.799 1.159c-0.059 0.244-0.109 0.492-0.148 0.743l-2.106 0.383v2l2.106 0.383c0.039 0.251 0.088 0.499 0.148 0.743l-1.799 1.159 0.765 1.848 2.092-0.452c0.132 0.216 0.273 0.426 0.422 0.629l-1.219 1.761 1.414 1.414 1.761-1.219c0.203 0.149 0.413 0.29 0.629 0.422l-0.452 2.092 1.848 0.765 1.159-1.799c0.244 0.059 0.492 0.109 0.743 0.148l0.383 2.106h2l0.383-2.106c0.251-0.039 0.499-0.088 0.743-0.148l1.159 1.799 1.848-0.765-0.452-2.092c0.216-0.132 0.426-0.273 0.629-0.422l1.761 1.219 1.414-1.414-1.219-1.761c0.149-0.203 0.29-0.413 0.422-0.629l2.092 0.452 0.765-1.848-1.799-1.159c0.059-0.244 0.109-0.492 0.148-0.743l2.106-0.383zM21 15.35c-2.402 0-4.35-1.948-4.35-4.35s1.948-4.35 4.35-4.35 4.35 1.948 4.35 4.35c0 2.402-1.948 4.35-4.35 4.35z"></path>
</symbol>
<symbol id="icon-stats-dots" viewBox="0 0 32 32">
<path d="M4 28h28v4h-32v-32h4zM9 26c-1.657 0-3-1.343-3-3s1.343-3 3-3c0.088 0 0.176 0.005 0.262 0.012l3.225-5.375c-0.307-0.471-0.487-1.033-0.487-1.638 0-1.657 1.343-3 3-3s3 1.343 3 3c0 0.604-0.179 1.167-0.487 1.638l3.225 5.375c0.086-0.007 0.174-0.012 0.262-0.012 0.067 0 0.133 0.003 0.198 0.007l5.324-9.316c-0.329-0.482-0.522-1.064-0.522-1.691 0-1.657 1.343-3 3-3s3 1.343 3 3c0 1.657-1.343 3-3 3-0.067 0-0.133-0.003-0.198-0.007l-5.324 9.316c0.329 0.481 0.522 1.064 0.522 1.691 0 1.657-1.343 3-3 3s-3-1.343-3-3c0-0.604 0.179-1.167 0.487-1.638l-3.225-5.375c-0.086 0.007-0.174 0.012-0.262 0.012s-0.176-0.005-0.262-0.012l-3.225 5.375c0.307 0.471 0.487 1.033 0.487 1.637 0 1.657-1.343 3-3 3z"></path>
</symbol>
<symbol id="icon-stats-bars" viewBox="0 0 32 32">
<path d="M0 26h32v4h-32zM4 18h4v6h-4zM10 10h4v14h-4zM16 16h4v8h-4zM22 4h4v20h-4z"></path>
</symbol>
<symbol id="icon-sphere" viewBox="0 0 32 32">
<path d="M15 2c-8.284 0-15 6.716-15 15s6.716 15 15 15c8.284 0 15-6.716 15-15s-6.716-15-15-15zM23.487 22c0.268-1.264 0.437-2.606 0.492-4h3.983c-0.104 1.381-0.426 2.722-0.959 4h-3.516zM6.513 12c-0.268 1.264-0.437 2.606-0.492 4h-3.983c0.104-1.381 0.426-2.722 0.959-4h3.516zM21.439 12c0.3 1.28 0.481 2.62 0.54 4h-5.979v-4h5.439zM16 10v-5.854c0.456 0.133 0.908 0.355 1.351 0.668 0.831 0.586 1.625 1.488 2.298 2.609 0.465 0.775 0.867 1.638 1.203 2.578h-4.852zM10.351 7.422c0.673-1.121 1.467-2.023 2.298-2.609 0.443-0.313 0.895-0.535 1.351-0.668v5.854h-4.852c0.336-0.94 0.738-1.803 1.203-2.578zM14 12v4h-5.979c0.059-1.38 0.24-2.72 0.54-4h5.439zM2.997 22c-0.533-1.278-0.854-2.619-0.959-4h3.983c0.055 1.394 0.224 2.736 0.492 4h-3.516zM8.021 18h5.979v4h-5.439c-0.3-1.28-0.481-2.62-0.54-4zM14 24v5.854c-0.456-0.133-0.908-0.355-1.351-0.668-0.831-0.586-1.625-1.488-2.298-2.609-0.465-0.775-0.867-1.638-1.203-2.578h4.852zM19.649 26.578c-0.673 1.121-1.467 2.023-2.298 2.609-0.443 0.312-0.895 0.535-1.351 0.668v-5.854h4.852c-0.336 0.94-0.738 1.802-1.203 2.578zM16 22v-4h5.979c-0.059 1.38-0.24 2.72-0.54 4h-5.439zM23.98 16c-0.055-1.394-0.224-2.736-0.492-4h3.516c0.533 1.278 0.855 2.619 0.959 4h-3.983zM25.958 10h-2.997c-0.582-1.836-1.387-3.447-2.354-4.732 1.329 0.636 2.533 1.488 3.585 2.54 0.671 0.671 1.261 1.404 1.766 2.192zM5.808 7.808c1.052-1.052 2.256-1.904 3.585-2.54-0.967 1.285-1.771 2.896-2.354 4.732h-2.997c0.504-0.788 1.094-1.521 1.766-2.192zM4.042 24h2.997c0.583 1.836 1.387 3.447 2.354 4.732-1.329-0.636-2.533-1.488-3.585-2.54-0.671-0.671-1.261-1.404-1.766-2.192zM24.192 26.192c-1.052 1.052-2.256 1.904-3.585 2.54 0.967-1.285 1.771-2.896 2.354-4.732h2.997c-0.504 0.788-1.094 1.521-1.766 2.192z"></path>
</symbol>
<symbol id="icon-earth" viewBox="0 0 32 32">
<path d="M16 0c-8.837 0-16 7.163-16 16s7.163 16 16 16 16-7.163 16-16-7.163-16-16-16zM16 30c-1.967 0-3.84-0.407-5.538-1.139l7.286-8.197c0.163-0.183 0.253-0.419 0.253-0.664v-3c0-0.552-0.448-1-1-1-3.531 0-7.256-3.671-7.293-3.707-0.188-0.188-0.442-0.293-0.707-0.293h-4c-0.552 0-1 0.448-1 1v6c0 0.379 0.214 0.725 0.553 0.894l3.447 1.724v5.871c-3.627-2.53-6-6.732-6-11.489 0-2.147 0.484-4.181 1.348-6h3.652c0.265 0 0.52-0.105 0.707-0.293l4-4c0.188-0.188 0.293-0.442 0.293-0.707v-2.419c1.268-0.377 2.61-0.581 4-0.581 2.2 0 4.281 0.508 6.134 1.412-0.13 0.109-0.256 0.224-0.376 0.345-1.133 1.133-1.757 2.64-1.757 4.243s0.624 3.109 1.757 4.243c1.139 1.139 2.663 1.758 4.239 1.758 0.099 0 0.198-0.002 0.297-0.007 0.432 1.619 1.211 5.833-0.263 11.635-0.014 0.055-0.022 0.109-0.026 0.163-2.541 2.596-6.084 4.208-10.004 4.208z"></path>
</symbol>
<symbol id="icon-facebook" viewBox="0 0 32 32">
<path d="M19 6h5v-6h-5c-3.86 0-7 3.14-7 7v3h-4v6h4v16h6v-16h5l1-6h-6v-3c0-0.542 0.458-1 1-1z"></path>
</symbol>
<symbol id="icon-instagram" viewBox="0 0 32 32">
<path d="M16 2.881c4.275 0 4.781 0.019 6.462 0.094 1.563 0.069 2.406 0.331 2.969 0.55 0.744 0.288 1.281 0.638 1.837 1.194 0.563 0.563 0.906 1.094 1.2 1.838 0.219 0.563 0.481 1.412 0.55 2.969 0.075 1.688 0.094 2.194 0.094 6.463s-0.019 4.781-0.094 6.463c-0.069 1.563-0.331 2.406-0.55 2.969-0.288 0.744-0.637 1.281-1.194 1.837-0.563 0.563-1.094 0.906-1.837 1.2-0.563 0.219-1.413 0.481-2.969 0.55-1.688 0.075-2.194 0.094-6.463 0.094s-4.781-0.019-6.463-0.094c-1.563-0.069-2.406-0.331-2.969-0.55-0.744-0.288-1.281-0.637-1.838-1.194-0.563-0.563-0.906-1.094-1.2-1.837-0.219-0.563-0.481-1.413-0.55-2.969-0.075-1.688-0.094-2.194-0.094-6.463s0.019-4.781 0.094-6.463c0.069-1.563 0.331-2.406 0.55-2.969 0.288-0.744 0.638-1.281 1.194-1.838 0.563-0.563 1.094-0.906 1.838-1.2 0.563-0.219 1.412-0.481 2.969-0.55 1.681-0.075 2.188-0.094 6.463-0.094zM16 0c-4.344 0-4.887 0.019-6.594 0.094-1.7 0.075-2.869 0.35-3.881 0.744-1.056 0.412-1.95 0.956-2.837 1.85-0.894 0.888-1.438 1.781-1.85 2.831-0.394 1.019-0.669 2.181-0.744 3.881-0.075 1.713-0.094 2.256-0.094 6.6s0.019 4.887 0.094 6.594c0.075 1.7 0.35 2.869 0.744 3.881 0.413 1.056 0.956 1.95 1.85 2.837 0.887 0.887 1.781 1.438 2.831 1.844 1.019 0.394 2.181 0.669 3.881 0.744 1.706 0.075 2.25 0.094 6.594 0.094s4.888-0.019 6.594-0.094c1.7-0.075 2.869-0.35 3.881-0.744 1.050-0.406 1.944-0.956 2.831-1.844s1.438-1.781 1.844-2.831c0.394-1.019 0.669-2.181 0.744-3.881 0.075-1.706 0.094-2.25 0.094-6.594s-0.019-4.887-0.094-6.594c-0.075-1.7-0.35-2.869-0.744-3.881-0.394-1.063-0.938-1.956-1.831-2.844-0.887-0.887-1.781-1.438-2.831-1.844-1.019-0.394-2.181-0.669-3.881-0.744-1.712-0.081-2.256-0.1-6.6-0.1v0z"></path>
<path d="M16 7.781c-4.537 0-8.219 3.681-8.219 8.219s3.681 8.219 8.219 8.219 8.219-3.681 8.219-8.219c0-4.537-3.681-8.219-8.219-8.219zM16 21.331c-2.944 0-5.331-2.387-5.331-5.331s2.387-5.331 5.331-5.331c2.944 0 5.331 2.387 5.331 5.331s-2.387 5.331-5.331 5.331z"></path>
<path d="M26.462 7.456c0 1.060-0.859 1.919-1.919 1.919s-1.919-0.859-1.919-1.919c0-1.060 0.859-1.919 1.919-1.919s1.919 0.859 1.919 1.919z"></path>
</symbol>
<symbol id="icon-whatsapp" viewBox="0 0 32 32">
<path d="M27.281 4.65c-2.994-3-6.975-4.65-11.219-4.65-8.738 0-15.85 7.112-15.85 15.856 0 2.794 0.731 5.525 2.119 7.925l-2.25 8.219 8.406-2.206c2.319 1.262 4.925 1.931 7.575 1.931h0.006c0 0 0 0 0 0 8.738 0 15.856-7.113 15.856-15.856 0-4.238-1.65-8.219-4.644-11.219zM16.069 29.050v0c-2.369 0-4.688-0.637-6.713-1.837l-0.481-0.288-4.987 1.306 1.331-4.863-0.313-0.5c-1.325-2.094-2.019-4.519-2.019-7.012 0-7.269 5.912-13.181 13.188-13.181 3.519 0 6.831 1.375 9.319 3.862 2.488 2.494 3.856 5.8 3.856 9.325-0.006 7.275-5.919 13.188-13.181 13.188zM23.294 19.175c-0.394-0.2-2.344-1.156-2.706-1.288s-0.625-0.2-0.894 0.2c-0.262 0.394-1.025 1.288-1.256 1.556-0.231 0.262-0.462 0.3-0.856 0.1s-1.675-0.619-3.188-1.969c-1.175-1.050-1.975-2.35-2.206-2.744s-0.025-0.613 0.175-0.806c0.181-0.175 0.394-0.463 0.594-0.694s0.262-0.394 0.394-0.662c0.131-0.262 0.069-0.494-0.031-0.694s-0.894-2.15-1.219-2.944c-0.319-0.775-0.65-0.669-0.894-0.681-0.231-0.012-0.494-0.012-0.756-0.012s-0.694 0.1-1.056 0.494c-0.363 0.394-1.387 1.356-1.387 3.306s1.419 3.831 1.619 4.1c0.2 0.262 2.794 4.269 6.769 5.981 0.944 0.406 1.681 0.65 2.256 0.837 0.95 0.3 1.813 0.256 2.494 0.156 0.762-0.113 2.344-0.956 2.675-1.881s0.331-1.719 0.231-1.881c-0.094-0.175-0.356-0.275-0.756-0.475z"></path>
</symbol>
</defs>
</svg>
