<svg aria-hidden="true" style="position: absolute; width: 0; height: 0; overflow: hidden;" version="1.1" xmlns="http://www.w3.org/2000/svg" xmlns:xlink="http://www.w3.org/1999/xlink">
<defs>
<symbol id="icon-canada" viewBox="0 0 32 32">
<path fill="#010101" style="fill: var(--color1, #010101)" d="M0 0v5.313h32v-5.313h-32z"></path>
<path fill="#e1536d" style="fill: var(--color2, #e1536d)" d="M0 5.313v0.063h10.625v21.25h-10.625v0.063h10.688v-21.375h-10.688z"></path>
<path fill="#f1f1f1" style="fill: var(--color3, #f1f1f1)" d="M10.688 5.313v21.375h10.625v-21.375h-10.625z"></path>
<path fill="#e1536d" style="fill: var(--color2, #e1536d)" d="M21.313 5.313v21.375h10.688v-0.063h-10.625v-21.25h10.625c-0.82-0.344-2.294-0.063-3.188-0.063h-7.5z"></path>
<path fill="#d90127" style="fill: var(--color4, #d90127)" d="M0 5.375v21.25h10.625v-21.25h-10.625zM21.375 5.375v21.25h10.625v-21.25h-10.625z"></path>
<path fill="#e1536d" style="fill: var(--color2, #e1536d)" d="M15.979 12.521v0z"></path>
<path fill="#e99eab" style="fill: var(--color5, #e99eab)" d="M15.875 12.563v0z"></path>
<path fill="#d90127" style="fill: var(--color4, #d90127)" d="M15.938 12.563l-1.006 1.373-0.869 0.064 0.938 2-2-1-0.1 0.976-0.837 0.524 1.938 0.938-0.438 1h1.938v1.5h1v-1.5h1.938l-0.438-1 1.938-0.938-0.837-0.524-0.1-0.976-2 1 0.938-2-0.869-0.064-1.006-1.373h-0.125z"></path>
<path fill="#e99eab" style="fill: var(--color5, #e99eab)" d="M16.063 12.563v0z"></path>
<path fill="#e1536d" style="fill: var(--color2, #e1536d)" d="M15.813 12.688v0zM16.125 12.688v0z"></path>
<path fill="#e99eab" style="fill: var(--color5, #e99eab)" d="M15.75 12.75v0zM16.188 12.75v0z"></path>
<path fill="#e1536d" style="fill: var(--color2, #e1536d)" d="M15.688 12.875v0zM16.25 12.875v0z"></path>
<path fill="#e99eab" style="fill: var(--color5, #e99eab)" d="M15.625 12.938v0zM16.313 12.938v0z"></path>
<path fill="#e1536d" style="fill: var(--color2, #e1536d)" d="M15.563 13.063v0zM16.375 13.063v0z"></path>
<path fill="#e99eab" style="fill: var(--color5, #e99eab)" d="M15.5 13.125v0zM16.438 13.125v0z"></path>
<path fill="#e1536d" style="fill: var(--color2, #e1536d)" d="M15.438 13.25v0zM16.5 13.25v0z"></path>
<path fill="#e99eab" style="fill: var(--color5, #e99eab)" d="M15.375 13.313v0zM16.563 13.313v0z"></path>
<path fill="#e1536d" style="fill: var(--color2, #e1536d)" d="M15.313 13.438v0zM16.625 13.438v0z"></path>
<path fill="#e99eab" style="fill: var(--color5, #e99eab)" d="M15.25 13.5v0zM16.688 13.5v0z"></path>
<path fill="#e1536d" style="fill: var(--color2, #e1536d)" d="M15.188 13.625v0zM16.75 13.625v0z"></path>
<path fill="#e99eab" style="fill: var(--color5, #e99eab)" d="M15.125 13.688v0zM16.813 13.688v0z"></path>
<path fill="#e1536d" style="fill: var(--color2, #e1536d)" d="M15.063 13.813v0zM16.875 13.813v0z"></path>
<path fill="#e99eab" style="fill: var(--color5, #e99eab)" d="M15 13.875v0zM16.938 13.875v0zM14 13.938v0.063h1l-1-0.063zM17 13.938v0.063h1l-1-0.063z"></path>
<path fill="#e1536d" style="fill: var(--color2, #e1536d)" d="M14 14v0zM17.938 14v0zM14.063 14.125v0zM17.875 14.125v0zM14.125 14.25v0zM17.813 14.25v0zM14.188 14.375v0zM17.75 14.375v0zM14.25 14.5v0zM17.688 14.5v0zM14.313 14.625v0zM17.625 14.625v0zM14.375 14.75v0zM17.563 14.75v0zM14.438 14.875v0zM17.5 14.875v0zM13.063 15v0zM14.5 15v0zM17.438 15v0z"></path>
<path fill="#e99eab" style="fill: var(--color5, #e99eab)" d="M18.875 15v0z"></path>
<path fill="#e1536d" style="fill: var(--color2, #e1536d)" d="M13.188 15.063v0z"></path>
<path fill="#e99eab" style="fill: var(--color5, #e99eab)" d="M18.75 15.063v0z"></path>
<path fill="#e1536d" style="fill: var(--color2, #e1536d)" d="M13.313 15.125v0zM14.563 15.125v0zM17.375 15.125v0z"></path>
<path fill="#e99eab" style="fill: var(--color5, #e99eab)" d="M18.625 15.125v0z"></path>
<path fill="#e1536d" style="fill: var(--color2, #e1536d)" d="M13.438 15.188v0z"></path>
<path fill="#e99eab" style="fill: var(--color5, #e99eab)" d="M18.5 15.188v0z"></path>
<path fill="#e1536d" style="fill: var(--color2, #e1536d)" d="M13.563 15.25v0zM14.625 15.25v0zM17.313 15.25v0z"></path>
<path fill="#e99eab" style="fill: var(--color5, #e99eab)" d="M18.375 15.25v0z"></path>
<path fill="#e1536d" style="fill: var(--color2, #e1536d)" d="M13.688 15.313v0z"></path>
<path fill="#e99eab" style="fill: var(--color5, #e99eab)" d="M18.25 15.313v0z"></path>
<path fill="#e1536d" style="fill: var(--color2, #e1536d)" d="M13.813 15.375v0zM14.688 15.375v0zM17.25 15.375v0z"></path>
<path fill="#e99eab" style="fill: var(--color5, #e99eab)" d="M18.125 15.375v0z"></path>
<path fill="#e1536d" style="fill: var(--color2, #e1536d)" d="M13.938 15.438v0z"></path>
<path fill="#e99eab" style="fill: var(--color5, #e99eab)" d="M18 15.438v0z"></path>
<path fill="#e1536d" style="fill: var(--color2, #e1536d)" d="M14.063 15.5v0zM14.75 15.5v0zM17.188 15.5v0z"></path>
<path fill="#e99eab" style="fill: var(--color5, #e99eab)" d="M17.875 15.5v0z"></path>
<path fill="#e1536d" style="fill: var(--color2, #e1536d)" d="M14.188 15.563v0z"></path>
<path fill="#e99eab" style="fill: var(--color5, #e99eab)" d="M17.75 15.563v0z"></path>
<path fill="#e1536d" style="fill: var(--color2, #e1536d)" d="M14.313 15.625v0zM14.813 15.625v0zM17.125 15.625v0z"></path>
<path fill="#e99eab" style="fill: var(--color5, #e99eab)" d="M17.625 15.625v0z"></path>
<path fill="#e1536d" style="fill: var(--color2, #e1536d)" d="M14.438 15.688v0z"></path>
<path fill="#e99eab" style="fill: var(--color5, #e99eab)" d="M17.5 15.688v0z"></path>
<path fill="#e1536d" style="fill: var(--color2, #e1536d)" d="M14.563 15.75v0zM14.875 15.75v0zM17.063 15.75v0z"></path>
<path fill="#e99eab" style="fill: var(--color5, #e99eab)" d="M17.375 15.75v0z"></path>
<path fill="#e1536d" style="fill: var(--color2, #e1536d)" d="M14.688 15.813v0z"></path>
<path fill="#e99eab" style="fill: var(--color5, #e99eab)" d="M17.25 15.813v0z"></path>
<path fill="#e1536d" style="fill: var(--color2, #e1536d)" d="M14.813 15.875v0zM14.958 15.917v0zM17.021 15.917v0z"></path>
<path fill="#e99eab" style="fill: var(--color5, #e99eab)" d="M17.125 15.875v0zM12.875 16v0z"></path>
<path fill="#e1536d" style="fill: var(--color2, #e1536d)" d="M19.063 16v0z"></path>
<path fill="#e99eab" style="fill: var(--color5, #e99eab)" d="M12.75 16.063v0z"></path>
<path fill="#e1536d" style="fill: var(--color2, #e1536d)" d="M19.188 16.063v0z"></path>
<path fill="#e99eab" style="fill: var(--color5, #e99eab)" d="M12.625 16.125v0z"></path>
<path fill="#e1536d" style="fill: var(--color2, #e1536d)" d="M19.313 16.125v0z"></path>
<path fill="#e99eab" style="fill: var(--color5, #e99eab)" d="M12.5 16.188v0z"></path>
<path fill="#e1536d" style="fill: var(--color2, #e1536d)" d="M19.438 16.188v0z"></path>
<path fill="#e99eab" style="fill: var(--color5, #e99eab)" d="M12.375 16.25v0z"></path>
<path fill="#e1536d" style="fill: var(--color2, #e1536d)" d="M19.563 16.25v0z"></path>
<path fill="#e99eab" style="fill: var(--color5, #e99eab)" d="M12.25 16.313v0z"></path>
<path fill="#e1536d" style="fill: var(--color2, #e1536d)" d="M19.688 16.313v0z"></path>
<path fill="#e99eab" style="fill: var(--color5, #e99eab)" d="M12.125 16.375v0z"></path>
<path fill="#e1536d" style="fill: var(--color2, #e1536d)" d="M19.813 16.375v0z"></path>
<path fill="#e99eab" style="fill: var(--color5, #e99eab)" d="M12 16.438v0zM19.938 16.438v0zM12.063 16.5v0zM19.875 16.5v0zM12.188 16.563v0zM19.75 16.563v0zM12.313 16.625v0zM19.625 16.625v0zM12.438 16.688v0zM19.5 16.688v0zM12.563 16.75v0zM19.375 16.75v0zM12.688 16.813v0zM19.25 16.813v0zM12.813 16.875v0zM19.125 16.875v0zM12.938 16.938v0zM19 16.938v0zM13.063 17v0zM18.875 17v0zM13.188 17.063v0zM18.75 17.063v0zM13.313 17.125v0zM18.625 17.125v0zM13.438 17.188v0zM18.5 17.188v0zM13.563 17.25v0zM18.375 17.25v0zM13.688 17.313v0zM18.25 17.313v0zM13.813 17.375v0zM18.125 17.375v0zM13.958 17.479v0zM18.021 17.479v0zM13.875 17.625v0zM18.063 17.625v0zM13.813 17.75v0zM18.125 17.75v0zM13.75 17.875v0zM18.188 17.875v0zM13.688 18v0zM18.25 18v0zM13.625 18.125v0zM18.313 18.125v0zM13.563 18.25v0zM18.375 18.25v0zM13.5 18.375v0zM18.438 18.375v0z"></path>
<path fill="#e1536d" style="fill: var(--color2, #e1536d)" d="M13.5 18.438v0.063h2l-2-0.063zM16.5 18.438v0.063h2l-2-0.063zM15.5 19.938v0.063h1l-1-0.063z"></path>
<path fill="#010101" style="fill: var(--color1, #010101)" d="M0 26.688v5.313h32v-5.313h-32z"></path>
</symbol>
<symbol id="icon-facebook" viewBox="0 0 32 32">
<path fill="#fff" style="fill: var(--color6, #fff)" d="M0 0v3.563h0.063c0.146-1.676 1.825-3.354 3.5-3.5l-1.125-0.063h-2.438z"></path>
<path fill="#475993" style="fill: var(--color7, #475993)" d="M15.875 32v-11.438h-2.188c-0.371 0-0.798 0.046-1.119-0.18-0.339-0.238-0.297-0.581-0.345-0.945-0.115-0.876-0.036-1.804-0.036-2.688 0-0.38-0.010-0.816 0.324-1.072 0.297-0.228 0.699-0.178 1.051-0.178h2.313c0-3.042-0.48-6.711 2.313-8.765 1.642-1.208 3.558-1.172 5.5-1.172 0.634 0 1.764-0.224 2.012 0.563 0.131 0.415 0.050 0.943 0.050 1.375 0 0.601 0.205 1.673-0.169 2.181-0.315 0.428-0.93 0.319-1.394 0.319-0.909 0-2.161-0.129-2.863 0.574-0.47 0.47-0.512 1.177-0.512 1.801v3.125h3.375c0.419 0 1.016-0.109 1.372 0.157 0.398 0.297 0.309 0.727 0.263 1.155-0.094 0.875-0.192 1.752-0.305 2.625-0.050 0.385-0.078 0.779-0.456 0.991-0.391 0.22-0.944 0.134-1.374 0.134h-2.875v11.438h5.5c1.67 0 3.232 0.041 4.498-1.251 1.684-1.72 1.19-4.431 1.19-6.624v-16.188c0-2.207 0.504-4.956-1.19-6.687-1.846-1.886-5.103-1.251-7.498-1.251h-13c-2.16 0-4.343-0.093-6.5 0.002-1.903 0.084-3.674 1.857-3.807 3.748-0.142 2.020-0.006 4.099-0.006 6.125v16.625c0 1.196-0.060 2.292 0.542 3.375 1.109 1.997 3.060 2.125 5.083 2.125h10.25z"></path>
<path fill="#fff" style="fill: var(--color6, #fff)" d="M28.438 0v0.063c1.675 0.146 3.354 1.824 3.5 3.5h0.063v-3.563h-3.563zM15.875 15.5h-2.375c-0.342 0-0.758-0.056-1.041 0.178-0.293 0.243-0.271 0.665-0.271 1.009-0 0.881-0.085 1.812 0.018 2.688 0.041 0.348-0.006 0.774 0.306 1.008 0.31 0.231 0.75 0.18 1.113 0.18h2.25v11.438h4.938v-11.438h2.938c0.426 0 0.988 0.089 1.372-0.134 0.358-0.207 0.355-0.629 0.404-0.991 0.122-0.893 0.194-1.794 0.313-2.688 0.049-0.372 0.112-0.83-0.221-1.093-0.343-0.271-0.959-0.157-1.368-0.157h-3.438v-2.938c0-0.675 0.015-1.41 0.512-1.932 1.098-1.154 2.737-0.172 3.988-0.694 0.338-0.141 0.429-0.476 0.438-0.812 0.024-0.9 0.224-2.203-0.049-3.062-0.234-0.736-1.418-0.5-2.012-0.5-1.983 0-3.963-0.050-5.625 1.219-2.692 2.056-2.188 5.737-2.188 8.719zM0 28.438v3.563h3.563v-0.063c-1.242-0.108-2.433-1.067-3.021-2.125-0.244-0.439-0.327-0.933-0.542-1.375zM31.938 28.438c-0.146 1.676-1.825 3.354-3.5 3.5v0.063h3.563v-2.438l-0.063-1.125z"></path>
</symbol>
<symbol id="icon-instagram" viewBox="0 0 32 32">
<path fill="#fff" style="fill: var(--color6, #fff)" d="M0 0v8.438h0.063c0.177-4.127 4.248-8.198 8.375-8.375-0.671-0.282-1.832-0.063-2.563-0.063h-5.875z"></path>
<path fill="#8f20a7" style="fill: var(--color8, #8f20a7)" d="M0 10.375h3.25c0-2.497 0.768-4.769 3-6.161 2.32-1.447 5.387-0.964 8-0.964h5.313c3.069 0 6.111-0.102 8.061 2.75 0.358 0.524 0.636 1.083 0.83 1.688 0.283 0.883 0.297 1.771 0.297 2.688h3.25c0-1.287-0.013-2.511-0.417-3.75-0.303-0.931-0.728-1.826-1.297-2.625-1.393-1.953-3.538-3.399-5.911-3.846-2.67-0.504-5.661-0.154-8.375-0.154s-5.705-0.35-8.375 0.154c-2.373 0.448-4.517 1.893-5.911 3.846-0.57 0.799-0.994 1.694-1.297 2.625-0.404 1.239-0.417 2.463-0.417 3.75z"></path>
<path fill="#fff" style="fill: var(--color6, #fff)" d="M23.563 0v0.063c4.127 0.177 8.198 4.248 8.375 8.375h0.063v-8.438h-8.438zM8.938 3.277c-2.5 0.34-4.668 1.932-5.41 4.411-0.405 1.352-0.277 2.794-0.277 4.188v6.75c0 2.604-0.381 5.401 1.26 7.625 1.855 2.514 4.616 2.5 7.428 2.5h6.438c1.656 0 3.424 0.173 5.063-0.080 2.356-0.364 4.403-2.11 5.053-4.42 0.392-1.395 0.26-2.879 0.26-4.313v-7c0-2.489 0.307-5.064-1.26-7.188-1.84-2.494-4.572-2.5-7.365-2.5h-6.188c-1.626 0-3.389-0.193-5 0.027z"></path>
<path fill="#8f20a7" style="fill: var(--color8, #8f20a7)" d="M24.188 5.782c-2.583 0.175-2.392 4.205 0.188 4.019 2.608-0.188 2.441-4.197-0.188-4.019zM9.938 10.375h12.125c-0.404-0.669-1.212-1.174-1.875-1.562-2.367-1.385-5.421-1.493-7.875-0.266-0.832 0.416-1.882 1.012-2.375 1.828z"></path>
<path fill="#c33165" style="fill: var(--color9, #c33165)" d="M0 10.375v12.688h3.25v-12.688h-3.25zM9.876 10.439c-0.63 0.323-1.093 1.391-1.391 1.998-1.276 2.598-0.981 5.875 0.642 8.25 0.566 0.829 1.464 1.953 2.436 2.322 0.49 0.186 1.23 0.053 1.75 0.053h6.125c0.335 0 0.751 0.066 1.063-0.080 0.816-0.382 1.57-1.213 2.102-1.92 1.711-2.277 2.184-5.326 1.175-8-0.319-0.844-0.814-1.962-1.532-2.543-0.243-0.197-0.577-0.145-0.869-0.145h-8.75c-0.724 0-2.104-0.267-2.749 0.064zM28.75 10.375v12.688h3.25v-12.688h-3.25z"></path>
<path fill="#fff" style="fill: var(--color6, #fff)" d="M15.313 11.027c-0.71 0.102-1.39 0.349-2 0.727-0.551 0.342-1.020 0.777-1.392 1.308-2.456 3.508 0.438 8.531 4.767 7.911 0.71-0.102 1.39-0.349 2-0.727 0.551-0.342 1.020-0.777 1.392-1.308 2.456-3.508-0.438-8.531-4.767-7.911z"></path>
<path fill="#d47545" style="fill: var(--color10, #d47545)" d="M0 23.063c0.004 1.613 0.648 3.281 1.503 4.625 0.267 0.42 0.634 1.059 1.077 1.311 0.418 0.237 1.32 0.064 1.795 0.064h23.438c0.432 0 1.225 0.152 1.607-0.064 0.443-0.251 0.81-0.891 1.077-1.311 0.856-1.344 1.499-3.012 1.503-4.625h-3.313c-0.051 2.46-2.127 4.67-4.375 5.391-1.381 0.443-2.884 0.297-4.313 0.297h-7.063c-1.961 0-4.021 0.23-5.875-0.528-1.966-0.803-3.705-2.983-3.75-5.159h-3.313zM11.688 23.063v0.063c2.853 1.501 5.772 1.501 8.625 0-0.686-0.288-1.878-0.063-2.625-0.063h-6z"></path>
<path fill="#fff" style="fill: var(--color6, #fff)" d="M0 23.563v8.438h8.438v-0.063c-3.032-0.13-6.045-2.418-7.377-5.063-0.331-0.658-0.606-1.348-0.787-2.063-0.101-0.4-0.106-0.878-0.273-1.25zM31.938 23.563c-0.177 4.127-4.248 8.198-8.375 8.375v0.063h8.438v-5.875c0-0.73 0.219-1.891-0.063-2.563z"></path>
<path fill="#de943f" style="fill: var(--color11, #de943f)" d="M2.625 29.063c1.048 1.475 3.219 2.411 4.938 2.771 2.282 0.478 4.863 0.167 7.188 0.167 3.106 0 6.43 0.33 9.5-0.133 1.764-0.266 4.071-1.32 5.125-2.804h-26.75z"></path>
</symbol>
<symbol id="icon-logo" viewBox="0 0 31 32">
<path fill="#fbfbfb" style="fill: var(--color12, #fbfbfb)" d="M11.927 16.612h-0.528c-0.008 0.102-0.042 0.203-0.052 0.306-0.030 0.295-0.009 0.634 0.199 0.865 0.172 0.192 0.416 0.268 0.665 0.292 0.508 0.049 1.032-0.154 1.183-0.683 0.233-0.817-0.441-1.482-0.916-2.052-0.178-0.214-0.414-0.436-0.471-0.72-0.026-0.13-0.028-0.291 0.047-0.406 0.113-0.175 0.404-0.214 0.562-0.075 0.227 0.199 0.199 0.59 0.199 0.864h0.521c0.010-0.121 0.048-0.239 0.060-0.36 0.028-0.294-0.016-0.608-0.222-0.834-0.168-0.185-0.43-0.265-0.672-0.276-0.389-0.018-0.786 0.080-1.001 0.437-0.048 0.079-0.081 0.164-0.105 0.253-0.216 0.779 0.401 1.399 0.863 1.937 0.208 0.242 0.442 0.494 0.5 0.819 0.024 0.136 0.028 0.308-0.050 0.429-0.127 0.198-0.452 0.224-0.617 0.059-0.208-0.208-0.163-0.588-0.163-0.855z"></path>
<path fill="#fbfbfb" style="fill: var(--color12, #fbfbfb)" d="M17.853 16.612h-0.528c-0.008 0.102-0.042 0.203-0.052 0.306-0.030 0.295-0.009 0.634 0.199 0.865 0.172 0.192 0.416 0.268 0.665 0.292 0.508 0.049 1.032-0.154 1.183-0.683 0.233-0.817-0.441-1.482-0.916-2.052-0.178-0.214-0.414-0.436-0.471-0.72-0.026-0.13-0.028-0.291 0.047-0.406 0.113-0.175 0.404-0.214 0.562-0.075 0.227 0.199 0.199 0.59 0.199 0.864h0.521c0.010-0.121 0.048-0.239 0.060-0.36 0.028-0.294-0.016-0.608-0.222-0.834-0.168-0.185-0.43-0.265-0.672-0.276-0.39-0.018-0.786 0.080-1.001 0.437-0.048 0.079-0.081 0.164-0.105 0.253-0.216 0.778 0.401 1.399 0.863 1.937 0.208 0.242 0.442 0.494 0.5 0.819 0.024 0.136 0.028 0.308-0.050 0.429-0.127 0.198-0.452 0.224-0.617 0.059-0.208-0.208-0.163-0.588-0.163-0.855z"></path>
<path fill="#fbfbfb" style="fill: var(--color12, #fbfbfb)" d="M5.152 13.566v4.478h0.674v-1.922c0-0.035-0.015-0.114 0.012-0.141 0.035-0.035 0.163-0.012 0.21-0.012h0.589v-0.528h-0.811v-1.34h1.034v-0.536h-1.707z"></path>
<path fill="#fbfbfb" style="fill: var(--color12, #fbfbfb)" d="M8.766 13.566v4.478h0.666v-1.677h0.26l0.155 0.452 0.285 0.804 0.105 0.299 0.049 0.115 0.194 0.008h0.513l-0.182-0.467-0.378-0.942-0.152-0.39c0.239-0.069 0.403-0.355 0.477-0.574 0.080-0.238 0.097-0.486 0.097-0.735 0-0.376-0.037-0.771-0.315-1.056-0.244-0.25-0.605-0.292-0.933-0.307-0.28-0.012-0.561-0.007-0.842-0.007z"></path>
<path fill="#fbfbfb" style="fill: var(--color12, #fbfbfb)" d="M22.209 13.566v4.478h1.684v-0.536h-1.011v-1.424c0-0.028-0.010-0.081 0.012-0.103 0.033-0.033 0.15-0.012 0.194-0.012h0.551v-0.528h-0.758v-1.34h0.98v-0.536h-1.654z"></path>
<path fill="#7483a5" style="fill: var(--color13, #7483a5)" d="M10.274 13.696v0zM11.751 13.696v0zM13.037 13.696v0zM17.677 13.696v0zM18.963 13.696v0zM25.83 13.696v0zM10.289 13.703v0z"></path>
<path fill="#475b89" style="fill: var(--color14, #475b89)" d="M10.35 13.734v0zM11.698 13.734v0zM13.091 13.734v0zM17.623 13.734v0zM19.016 13.734v0z"></path>
<path fill="#475b89" style="fill: var(--color14, #475b89)" d="M10.434 13.788v0zM11.636 13.788v0zM13.152 13.788v0zM17.562 13.788v0zM19.078 13.788v0zM25.99 13.788v0z"></path>
<path fill="#475b89" style="fill: var(--color14, #475b89)" d="M10.473 13.818v0zM11.606 13.818v0zM13.183 13.818v0zM17.531 13.818v0zM19.108 13.818v0z"></path>
<path fill="#b0b9cc" style="fill: var(--color15, #b0b9cc)" d="M26.036 13.826v0zM10.488 13.834v0zM13.19 13.834v0zM19.116 13.834v0zM26.044 13.834v0zM10.496 13.841v0zM11.59 13.841v0zM13.198 13.841v0zM17.516 13.841v0zM19.123 13.841v0z"></path>
<path fill="#b0b9cc" style="fill: var(--color15, #b0b9cc)" d="M11.514 13.941v0zM13.267 13.941v0zM17.439 13.941v0zM19.192 13.941v0zM26.151 13.941v0z"></path>
<path fill="#b0b9cc" style="fill: var(--color15, #b0b9cc)" d="M10.611 13.964v0zM11.499 13.964v0zM13.282 13.964v0zM17.424 13.964v0zM19.208 13.964v0z"></path>
<path fill="#b0b9cc" style="fill: var(--color15, #b0b9cc)" d="M11.491 13.979v0zM13.29 13.979v0zM17.416 13.979v0zM19.215 13.979v0zM26.182 13.979v0z"></path>
<path fill="#b0b9cc" style="fill: var(--color15, #b0b9cc)" d="M13.305 14.010v0zM19.231 14.010v0zM26.205 14.010v0zM10.649 14.017v0zM11.468 14.017v0z"></path>
<path fill="#b0b9cc" style="fill: var(--color15, #b0b9cc)" d="M12.563 14.101v0zM13.344 14.101v0zM15.104 14.101v3.943h0.008v-3.598c0-0.097 0.030-0.255-0.008-0.345zM17.355 14.101v0zM18.090 14.101v0z"></path>
<path fill="#b0b9cc" style="fill: var(--color15, #b0b9cc)" d="M18.488 14.101v0zM19.269 14.101v0zM21.030 14.101v3.943h0.008v-3.598c0-0.097 0.030-0.255-0.008-0.345zM22.882 14.101v1.34h0.008v-1.21l-0.008-0.13z"></path>
<path fill="#7483a5" style="fill: var(--color13, #7483a5)" d="M25.531 14.163v0zM26.297 14.163v0zM9.983 14.17v0zM10.733 14.17v0zM12.080 14.17v0z"></path>
<path fill="#b0b9cc" style="fill: var(--color15, #b0b9cc)" d="M18.588 14.186v0zM19.292 14.186v0zM25.562 14.186v0zM26.304 14.186v0zM10.013 14.193v0zM10.741 14.193v0zM11.399 14.193v0z"></path>
<path fill="#b0b9cc" style="fill: var(--color15, #b0b9cc)" d="M10.067 14.255v0zM12.027 14.255v0zM12.708 14.255v0zM13.384 14.26v0zM17.952 14.255v0zM18.634 14.255v0zM19.31 14.26v0z"></path>
<path fill="#475b89" style="fill: var(--color14, #475b89)" d="M10.771 14.262v0zM11.376 14.262v0zM12.027 14.262v0zM12.708 14.262v0zM17.301 14.262v0zM17.952 14.262v0zM18.634 14.262v0z"></path>
<path fill="#b0b9cc" style="fill: var(--color15, #b0b9cc)" d="M12.004 14.323v0zM12.739 14.323v0zM17.929 14.323v0zM18.664 14.323v0zM25.669 14.323v0zM26.358 14.323v0z"></path>
<path fill="#b0b9cc" style="fill: var(--color15, #b0b9cc)" d="M11.361 14.362v0.023h0.008l-0.008-0.023zM13.397 14.362v0.023h0.008l-0.008-0.023zM17.286 14.362v0.023h0.008l-0.008-0.023zM19.323 14.362v0.023h0.008l-0.008-0.023z"></path>
<path fill="#475b89" style="fill: var(--color14, #475b89)" d="M10.128 14.385v0zM11.996 14.385v0.023h0.008l-0.008-0.023zM12.754 14.385v0zM17.922 14.385v0.023h0.008l-0.008-0.023zM18.679 14.385v0z"></path>
<path fill="#b0b9cc" style="fill: var(--color15, #b0b9cc)" d="M11.353 14.423v0.046h0.008l-0.008-0.046zM12.772 14.428v0zM17.278 14.423v0.046h0.008l-0.008-0.046zM18.697 14.428v0zM25.707 14.423v0zM26.389 14.423v0z"></path>
<path fill="#475b89" style="fill: var(--color14, #475b89)" d="M11.345 14.523v0.054h0.008l-0.008-0.054zM12.785 14.523v0zM17.271 14.523v0.054h0.008l-0.008-0.054zM18.71 14.523v0z"></path>
<path fill="#b0b9cc" style="fill: var(--color15, #b0b9cc)" d="M10.84 14.568v0.023h0.008l-0.008-0.023zM26.422 14.574v0zM25.738 14.576v0.023h0.008l-0.008-0.023z"></path>
<path fill="#475b89" style="fill: var(--color14, #475b89)" d="M10.169 14.589v0zM12.795 14.589v0zM18.72 14.589v0zM12.006 14.597v0zM17.932 14.597v0z"></path>
<path fill="#b0b9cc" style="fill: var(--color15, #b0b9cc)" d="M12.004 14.622v0zM17.929 14.622v0zM26.429 14.627v0zM10.174 14.63v0.061h0.008l-0.008-0.061z"></path>
<path fill="#7483a5" style="fill: var(--color13, #7483a5)" d="M12.011 14.645v0zM12.8 14.645v0.031h0.008l-0.008-0.031zM17.937 14.645v0zM18.725 14.645v0.031h0.008l-0.008-0.031z"></path>
<path fill="#b0b9cc" style="fill: var(--color15, #b0b9cc)" d="M10.848 14.653v0.023h0.008l-0.008-0.023zM12.011 14.653v0zM17.937 14.653v0zM25.745 14.653v0.038h0.008l-0.008-0.038z"></path>
<path fill="#b0b9cc" style="fill: var(--color15, #b0b9cc)" d="M12.027 14.706v0zM17.952 14.706v0zM11.363 14.719v0zM13.384 14.719v0zM17.289 14.719v0zM19.31 14.719v0z"></path>
<path fill="#b0b9cc" style="fill: var(--color15, #b0b9cc)" d="M11.371 14.773v0zM12.050 14.767v0zM13.374 14.767v0zM17.296 14.773v0zM17.975 14.767v0zM19.3 14.767v0z"></path>
<path fill="#b0b9cc" style="fill: var(--color15, #b0b9cc)" d="M17.983 14.783v0zM18.733 14.783v0.23h0.528v-0.008h-0.521l-0.008-0.222zM26.442 14.783v0.054h0.008l-0.008-0.054z"></path>
<path fill="#b0b9cc" style="fill: var(--color15, #b0b9cc)" d="M11.386 14.849v0zM12.088 14.844v0zM13.361 14.849v0zM17.312 14.849v0zM18.013 14.844v0zM19.287 14.849v0z"></path>
<path fill="#7483a5" style="fill: var(--color13, #7483a5)" d="M12.096 14.852v0zM18.021 14.852v0zM11.384 14.859v0zM13.359 14.859v0zM17.309 14.859v0zM19.284 14.859v0z"></path>
<path fill="#b0b9cc" style="fill: var(--color15, #b0b9cc)" d="M12.142 14.928v0zM13.344 14.928v0zM18.067 14.928v0zM19.269 14.928v0zM11.407 14.936v0z"></path>
<path fill="#475b89" style="fill: var(--color14, #475b89)" d="M18.189 15.081v0zM10.855 15.089v0.023h0.008l-0.008-0.023zM11.46 15.089v0zM12.272 15.089v0zM17.386 15.089v0zM18.197 15.089v0z"></path>
<path fill="#7483a5" style="fill: var(--color13, #7483a5)" d="M12.325 15.158v0zM18.251 15.158v0zM11.499 15.166v0zM12.333 15.166v0zM17.424 15.166v0zM18.258 15.166v0z"></path>
<path fill="#475b89" style="fill: var(--color14, #475b89)" d="M18.304 15.219v0zM11.529 15.227v0zM17.455 15.227v0zM10.166 15.234v0.031h0.008l-0.008-0.031z"></path>
<path fill="#7483a5" style="fill: var(--color13, #7483a5)" d="M12.433 15.288v0zM18.358 15.288v0zM11.567 15.296v0zM12.44 15.296v0zM17.493 15.296v0zM18.366 15.296v0z"></path>
<path fill="#b0b9cc" style="fill: var(--color15, #b0b9cc)" d="M11.613 15.365v0zM12.494 15.365v0zM17.539 15.365v0zM18.419 15.365v0zM10.827 15.377v0zM12.501 15.372v0zM18.427 15.372v0z"></path>
<path fill="#7483a5" style="fill: var(--color13, #7483a5)" d="M25.745 15.372v0.031h0.008l-0.008-0.031zM11.621 15.38v0zM12.509 15.38v0zM17.546 15.38v0zM18.434 15.38v0z"></path>
<path fill="#475b89" style="fill: var(--color14, #475b89)" d="M10.827 15.4v0zM11.629 15.395v0zM12.524 15.395v0zM17.554 15.395v0zM18.45 15.395v0z"></path>
<path fill="#b0b9cc" style="fill: var(--color15, #b0b9cc)" d="M25.745 15.403v0.046h0.008l-0.008-0.046zM11.644 15.411v0zM12.532 15.411v0zM17.569 15.411v0zM18.457 15.411v0z"></path>
<path fill="#7483a5" style="fill: var(--color13, #7483a5)" d="M11.652 15.426v0zM12.547 15.426v0zM17.577 15.426v0zM18.473 15.426v0zM10.146 15.439v0zM10.817 15.434v0z"></path>
<path fill="#b0b9cc" style="fill: var(--color15, #b0b9cc)" d="M10.812 15.462v0zM11.675 15.456v0zM12.57 15.456v0zM17.6 15.456v0zM18.496 15.456v0z"></path>
<path fill="#b0b9cc" style="fill: var(--color15, #b0b9cc)" d="M11.682 15.464v0zM12.578 15.464v0zM17.608 15.464v0zM18.503 15.464v0zM26.427 15.464v0.023h0.008l-0.008-0.023z"></path>
<path fill="#b0b9cc" style="fill: var(--color15, #b0b9cc)" d="M10.804 15.5v0zM11.705 15.495v0zM12.601 15.495v0zM17.631 15.495v0zM18.526 15.495v0z"></path>
<path fill="#7483a5" style="fill: var(--color13, #7483a5)" d="M10.802 15.51v0zM11.713 15.51v0zM12.616 15.51v0zM17.638 15.51v0zM18.542 15.51v0z"></path>
<path fill="#b0b9cc" style="fill: var(--color15, #b0b9cc)" d="M18.603 15.587v0zM25.733 15.592v0zM10.098 15.594v0zM11.782 15.594v0zM12.685 15.594v0zM17.707 15.594v0zM18.611 15.594v0z"></path>
<path fill="#b0b9cc" style="fill: var(--color15, #b0b9cc)" d="M18.641 15.633v0zM25.725 15.638v0zM10.075 15.64v0zM10.764 15.64v0zM11.82 15.64v0zM12.723 15.64v0zM17.745 15.64v0zM18.649 15.64v0z"></path>
<path fill="#475b89" style="fill: var(--color14, #475b89)" d="M11.835 15.663v0zM12.746 15.663v0zM17.761 15.663v0zM18.672 15.663v0zM25.715 15.663v0z"></path>
<path fill="#7483a5" style="fill: var(--color13, #7483a5)" d="M10.733 15.732v0zM11.897 15.732v0zM12.8 15.732v0zM17.822 15.732v0zM18.725 15.732v0z"></path>
<path fill="#7483a5" style="fill: var(--color13, #7483a5)" d="M9.86 15.824v0zM11.973 15.824v0zM12.877 15.824v0zM17.899 15.824v0zM18.802 15.824v0z"></path>
<path fill="#7483a5" style="fill: var(--color13, #7483a5)" d="M10.641 15.916v0zM12.050 15.916v0zM12.953 15.916v0zM17.975 15.916v0zM18.878 15.916v0z"></path>
<path fill="#b0b9cc" style="fill: var(--color15, #b0b9cc)" d="M12.073 15.939v0zM12.968 15.939v0zM17.998 15.939v0zM18.894 15.939v0zM26.32 15.939v0zM10.618 15.946v0zM12.976 15.946v0zM18.901 15.946v0z"></path>
<path fill="#b0b9cc" style="fill: var(--color15, #b0b9cc)" d="M5.826 15.977v2.067h0.008v-1.876l-0.008-0.191zM12.103 15.977v0zM12.999 15.977v0zM18.029 15.977v0zM18.924 15.977v0zM22.882 15.977v1.531h0.008v-1.386l-0.008-0.145z"></path>
<path fill="#475b89" style="fill: var(--color14, #475b89)" d="M12.211 16.107v0zM13.099 16.107v0zM18.136 16.107v0zM19.024 16.107v0zM25.439 16.107v0z"></path>
<path fill="#475b89" style="fill: var(--color14, #475b89)" d="M12.249 16.153v0zM13.129 16.153v0zM18.174 16.153v0zM19.055 16.153v0zM25.309 16.153v0z"></path>
<path fill="#b0b9cc" style="fill: var(--color15, #b0b9cc)" d="M12.279 16.184v0zM13.145 16.184v0zM18.205 16.184v0zM19.070 16.184v0zM10.373 16.191v0z"></path>
<path fill="#7483a5" style="fill: var(--color13, #7483a5)" d="M10.343 16.214v0zM12.302 16.214v0zM13.167 16.214v0zM18.228 16.214v0zM19.093 16.214v0zM26.182 16.214v0zM10.327 16.222v0z"></path>
<path fill="#b0b9cc" style="fill: var(--color15, #b0b9cc)" d="M12.31 16.222v0zM18.235 16.222v0zM26.174 16.222v0zM10.312 16.23v0zM12.318 16.23v0zM13.175 16.23v0zM18.243 16.23v0zM19.1 16.23v0z"></path>
<path fill="#7483a5" style="fill: var(--color13, #7483a5)" d="M12.333 16.253v0zM13.19 16.253v0zM18.258 16.253v0zM19.116 16.253v0zM10.281 16.26v0zM12.341 16.26v0zM18.266 16.26v0z"></path>
<path fill="#b0b9cc" style="fill: var(--color15, #b0b9cc)" d="M26.136 16.276v0zM10.289 16.283v0zM13.206 16.283v0zM19.131 16.283v0zM26.128 16.283v0z"></path>
<path fill="#b0b9cc" style="fill: var(--color15, #b0b9cc)" d="M26.105 16.314v0zM10.304 16.322v0zM12.394 16.322v0zM13.229 16.322v0zM18.32 16.322v0zM19.154 16.322v0zM26.098 16.322v0z"></path>
<path fill="#475b89" style="fill: var(--color14, #475b89)" d="M12.478 16.429v0zM13.29 16.429v0zM18.404 16.429v0zM19.215 16.429v0zM25.99 16.429v0z"></path>
<path fill="#b0b9cc" style="fill: var(--color15, #b0b9cc)" d="M9.715 16.452v0zM10.358 16.452v0zM13.298 16.452v0zM19.223 16.452v0zM25.952 16.452v0z"></path>
<path fill="#7483a5" style="fill: var(--color13, #7483a5)" d="M25.945 16.459v0zM10.366 16.467v0zM12.509 16.467v0zM13.305 16.467v0zM18.434 16.467v0zM19.231 16.467v0z"></path>
<path fill="#b0b9cc" style="fill: var(--color15, #b0b9cc)" d="M9.723 16.475v0zM10.366 16.475v0zM12.517 16.475v0zM18.442 16.475v0zM25.922 16.475v0z"></path>
<path fill="#7483a5" style="fill: var(--color13, #7483a5)" d="M25.837 16.528v0zM13.336 16.536v0zM19.261 16.536v0zM25.822 16.536v0zM9.745 16.544v0zM10.396 16.544v0z"></path>
<path fill="#b0b9cc" style="fill: var(--color15, #b0b9cc)" d="M12.601 16.597v0zM13.359 16.597v0zM18.526 16.597v0zM19.284 16.597v0zM25.677 16.597v0z"></path>
<path fill="#b0b9cc" style="fill: var(--color15, #b0b9cc)" d="M11.384 16.674v0zM12.647 16.674v0zM13.382 16.674v0zM17.309 16.674v0zM18.572 16.674v0zM19.307 16.674v0zM25.156 16.674v0.008h0.077l-0.077-0.008z"></path>
<path fill="#b0b9cc" style="fill: var(--color15, #b0b9cc)" d="M19.315 16.697v0zM10.457 16.704v0zM11.379 16.709v0zM12.662 16.704v0zM17.304 16.709v0zM18.588 16.704v0zM9.807 16.712v0z"></path>
<path fill="#7483a5" style="fill: var(--color13, #7483a5)" d="M10.488 16.773v0zM11.363 16.778v0zM12.693 16.773v0zM17.289 16.778v0zM18.618 16.773v0zM9.83 16.781v0z"></path>
<path fill="#b0b9cc" style="fill: var(--color15, #b0b9cc)" d="M12.754 16.98v0.023h0.008l-0.008-0.023zM18.679 16.98v0.023h0.008l-0.008-0.023zM10.572 16.988v0zM13.435 16.988v0.107h0.008l-0.008-0.107zM19.361 16.988v0.107h0.008l-0.008-0.107zM9.906 16.995v0z"></path>
<path fill="#475b89" style="fill: var(--color14, #475b89)" d="M10.588 17.018v0zM11.937 17.023v0zM12.757 17.023v0zM17.863 17.023v0zM18.682 17.023v0zM9.914 17.026v0z"></path>
<path fill="#b0b9cc" style="fill: var(--color15, #b0b9cc)" d="M10.595 17.049v0zM11.935 17.049v0.031h0.008l-0.008-0.031zM12.762 17.049v0.054h0.008l-0.008-0.054zM17.86 17.049v0.031h0.008l-0.008-0.031zM18.687 17.049v0.054h0.008l-0.008-0.054zM9.929 17.056v0z"></path>
<path fill="#7483a5" style="fill: var(--color13, #7483a5)" d="M11.945 17.108v0zM12.762 17.102v0.046h0.008l-0.008-0.046zM17.87 17.108v0zM18.687 17.102v0.046h0.008l-0.008-0.046z"></path>
<path fill="#b0b9cc" style="fill: var(--color15, #b0b9cc)" d="M11.33 17.118v0.038h0.008l-0.008-0.038zM11.945 17.123v0zM17.256 17.118v0.038h0.008l-0.008-0.038zM17.87 17.123v0z"></path>
<path fill="#475b89" style="fill: var(--color14, #475b89)" d="M11.95 17.148v0zM12.764 17.153v0zM17.876 17.148v0zM18.69 17.153v0zM9.96 17.156v0z"></path>
<path fill="#7483a5" style="fill: var(--color13, #7483a5)" d="M10.641 17.156v0zM11.33 17.156v0.046h0.008l-0.008-0.046zM11.95 17.156v0zM17.256 17.156v0.046h0.008l-0.008-0.046zM17.876 17.156v0z"></path>
<path fill="#475b89" style="fill: var(--color14, #475b89)" d="M11.996 17.317v0zM13.412 17.317v0zM17.922 17.317v0zM19.338 17.317v0zM10.021 17.324v0zM10.71 17.324v0z"></path>
<path fill="#b0b9cc" style="fill: var(--color15, #b0b9cc)" d="M12.080 17.462v0zM12.662 17.462v0zM13.367 17.462v0zM18.006 17.462v0zM18.588 17.462v0zM19.292 17.462v0z"></path>
<path fill="#7483a5" style="fill: var(--color13, #7483a5)" d="M11.391 17.523v0zM12.165 17.523v0zM12.578 17.523v0zM13.344 17.523v0zM17.317 17.523v0zM18.090 17.523v0zM18.503 17.523v0zM19.269 17.523v0z"></path>
<path fill="#b0b9cc" style="fill: var(--color15, #b0b9cc)" d="M11.43 17.608v0zM13.298 17.608v0zM17.355 17.608v0zM19.223 17.608v0zM10.128 17.615v0z"></path>
<path fill="#7483a5" style="fill: var(--color13, #7483a5)" d="M19.108 17.768v0zM10.182 17.776v0zM11.537 17.776v0zM13.175 17.776v0zM17.462 17.776v0zM19.1 17.776v0zM10.894 17.784v0z"></path>
<path fill="#b0b9cc" style="fill: var(--color15, #b0b9cc)" d="M11.544 17.784v0zM13.167 17.784v0zM17.47 17.784v0zM19.093 17.784v0zM10.189 17.791v0zM10.894 17.791v0zM11.552 17.791v0zM13.16 17.791v0zM17.477 17.791v0zM19.085 17.791v0z"></path>
<path fill="#b0b9cc" style="fill: var(--color15, #b0b9cc)" d="M11.56 17.799v0zM13.152 17.799v0zM17.485 17.799v0zM19.078 17.799v0zM10.901 17.807v0zM11.567 17.807v0zM13.145 17.807v0zM17.493 17.807v0zM19.070 17.807v0zM10.197 17.814v0zM11.575 17.814v0z"></path>
<path fill="#475b89" style="fill: var(--color14, #475b89)" d="M11.682 17.906v0zM13.022 17.906v0zM17.608 17.906v0zM18.947 17.906v0zM10.947 17.914v0z"></path>
<path fill="#fbfbfb" style="fill: var(--color12, #fbfbfb)" d="M22.699 19.016c0.122-0.032 0.232-0.102 0.352-0.134 0.060-0.016 0.129-0.012 0.191-0.022 0.241-0.037 0.49-0.059 0.735-0.035 0.18 0.018 0.339 0.087 0.513 0.128 0.075 0.018 0.163 0.056 0.237 0.024-0.029-0.059-0.1-0.066-0.153-0.095-0.039-0.022-0.063-0.061-0.1-0.085-0.066-0.043-0.16-0.056-0.237-0.067-0.344-0.050-0.698-0.109-1.041 0.001-0.044 0.014-0.074 0.052-0.115 0.071-0.044 0.021-0.091 0.009-0.138 0.018-0.087 0.016-0.22 0.108-0.245 0.195z"></path>
<path fill="#fbfbfb" style="fill: var(--color12, #fbfbfb)" d="M24.888 19.070c0.021 0.080 0.094 0.071 0.151 0.107 0.021 0.014 0.022 0.041 0.037 0.059 0.019 0.023 0.050 0.028 0.071 0.049 0.035 0.035 0.049 0.086 0.087 0.12 0.047 0.043 0.113 0.041 0.122 0.116 0.070 0.019 0.073 0.105 0.108 0.161 0.068 0.11 0.15 0.219 0.228 0.322 0.030 0.040 0.039 0.090 0.085 0.115-0.019-0.054 0.023-0.093 0.004-0.145-0.092-0.25-0.268-0.433-0.446-0.621-0.027-0.029-0.036-0.069-0.064-0.097-0.082-0.083-0.265-0.185-0.381-0.185z"></path>
<path fill="#fbfbfb" style="fill: var(--color12, #fbfbfb)" d="M17.026 19.162c0.089 0.273 0.177 0.547 0.268 0.819 0.040 0.12 0.065 0.262 0.123 0.374 0.019 0.037 0.198 0.041 0.231 0.016 0.039-0.029 0.054-0.138 0.069-0.183 0.054-0.162 0.097-0.334 0.166-0.49 0.069 0.156 0.112 0.328 0.166 0.49 0.015 0.045 0.030 0.154 0.069 0.183 0.030 0.022 0.207 0.021 0.228-0.010 0.077-0.115 0.109-0.303 0.152-0.434 0.059-0.177 0.122-0.352 0.181-0.528 0.026-0.077 0.065-0.156 0.077-0.237h-0.245l-0.192 0.635-0.084 0.291c-0.041-0.047-0.052-0.132-0.071-0.191-0.048-0.145-0.095-0.291-0.143-0.436-0.017-0.050-0.031-0.174-0.074-0.206-0.031-0.023-0.111-0.008-0.148-0.008l-0.161 0.528-0.1 0.306c-0.071-0.223-0.127-0.45-0.196-0.674-0.017-0.055-0.030-0.202-0.077-0.237-0.044-0.033-0.185-0.008-0.24-0.008z"></path>
<path fill="#fbfbfb" style="fill: var(--color12, #fbfbfb)" d="M18.978 19.162v1.217h0.781v-0.191h-0.567v-0.322h0.528v-0.191h-0.528v-0.322h0.567v-0.191h-0.781z"></path>
<path fill="#fbfbfb" style="fill: var(--color12, #fbfbfb)" d="M22.193 19.284c-0.029 0.047-0.103 0.074-0.145 0.11-0.091 0.076-0.193 0.178-0.262 0.273-0.053 0.073-0.051 0.141-0.073 0.222-0.016 0.057-0.059 0.105-0.072 0.161-0.008 0.034 0.023 0.058 0.021 0.092-0.003 0.051-0.028 0.102-0.035 0.153h-0.084c-0.002 0.069-0.046 0.151-0.062 0.222-0.019 0.085-0.014 0.167-0.036 0.253-0.035 0.135-0.014 0.342 0.024 0.475 0.023 0.079 0.123 0.126 0.168 0.030 0.047-0.1-0.049-0.279-0.063-0.382-0.005-0.037 0.019-0.067 0.010-0.107-0.008-0.036-0.047-0.060-0.042-0.1 0.007-0.061 0.060-0.137 0.078-0.199 0.086-0.29 0.229-0.563 0.398-0.819 0.061-0.092 0.137-0.163 0.179-0.268 0.016-0.041 0.059-0.096-0.002-0.115z"></path>
<path fill="#b0b9cc" style="fill: var(--color15, #b0b9cc)" d="M21.872 19.583v0zM22.071 19.583v0zM25.416 19.583v0zM25.554 19.583v0zM17.164 19.59v0zM17.393 19.59v0z"></path>
<path fill="#b0b9cc" style="fill: var(--color15, #b0b9cc)" d="M18.075 19.629v0zM18.366 19.629v0zM18.595 19.629v0zM20.7 19.629v0zM20.938 19.629v0z"></path>
<path fill="#7483a5" style="fill: var(--color13, #7483a5)" d="M23.648 19.82v0zM23.816 19.82v0zM25.562 19.82v0zM25.707 19.82v0zM17.24 19.828v0z"></path>
<path fill="#b0b9cc" style="fill: var(--color15, #b0b9cc)" d="M23.541 20.004v0zM23.633 20.004v0zM25.692 20.004v0zM17.301 20.011v0zM17.516 20.011v0zM18.197 20.011v0z"></path>
<path fill="#fbfbfb" style="fill: var(--color12, #fbfbfb)" d="M23.969 21.405l0.467 0.467c0.067 0.067 0.139 0.168 0.222 0.215 0.073 0.042 0.186-0.115 0.229-0.162 0.020-0.021 0.041-0.046 0.035-0.077-0.015-0.073-0.136-0.155-0.188-0.207-0.161-0.161-0.367-0.319-0.498-0.505 0.146-0.063 0.283-0.161 0.421-0.239 0.042-0.024 0.122-0.053 0.113-0.113-0.006-0.039-0.043-0.048-0.075-0.059l-1.523-0.508c-0.041-0.014-0.103-0.048-0.14-0.010s0.002 0.107 0.015 0.148l0.436 1.309c0.020 0.061 0.056 0.275 0.133 0.281 0.057 0.004 0.088-0.080 0.112-0.12 0.080-0.138 0.173-0.276 0.241-0.421z"></path>
<path fill="#7483a5" style="fill: var(--color13, #7483a5)" d="M17.684 20.279v0zM18.075 20.279v0zM18.373 20.279v0zM20.892 20.279v0zM21.619 20.279v0zM21.673 20.279v0z"></path>
<path fill="#b0b9cc" style="fill: var(--color15, #b0b9cc)" d="M17.393 20.295v0zM17.677 20.295v0zM18.082 20.295v0zM18.366 20.295v0zM20.869 20.295v0z"></path>
<path fill="#b0b9cc" style="fill: var(--color15, #b0b9cc)" d="M17.401 20.318v0zM17.669 20.318v0zM18.090 20.318v0zM18.358 20.318v0zM20.831 20.318v0z"></path>
<path fill="#b0b9cc" style="fill: var(--color15, #b0b9cc)" d="M17.409 20.341v0zM17.661 20.341v0zM18.098 20.341v0zM18.35 20.341v0z"></path>
<path fill="#7483a5" style="fill: var(--color13, #7483a5)" d="M17.409 20.348v0zM17.661 20.348v0zM18.098 20.348v0zM18.35 20.348v0z"></path>
<path fill="#1d356d" style="fill: var(--color16, #1d356d)" d="M23.173 20.348c0.102 0.312 0.208 0.623 0.311 0.934 0.047 0.14 0.077 0.327 0.156 0.452 0.075-0.123 0.145-0.25 0.218-0.375 0.021-0.036 0.053-0.114 0.104-0.11 0.056 0.005 0.123 0.103 0.161 0.14l0.398 0.398c0.046 0.046 0.141 0.19 0.207 0.13 0.090-0.082-0.054-0.169-0.115-0.229l-0.39-0.39c-0.039-0.039-0.134-0.104-0.142-0.161-0.008-0.054 0.067-0.085 0.104-0.107 0.123-0.072 0.246-0.154 0.375-0.214v-0.008l-0.926-0.309-0.459-0.151z"></path>
<path fill="#b0b9cc" style="fill: var(--color15, #b0b9cc)" d="M17.416 20.364v0zM17.654 20.364v0zM18.105 20.364v0zM18.343 20.364v0zM20.693 20.364v0z"></path>
<path fill="#7483a5" style="fill: var(--color13, #7483a5)" d="M17.416 20.371v0zM17.654 20.371v0zM18.105 20.371v0zM18.343 20.371v0z"></path>
<path fill="#fbfbfb" style="fill: var(--color12, #fbfbfb)" d="M25.937 20.639c-0.048 0.050-0.032 0.078-0.047 0.138-0.008 0.031-0.033 0.059-0.026 0.092 0.011 0.051 0.050 0.080 0.050 0.138 0 0.172-0.050 0.344-0.12 0.49-0.025 0.052-0.018 0.141 0.036 0.168 0.010-0.041-0.012-0.084-0-0.122 0.015-0.047 0.071-0.063 0.093-0.107 0.079-0.163 0.075-0.376-0.001-0.536 0.119-0.013 0.080-0.205 0.015-0.26z"></path>
<path fill="#475b89" style="fill: var(--color14, #475b89)" d="M24.602 20.688v0zM25.883 20.685v0zM25.975 20.685v0zM22.796 20.695v0z"></path>
<path fill="#7483a5" style="fill: var(--color13, #7483a5)" d="M25.983 20.708v0zM21.543 20.716v0zM22.752 20.716v0zM22.836 20.716v0z"></path>
<path fill="#b0b9cc" style="fill: var(--color15, #b0b9cc)" d="M24.375 20.739v0zM24.743 20.739v0zM25.99 20.739v0.023h0.008l-0.008-0.023z"></path>
<path fill="#475b89" style="fill: var(--color14, #475b89)" d="M24.766 20.754v0zM25.998 20.754v0.061h0.008l-0.008-0.061zM21.435 20.762v0zM21.581 20.762v0z"></path>
<path fill="#b0b9cc" style="fill: var(--color15, #b0b9cc)" d="M22.806 20.831v0zM23.204 20.831v0zM23.326 20.831v0zM24.528 20.831v0zM24.758 20.831v0zM25.86 20.831v0z"></path>
<path fill="#b0b9cc" style="fill: var(--color15, #b0b9cc)" d="M22.783 20.854v0zM23.211 20.854v0zM23.334 20.854v0zM24.49 20.854v0zM24.72 20.854v0z"></path>
<path fill="#b0b9cc" style="fill: var(--color15, #b0b9cc)" d="M22.691 20.945v0zM23.242 20.945v0zM23.365 20.945v0zM24.329 20.945v0z"></path>
<path fill="#475b89" style="fill: var(--color14, #475b89)" d="M24.574 20.945v0zM25.899 20.945v0zM25.945 20.945v0zM21.428 20.953v0.023h0.008l-0.008-0.023zM21.591 20.958v0z"></path>
<path fill="#b0b9cc" style="fill: var(--color15, #b0b9cc)" d="M22.561 20.968v0zM22.668 20.968v0zM23.25 20.968v0zM23.372 20.968v0zM24.291 20.968v0zM24.521 20.968v0z"></path>
<path fill="#7483a5" style="fill: var(--color13, #7483a5)" d="M24.49 20.991v0zM25.96 20.991v0zM21.596 20.999v0zM22.591 20.999v0z"></path>
<path fill="#7483a5" style="fill: var(--color13, #7483a5)" d="M24.398 21.045v0zM25.978 21.050v0zM21.435 21.053v0.046h0.008l-0.008-0.046z"></path>
<path fill="#b0b9cc" style="fill: var(--color15, #b0b9cc)" d="M21.627 21.129v0zM23.303 21.129v0zM23.426 21.129v0zM24.245 21.129v0z"></path>
<path fill="#b0b9cc" style="fill: var(--color15, #b0b9cc)" d="M21.458 21.221v0zM23.334 21.221v0zM23.456 21.221v0zM24.145 21.221v0z"></path>
<path fill="#b0b9cc" style="fill: var(--color15, #b0b9cc)" d="M21.469 21.249v0zM21.645 21.249v0zM23.342 21.244v0zM23.464 21.244v0z"></path>
<path fill="#475b89" style="fill: var(--color14, #475b89)" d="M23.541 21.458v0zM23.793 21.458v0zM23.939 21.458v0zM24.015 21.458v0z"></path>
<path fill="#b0b9cc" style="fill: var(--color15, #b0b9cc)" d="M25.776 21.543v0.054h0.008l-0.008-0.054zM25.822 21.543v0.031h0.008l-0.008-0.031z"></path>
<path fill="#475b89" style="fill: var(--color14, #475b89)" d="M23.571 21.55v0zM23.74 21.55v0zM23.885 21.55v0zM24.107 21.55v0z"></path>
<path fill="#b0b9cc" style="fill: var(--color15, #b0b9cc)" d="M23.464 21.611v0zM23.587 21.611v0zM23.709 21.611v0zM23.847 21.611v0z"></path>
<path fill="#fbfbfb" style="fill: var(--color12, #fbfbfb)" d="M25.439 22.293c-0.027-0.004-0.057-0.016-0.084-0.010-0.138 0.029-0.171 0.19-0.276 0.261-0.149 0.102-0.314 0.152-0.475 0.23-0.144 0.070-0.283 0.168-0.452 0.17-0.095 0.001-0.188 0.021-0.283 0.023-0.133 0.003-0.265-0.012-0.398-0.012-0.074 0-0.126 0.034-0.207 0.017-0.040-0.009-0.064-0.039-0.1-0.055-0.178-0.081-0.331-0.175-0.498-0.28-0.093-0.059-0.205-0.099-0.291-0.17-0.077-0.063-0.141-0.145-0.208-0.219-0.114-0.126-0.222-0.235-0.289-0.39-0.023-0.053-0.107-0.204-0.177-0.19-0.13 0.027-0.062 0.189-0.008 0.251 0.058 0.066 0.126 0.147 0.176 0.222 0.021 0.031 0.026 0.069 0.049 0.1 0.089 0.116 0.222 0.233 0.334 0.327 0.232 0.193 0.51 0.304 0.796 0.383 0.176 0.049 0.339 0.076 0.521 0.095 0.104 0.011 0.198 0.036 0.306 0.029 0.147-0.010 0.285-0.049 0.429-0.078 0.036-0.007 0.072 0.002 0.107-0.006 0.14-0.030 0.282-0.102 0.406-0.173 0.164-0.094 0.319-0.198 0.467-0.316 0.061-0.049 0.144-0.124 0.153-0.207z"></path>
<path fill="#b0b9cc" style="fill: var(--color15, #b0b9cc)" d="M23.495 21.703v0zM23.617 21.703v0zM23.655 21.703v0zM23.793 21.703v0z"></path>
<path fill="#475b89" style="fill: var(--color14, #475b89)" d="M23.625 21.711v0zM23.648 21.711v0zM23.793 21.711v0zM24.268 21.711v0z"></path>
<path fill="#7483a5" style="fill: var(--color13, #7483a5)" d="M24.873 21.78v0zM25.7 21.78v0zM25.753 21.78v0zM21.629 21.793v0z"></path>
<path fill="#b0b9cc" style="fill: var(--color15, #b0b9cc)" d="M24.896 21.91l-0.176 0.184c0.052-0.036 0.161-0.122 0.176-0.184zM25.654 21.91v0zM25.707 21.91v0z"></path>
<path fill="#475b89" style="fill: var(--color14, #475b89)" d="M25.661 21.971v0zM21.719 21.979v0zM21.933 21.979v0zM24.536 21.979v0zM24.834 21.979v0zM25.618 21.984v0z"></path>
<path fill="#475b89" style="fill: var(--color14, #475b89)" d="M21.772 22.025v0zM21.979 22.025v0zM24.582 22.025v0zM24.789 22.025v0z"></path>
<path fill="#7483a5" style="fill: var(--color13, #7483a5)" d="M25.562 22.033v0zM25.623 22.033v0zM21.788 22.040v0zM21.987 22.040v0z"></path>
<path fill="#475b89" style="fill: var(--color14, #475b89)" d="M25.608 22.063v0zM21.811 22.071v0zM22.017 22.071v0zM24.628 22.071v0zM24.743 22.071v0zM25.539 22.071v0z"></path>
<path fill="#b0b9cc" style="fill: var(--color15, #b0b9cc)" d="M25.585 22.101v0zM21.849 22.109v0zM22.040 22.109v0zM25.523 22.109v0z"></path>
<path fill="#b0b9cc" style="fill: var(--color15, #b0b9cc)" d="M22.063 22.14v0zM25.5 22.14v0zM25.562 22.14v0zM21.879 22.147v0zM22.071 22.147v0z"></path>
<path fill="#b0b9cc" style="fill: var(--color15, #b0b9cc)" d="M22.132 22.209v0zM21.902 22.216v0zM22.14 22.216v0zM22.147 22.224v0z"></path>
<path fill="#7483a5" style="fill: var(--color13, #7483a5)" d="M21.91 22.232v0zM22.155 22.232v0zM21.918 22.239v0zM22.163 22.239v0zM21.925 22.247v0zM22.17 22.247v0z"></path>
<path fill="#7483a5" style="fill: var(--color13, #7483a5)" d="M22.010 22.331v0zM22.239 22.331v0zM25.256 22.331v0zM25.432 22.331v0zM22.017 22.339v0zM22.247 22.339v0z"></path>
<path fill="#475b89" style="fill: var(--color14, #475b89)" d="M25.416 22.354v0zM22.040 22.362v0zM22.27 22.362v0z"></path>
<path fill="#7483a5" style="fill: var(--color13, #7483a5)" d="M22.316 22.392v0zM25.194 22.392v0zM25.386 22.392v0z"></path>
<path fill="#b0b9cc" style="fill: var(--color15, #b0b9cc)" d="M25.187 22.408v0zM25.37 22.408v0zM22.101 22.415v0zM22.331 22.415v0z"></path>
<path fill="#b0b9cc" style="fill: var(--color15, #b0b9cc)" d="M22.117 22.431v0zM22.339 22.431v0zM25.171 22.431v0z"></path>
<path fill="#7483a5" style="fill: var(--color13, #7483a5)" d="M25.347 22.438v0zM22.132 22.446v0zM22.354 22.446v0z"></path>
<path fill="#7483a5" style="fill: var(--color13, #7483a5)" d="M25.34 22.446v0zM22.14 22.454v0zM22.362 22.454v0z"></path>
<path fill="#7483a5" style="fill: var(--color13, #7483a5)" d="M22.163 22.477v0zM22.392 22.477v0zM25.141 22.477v0z"></path>
<path fill="#b0b9cc" style="fill: var(--color15, #b0b9cc)" d="M25.102 22.523v0zM25.248 22.523v0zM22.216 22.53v0zM22.484 22.53v0z"></path>
<path fill="#b0b9cc" style="fill: var(--color15, #b0b9cc)" d="M25.072 22.545v0zM25.217 22.545v0zM22.239 22.553v0z"></path>
<path fill="#7483a5" style="fill: var(--color13, #7483a5)" d="M22.277 22.584v0zM22.568 22.584v0zM24.98 22.584v0z"></path>
<path fill="#7483a5" style="fill: var(--color13, #7483a5)" d="M25.156 22.591v0zM22.3 22.599v0zM22.599 22.599v0z"></path>
<path fill="#7483a5" style="fill: var(--color13, #7483a5)" d="M22.354 22.637v0zM22.676 22.637v0zM24.919 22.637v0z"></path>
<path fill="#7483a5" style="fill: var(--color13, #7483a5)" d="M24.903 22.645v0zM25.087 22.645v0zM22.377 22.653v0z"></path>
<path fill="#475b89" style="fill: var(--color14, #475b89)" d="M25.079 22.653v0zM22.385 22.66v0zM22.706 22.66v0z"></path>
<path fill="#b0b9cc" style="fill: var(--color15, #b0b9cc)" d="M22.423 22.683v0zM22.729 22.683v0zM24.811 22.683v0zM25.026 22.683v0z"></path>
<path fill="#7483a5" style="fill: var(--color13, #7483a5)" d="M24.842 22.798v0zM22.645 22.806v0zM22.936 22.806v0zM24.544 22.806v0zM24.827 22.806v0zM22.66 22.813v0z"></path>
<path fill="#7483a5" style="fill: var(--color13, #7483a5)" d="M22.699 22.829v0zM22.966 22.829v0zM24.482 22.829v0z"></path>
<path fill="#b0b9cc" style="fill: var(--color15, #b0b9cc)" d="M23.446 22.954v0zM23.479 22.951v0.008h0.023l-0.023-0.008z"></path>
<path fill="#b0b9cc" style="fill: var(--color15, #b0b9cc)" d="M23.426 22.959v0zM23.525 22.959v0.008h0.031l-0.031-0.008z"></path>
<path fill="#b0b9cc" style="fill: var(--color15, #b0b9cc)" d="M23.862 22.959v0.008h0.054l-0.054-0.008zM24.49 22.959v0z"></path>
<path fill="#b0b9cc" style="fill: var(--color15, #b0b9cc)" d="M23.135 22.974v0zM23.303 22.974v0.008h0.107l-0.107-0.008zM24.444 22.974v0z"></path>
<path fill="#b0b9cc" style="fill: var(--color15, #b0b9cc)" d="M23.472 23.035v0.008h0.031l-0.031-0.008zM24.115 23.035v0z"></path>
<path fill="#7483a5" style="fill: var(--color13, #7483a5)" d="M23.997 23.061v0z"></path>
<path fill="#475b89" style="fill: var(--color14, #475b89)" d="M24.008 23.058v0zM23.648 23.066v0z"></path>
<path fill="#b0b9cc" style="fill: var(--color15, #b0b9cc)" d="M23.655 23.066v0zM23.701 23.066v0.008h0.061l-0.061-0.008zM23.9 23.066v0.008h0.031l-0.031-0.008z"></path>
<path fill="#7483a5" style="fill: var(--color13, #7483a5)" d="M23.931 23.066v0.008h0.023l-0.023-0.008z"></path>
<path fill="#475b89" style="fill: var(--color14, #475b89)" d="M23.954 23.066v0zM23.801 23.074v0.008h0.069l-0.069-0.008z"></path>
</symbol>
<symbol id="icon-whatsapp" viewBox="0 0 32 32">
<path fill="#fff" style="fill: var(--color6, #fff)" d="M0 0v32h0.5v-0.063c-0.669-0.505-0.154-1.679-0.012-2.375 0.279-1.375 0.55-2.755 0.851-4.125 0.155-0.704 0.487-1.591 0.45-2.313-0.016-0.304-0.236-0.599-0.35-0.875-0.247-0.594-0.481-1.195-0.662-1.813-0.532-1.819-0.732-3.67-0.649-5.563 0.258-5.883 4.269-11.316 9.623-13.616 1.497-0.643 3.23-1.196 4.875-1.197l-1.375-0.063h-13.25z"></path>
<path fill="#7bd16d" style="fill: var(--color17, #7bd16d)" d="M14.625 0.027c-2.212 0.291-4.27 0.797-6.25 1.868-4.659 2.52-8.014 7.582-8.248 12.918-0.085 1.935 0.105 3.827 0.649 5.688 0.24 0.821 0.922 1.796 0.993 2.625 0.059 0.688-0.283 1.577-0.431 2.25-0.306 1.391-0.583 2.791-0.864 4.188-0.11 0.549-0.627 1.844-0.145 2.285 0.345 0.316 0.964 0.088 1.358 0.001 1.191-0.265 2.369-0.593 3.563-0.849 0.857-0.184 1.708-0.407 2.563-0.603 0.329-0.076 0.723-0.253 1.063-0.229 0.351 0.026 0.738 0.287 1.063 0.419 0.652 0.265 1.319 0.491 2 0.67 2.063 0.542 4.203 0.614 6.313 0.358 2.118-0.257 4.179-1.048 6-2.14 8.004-4.802 9.999-15.819 4.444-23.225-1.034-1.378-2.325-2.604-3.757-3.562-1.54-1.031-3.258-1.815-5.063-2.243-1.671-0.396-3.533-0.644-5.25-0.418z"></path>
<path fill="#fff" style="fill: var(--color6, #fff)" d="M17.375 0v0.063c1.904 0.001 3.941 0.705 5.625 1.547 2.614 1.307 4.866 3.289 6.434 5.765 3.788 5.981 3.117 14.158-1.812 19.313-3.456 3.614-8.43 5.589-13.435 4.982-1.214-0.147-2.411-0.428-3.563-0.838-0.529-0.189-1.192-0.657-1.75-0.683-0.658-0.030-1.484 0.331-2.125 0.483-1.846 0.438-3.744 1.062-5.625 1.305v0.062h30.875v-32h-14.625zM4.5 27.563c1.131-0.233 2.25-0.532 3.375-0.791 0.449-0.103 0.973-0.335 1.438-0.31 0.435 0.023 0.929 0.395 1.313 0.586 0.691 0.343 1.439 0.615 2.188 0.805 3.347 0.848 6.876 0.326 9.813-1.503 1.363-0.849 2.532-1.982 3.464-3.286 0.889-1.244 1.533-2.643 1.903-4.125 0.451-1.804 0.512-3.67 0.167-5.5-1.331-7.057-8.734-11.352-15.534-9.491-1.946 0.533-3.629 1.585-5.125 2.91-1.58 1.4-2.693 3.337-3.343 5.33-0.752 2.307-0.748 5.005-0.011 7.313 0.22 0.689 0.483 1.353 0.806 2 0.168 0.336 0.471 0.747 0.512 1.125 0.046 0.419-0.17 0.962-0.252 1.375-0.233 1.167-0.616 2.377-0.712 3.563z"></path>
<path fill="#7bd16d" style="fill: var(--color17, #7bd16d)" d="M10.5 8.221c-0.572 0.132-1.081 0.721-1.442 1.154-1.494 1.794-1.218 3.991-0.288 6 0.453 0.98 1.138 1.867 1.83 2.688 0.532 0.63 1.108 1.199 1.713 1.755 2.43 2.235 6.278 4.824 9.75 3.491 1.048-0.402 3.213-2.366 2.262-3.615-0.276-0.363-0.723-0.459-1.137-0.577-0.909-0.258-1.987-0.764-2.938-0.74-1.062 0.026-1.515 1.725-2.625 1.34-1.428-0.496-2.754-1.808-3.813-2.842-0.561-0.548-1.507-1.377-1.662-2.187-0.153-0.802 0.847-1.353 1.042-2.063 0.257-0.934-0.672-2.291-1.048-3.125-0.148-0.329-0.267-0.722-0.532-0.979-0.291-0.282-0.72-0.39-1.112-0.3z"></path>
</symbol>
</defs>
</svg>
