<?xml version="1.0" standalone="no"?>
<!DOCTYPE svg PUBLIC "-//W3C//DTD SVG 20010904//EN"
 "http://www.w3.org/TR/2001/REC-SVG-20010904/DTD/svg10.dtd">
<svg version="1.0" xmlns="http://www.w3.org/2000/svg"
 width="512.000000pt" height="512.000000pt" viewBox="0 0 512.000000 512.000000"
 preserveAspectRatio="xMidYMid meet">

<g transform="translate(0.000000,512.000000) scale(0.100000,-0.100000)"
fill="#000000" stroke="none">
<path d="M2145 5110 c-11 -4 -82 -71 -158 -147 -112 -113 -140 -147 -147 -179
-5 -21 -10 -245 -10 -496 l0 -458 -200 0 -200 0 0 248 c0 247 0 249 -23 270
-31 29 -72 28 -102 -3 l-25 -24 0 -246 0 -245 -416 0 c-270 0 -431 -4 -459
-11 -55 -14 -122 -70 -146 -123 -17 -38 -19 -74 -19 -436 l0 -396 -39 -38
c-22 -22 -45 -51 -51 -65 -7 -18 -10 -187 -8 -543 l3 -516 23 -25 c13 -14 35
-28 48 -31 l24 -6 0 -326 c0 -305 1 -327 20 -364 12 -24 37 -49 63 -65 l44
-25 766 0 767 0 0 -189 0 -189 -227 -4 c-211 -3 -231 -5 -268 -25 -92 -49
-125 -112 -125 -239 0 -100 18 -144 77 -184 l37 -25 1154 -3 1155 -2 44 21
c68 33 93 84 93 193 0 127 -33 190 -125 239 -37 20 -57 22 -267 25 l-228 4 0
189 0 189 766 0 766 0 40 22 c22 13 51 41 64 64 l24 41 0 326 0 327 24 6 c13
3 35 17 48 31 23 24 23 28 26 271 3 239 2 248 -18 270 -28 30 -82 30 -110 0
-19 -20 -20 -34 -20 -225 l0 -203 -410 0 -410 0 0 453 0 452 78 78 77 77 333
0 332 0 0 -178 c0 -166 1 -180 20 -200 28 -30 82 -30 110 0 19 21 20 34 20
241 l0 219 -34 34 c-19 19 -41 34 -50 34 -14 0 -16 34 -16 325 0 272 -3 332
-16 363 -19 47 -58 88 -109 115 -39 21 -51 22 -467 25 l-428 3 0 248 c0 246 0
248 -23 269 -31 29 -72 28 -102 -3 l-25 -24 0 -246 0 -245 -209 0 -209 0 -3
129 c-3 110 -7 132 -23 150 -26 29 -86 29 -112 0 -18 -20 -19 -42 -22 -320
l-3 -299 -570 0 -569 0 0 633 0 632 108 108 107 107 462 0 462 0 3 -294 c3
-273 4 -295 22 -315 26 -29 86 -29 112 0 18 20 19 40 19 343 0 176 -3 334 -8
349 -4 15 -22 36 -40 47 -31 19 -52 20 -552 19 -286 0 -529 -4 -540 -9z m-865
-1597 l0 -167 -35 34 c-60 58 -135 36 -135 -40 0 -33 10 -46 109 -143 85 -85
114 -107 136 -107 22 0 51 22 136 107 60 59 112 115 115 126 9 27 -14 73 -43
86 -33 15 -60 6 -100 -32 l-33 -31 0 167 0 167 199 0 199 0 4 -132 c6 -213 -3
-208 372 -208 l276 0 0 -286 c0 -219 -3 -285 -12 -282 -7 3 -28 42 -48 89 -19
46 -41 95 -49 107 -26 47 -59 52 -358 52 -258 0 -280 -1 -310 -20 -60 -36 -58
-8 -58 -706 0 -699 -1 -680 57 -710 40 -21 1676 -21 1716 0 58 30 57 22 57
590 0 487 -1 523 -18 548 -10 14 -32 31 -49 37 -20 7 -163 11 -399 11 l-369 0
0 285 0 285 274 0 c169 0 285 4 304 11 55 19 66 49 70 197 l4 132 209 0 209 0
0 -167 0 -167 -35 34 c-60 58 -135 36 -135 -40 0 -33 10 -46 109 -143 85 -85
114 -107 136 -107 22 0 51 22 136 107 60 59 112 115 115 126 9 27 -14 73 -43
86 -33 15 -60 6 -100 -32 l-33 -31 0 167 0 168 414 -3 c391 -3 415 -4 435 -22
21 -19 21 -27 21 -338 l0 -318 -311 0 -312 0 -110 -107 c-60 -60 -116 -122
-123 -140 -21 -48 -20 -998 0 -1048 27 -64 31 -65 466 -65 l390 0 0 -120 0
-120 -2170 0 -2170 0 0 120 0 120 390 0 c435 0 439 1 466 65 21 50 21 1179 0
1229 -28 68 -17 66 -458 66 l-398 0 0 318 c0 291 2 320 18 334 9 9 24 18 32
21 8 3 201 6 428 6 l412 1 0 -167z m993 -686 c9 -23 17 -46 17 -50 0 -4 -110
-7 -245 -7 l-245 0 0 50 0 50 228 0 227 0 18 -43z m-1163 -507 l0 -530 -410 0
-410 0 0 452 0 453 77 77 78 78 332 0 333 0 0 -530z m1370 74 l0 -226 -35 31
c-43 37 -78 39 -110 6 -47 -46 -37 -69 88 -193 79 -78 121 -112 137 -112 16 0
58 34 137 112 125 124 135 147 88 193 -32 33 -67 31 -110 -6 l-35 -31 0 226 0
226 340 0 340 0 0 -450 0 -450 -760 0 -760 0 0 450 0 450 340 0 340 0 0 -226z
m2248 -1261 l-3 -118 -2165 0 -2165 0 -3 118 -3 117 2171 0 2171 0 -3 -117z
m-1658 -462 l0 -189 -84 -3 c-101 -5 -126 -21 -126 -79 0 -66 -8 -64 412 -70
l380 -5 19 -24 c16 -19 19 -37 17 -85 l-3 -61 -1125 0 -1125 0 -3 66 c-5 112
-56 103 613 109 464 4 575 8 588 19 25 20 22 83 -4 107 -19 18 -42 19 -300 22
l-279 3 0 189 0 190 510 0 510 0 0 -189z"/>
<path d="M445 2695 c-30 -29 -32 -64 -6 -96 19 -24 21 -24 246 -27 245 -3 265
0 284 51 10 28 -5 74 -29 87 -11 6 -116 10 -245 10 l-226 0 -24 -25z"/>
<path d="M469 2499 c-25 -9 -49 -45 -49 -73 0 -7 9 -25 21 -40 l20 -26 238 0
c221 0 239 1 255 19 25 27 24 78 -3 104 -21 21 -30 22 -239 24 -123 1 -228 -2
-243 -8z"/>
<path d="M463 2280 c-45 -18 -55 -72 -22 -114 l20 -26 235 0 c221 0 235 1 254
20 33 33 30 75 -6 108 -24 21 -31 22 -242 21 -119 0 -227 -4 -239 -9z"/>
<path d="M445 2045 c-14 -13 -25 -36 -25 -50 0 -14 11 -37 25 -50 23 -24 30
-25 138 -25 100 0 117 3 141 21 34 27 36 77 3 107 -21 20 -34 22 -141 22 -111
0 -118 -1 -141 -25z"/>
<path d="M2790 4858 c-19 -20 -20 -34 -20 -210 0 -181 -1 -188 -20 -188 -19 0
-20 7 -20 121 0 66 -4 128 -10 138 -5 10 -22 24 -39 30 -24 10 -34 10 -59 -3
-16 -8 -32 -23 -36 -31 -3 -9 -6 -70 -6 -136 0 -112 -1 -119 -20 -119 -19 0
-20 7 -20 159 0 145 -2 161 -21 185 -15 19 -30 26 -54 26 -24 0 -39 -7 -54
-26 -19 -24 -21 -40 -21 -185 0 -152 -1 -159 -20 -159 -18 0 -20 7 -20 85 0
78 -2 88 -25 110 -13 14 -36 25 -50 25 -14 0 -37 -11 -50 -25 -23 -22 -25 -32
-25 -109 0 -85 0 -86 -27 -92 -44 -10 -63 -33 -63 -74 0 -72 -14 -70 452 -70
389 0 416 1 431 18 22 25 22 85 0 104 -10 8 -30 18 -45 22 l-28 6 0 188 c0
176 -1 190 -20 210 -28 30 -82 30 -110 0z"/>
<path d="M2127 4182 c-24 -26 -22 -85 3 -107 30 -28 114 -26 142 3 26 26 28
75 3 102 -25 28 -124 29 -148 2z"/>
<path d="M2350 4180 c-43 -43 -14 -113 52 -125 18 -3 153 -5 299 -3 246 3 269
4 288 22 27 25 29 86 3 109 -16 15 -54 17 -320 17 -289 0 -303 -1 -322 -20z"/>
<path d="M2132 3970 c-14 -14 -22 -33 -22 -55 0 -48 31 -75 86 -75 57 0 72 7
90 42 13 25 13 35 3 59 -15 38 -37 49 -91 49 -31 0 -51 -6 -66 -20z"/>
<path d="M2356 3969 c-19 -15 -26 -30 -26 -54 0 -24 7 -39 26 -54 26 -20 38
-21 318 -21 280 0 293 1 314 20 14 14 22 33 22 55 0 22 -8 41 -22 55 -21 19
-34 20 -314 20 -280 0 -292 -1 -318 -21z"/>
<path d="M2127 3752 c-24 -26 -22 -85 3 -107 30 -28 114 -26 142 3 26 26 28
75 3 102 -25 28 -124 29 -148 2z"/>
<path d="M2350 3750 c-43 -43 -14 -113 52 -125 18 -3 153 -5 299 -3 246 3 269
4 288 22 27 25 29 86 3 109 -16 15 -54 17 -320 17 -289 0 -303 -1 -322 -20z"/>
<path d="M4177 2708 c-41 -32 -38 -94 7 -123 21 -14 56 -16 251 -13 225 3 227
3 246 27 26 32 24 67 -6 96 l-24 25 -229 0 c-167 0 -233 -3 -245 -12z"/>
<path d="M4195 2500 c-48 -19 -63 -83 -29 -121 16 -18 34 -19 255 -19 l238 0
20 26 c12 15 21 33 21 40 0 29 -25 64 -53 74 -35 12 -422 13 -452 0z"/>
<path d="M4175 2267 c-35 -30 -37 -83 -4 -109 19 -16 47 -18 254 -18 l234 0
20 26 c26 33 27 65 2 95 -19 24 -21 24 -249 27 -230 3 -230 3 -257 -21z"/>
<path d="M4177 2058 c-42 -33 -37 -106 9 -127 35 -16 234 -14 256 3 41 31 37
113 -7 130 -31 12 -240 7 -258 -6z"/>
</g>
</svg>
