<svg aria-hidden="true" style="position: absolute; width: 0; height: 0; overflow: hidden;" version="1.1" xmlns="http://www.w3.org/2000/svg" xmlns:xlink="http://www.w3.org/1999/xlink">
<defs>
        <symbol id="icon-icon1" viewBox="0 0 32 32">
            <path
                d="M18.3 0.125c-0.225 0.175-3.494 4.606-3.55 4.813-0.063 0.225 0.037 0.537 0.225 0.681 0.15 0.119 0.256 0.131 0.969 0.131h0.806v5.725l-0.619 0.606-0.519-0.219c-0.287-0.125-0.625-0.256-0.75-0.3l-0.238-0.075v-1.194c0-0.662-0.031-1.306-0.063-1.431-0.081-0.281-0.419-0.588-0.731-0.656-0.131-0.025-0.844-0.050-1.581-0.050-1.575 0-1.769 0.050-2.037 0.5-0.144 0.256-0.15 0.3-0.15 1.537v1.275l-0.637 0.25c-0.35 0.137-0.7 0.275-0.781 0.306-0.131 0.056-0.231-0.025-1.069-0.85-0.569-0.569-0.987-0.931-1.094-0.956-0.506-0.131-0.931 0.113-1.925 1.106-0.65 0.644-1.038 1.144-1.119 1.431-0.131 0.45-0.050 0.581 0.956 1.6l0.944 0.956-0.15 0.294c-0.081 0.169-0.225 0.494-0.319 0.737l-0.169 0.438-1.306 0.031c-1.2 0.031-1.319 0.044-1.519 0.169-0.325 0.2-0.438 0.444-0.512 1.094-0.075 0.656-0.025 2.2 0.081 2.581 0.069 0.256 0.244 0.488 0.463 0.613 0.081 0.050 0.619 0.087 1.462 0.106l1.331 0.031 0.175 0.469c0.094 0.256 0.231 0.594 0.306 0.744l0.144 0.269-0.906 0.919c-1.375 1.387-1.375 1.525 0.019 2.962 0.6 0.625 1.206 1.131 1.475 1.231 0.106 0.044 0.3 0.056 0.463 0.031 0.256-0.038 0.356-0.119 1.225-0.981l0.95-0.931 0.363 0.181c0.206 0.1 0.544 0.244 0.762 0.325l0.387 0.137v1.25c0 1.369 0.031 1.531 0.369 1.813 0.269 0.231 0.581 0.269 2.037 0.269 1.206-0.006 1.262-0.006 1.563-0.156 0.525-0.262 0.556-0.369 0.594-1.9l0.031-1.3 0.469-0.175c0.256-0.094 0.594-0.231 0.744-0.306l0.275-0.144 0.65 0.65c0.6 0.594 0.675 0.7 1.019 1.394 1.012 2.056 2.806 3.394 5.031 3.75 3.544 0.575 6.944-1.775 7.694-5.313 0.337-1.581 0.044-3.4-0.769-4.769-0.35-0.594-0.981-1.344-1.431-1.712l-0.4-0.331v-1.581c0-1.494-0.006-1.581-0.125-1.7-0.188-0.188-0.519-0.169-0.681 0.038-0.125 0.156-0.131 0.25-0.131 1.413v1.238l-0.231-0.119c-0.306-0.15-1.163-0.438-1.462-0.481l-0.238-0.038-0.038-7.425-0.175-0.169c-0.163-0.162-0.212-0.175-0.856-0.206l-0.688-0.031 1.288-1.75c0.706-0.963 1.319-1.787 1.363-1.831 0.063-0.063 0.331 0.269 1.356 1.687 0.7 0.969 1.281 1.8 1.294 1.844 0.019 0.063-0.119 0.081-0.594 0.081-0.675 0-0.825 0.069-0.962 0.419-0.031 0.081-0.056 0.919-0.056 1.856 0 1.631 0.006 1.713 0.131 1.875 0.163 0.206 0.494 0.225 0.681 0.037 0.119-0.119 0.125-0.206 0.125-1.688v-1.563h0.656c0.956 0 1.281-0.175 1.281-0.694 0-0.2-0.212-0.525-1.719-2.606-1.087-1.506-1.775-2.394-1.863-2.425-0.188-0.063-0.45-0.044-0.594 0.031-0.069 0.037-0.669 0.806-1.331 1.706-2.375 3.225-2.244 3.037-2.244 3.306 0 0.181 0.050 0.294 0.181 0.444l0.181 0.206 0.819 0.025 0.819 0.019v6.737h-0.8l-0.044-0.469c-0.050-0.531-0.188-0.794-0.531-0.994-0.2-0.119-0.344-0.131-1.512-0.15-0.837-0.019-1.3-0.044-1.3-0.087 0-0.038-0.131-0.375-0.288-0.75l-0.294-0.688 0.881-0.887c0.481-0.481 0.906-0.944 0.944-1.019 0.094-0.188 0.087-0.619-0.019-0.819-0.050-0.1-0.206-0.313-0.344-0.481l-0.256-0.313v-6.031h0.725c0.406 0 0.781-0.031 0.856-0.069 0.375-0.194 0.462-0.631 0.2-1.019-0.425-0.625-3.225-4.469-3.306-4.531-0.181-0.15-0.556-0.156-0.738-0.006zM20.006 3.019l1.3 1.794h-0.563c-0.613 0-0.869 0.081-1.006 0.331-0.063 0.1-0.087 0.819-0.113 2.913l-0.031 2.775-0.275-0.231c-0.15-0.131-0.363-0.275-0.462-0.331-0.25-0.125-0.719-0.081-0.975 0.1l-0.194 0.137v-2.487c0-1.537-0.025-2.575-0.069-2.725-0.094-0.356-0.288-0.444-1.025-0.481l-0.631-0.031 1.312-1.794c0.725-0.987 1.344-1.788 1.375-1.781 0.031 0.012 0.644 0.825 1.356 1.813zM13.494 9.1l0.194 0.037v1.275c0 0.694 0.025 1.331 0.056 1.412 0.1 0.262 0.375 0.469 0.869 0.644 0.262 0.094 0.637 0.25 0.825 0.344 0.806 0.406 0.919 0.363 2.075-0.794l0.919-0.912 0.175 0.113c0.225 0.15 1.462 1.387 1.613 1.613l0.113 0.175-0.875 0.887c-0.488 0.488-0.913 0.95-0.95 1.025-0.125 0.25-0.081 0.688 0.113 1.069 0.1 0.194 0.256 0.569 0.344 0.825 0.188 0.519 0.238 0.594 0.5 0.8 0.175 0.131 0.231 0.137 1.506 0.137 1.512 0 1.406-0.044 1.406 0.569v0.288l-0.387 0.113c-0.219 0.056-0.619 0.212-0.9 0.337-1.444 0.675-2.538 1.738-3.244 3.163-0.45 0.906-0.65 1.688-0.7 2.738l-0.038 0.8-0.194-0.181c-0.256-0.244-0.55-0.387-0.794-0.387-0.113 0-0.469 0.125-0.8 0.275s-0.713 0.306-0.85 0.35c-0.137 0.044-0.325 0.137-0.425 0.2-0.331 0.231-0.356 0.369-0.356 1.762 0 0.837-0.025 1.294-0.069 1.319-0.106 0.069-1.494 0.113-2.075 0.063l-0.544-0.044v-1.256c0-1.756 0.025-1.712-1.344-2.269-1.419-0.575-1.275-0.606-2.5 0.606l-0.944 0.931-0.244-0.2c-0.406-0.319-0.831-0.738-1.263-1.231l-0.4-0.469 0.906-0.906c0.494-0.506 0.931-0.975 0.969-1.050 0.125-0.244 0.075-0.55-0.175-1.087-0.131-0.288-0.275-0.637-0.319-0.775-0.144-0.456-0.325-0.712-0.594-0.844-0.231-0.113-0.388-0.125-1.513-0.125h-1.256l-0.044-0.606c-0.044-0.587 0-1.919 0.069-2.025 0.019-0.031 0.612-0.056 1.325-0.056 1.663 0 1.694-0.012 2.044-0.988 0.088-0.25 0.244-0.631 0.35-0.844 0.194-0.412 0.225-0.675 0.112-0.963-0.037-0.094-0.456-0.569-0.938-1.050-0.475-0.488-0.869-0.912-0.869-0.95 0-0.088 1.1-1.244 1.506-1.588l0.313-0.262 0.919 0.912c1.181 1.169 1.306 1.206 2.263 0.731 0.188-0.094 0.531-0.231 0.756-0.306 0.431-0.144 0.688-0.35 0.8-0.65 0.044-0.106 0.069-0.694 0.069-1.419 0-1.238 0-1.244 0.144-1.269 0.225-0.044 2.137-0.050 2.35-0.006zM25.344 19.556c1.688 0.444 3.075 1.6 3.844 3.2 0.413 0.869 0.519 1.375 0.519 2.462 0 1.131-0.106 1.619-0.575 2.563-0.587 1.188-1.475 2.075-2.663 2.663-0.931 0.456-1.438 0.575-2.531 0.581-0.656 0-1.025-0.031-1.337-0.106-1.269-0.319-2.419-1.031-3.188-1.975-2.294-2.813-1.563-6.931 1.556-8.769 0.613-0.363 1.387-0.631 2.188-0.762 0.425-0.063 1.694 0.019 2.188 0.144z"></path>
            <path
                d="M11.563 13.381c-1.463 0.194-2.975 1.088-3.862 2.294-1.206 1.631-1.475 3.8-0.7 5.656 0.669 1.606 2.031 2.825 3.731 3.331 0.744 0.225 1.944 0.275 2.713 0.119 1.206-0.244 2.069-0.712 2.963-1.619 0.656-0.669 0.906-1.031 1.256-1.837 0.288-0.663 0.331-1.019 0.156-1.194-0.163-0.163-0.512-0.175-0.644-0.025-0.056 0.063-0.194 0.369-0.313 0.675-0.719 1.931-2.481 3.15-4.55 3.156-2.156 0-3.969-1.369-4.638-3.5-0.188-0.613-0.206-1.919-0.031-2.563 0.456-1.656 1.806-3.006 3.462-3.444 0.7-0.188 1.75-0.188 2.425 0 1.419 0.394 2.494 1.269 3.125 2.537 0.15 0.306 0.325 0.769 0.381 1.025 0.119 0.531 0.25 0.694 0.544 0.694 0.456 0 0.544-0.369 0.294-1.194-0.606-2.019-2.256-3.563-4.281-4.012-0.588-0.131-1.456-0.175-2.031-0.1z"></path>
            <path
                d="M11.45 15.525c-0.481 0.125-1.188 0.494-1.55 0.812-0.688 0.606-1.175 1.6-1.25 2.55-0.069 0.837 0.25 1.844 0.8 2.519 1.412 1.725 3.906 1.869 5.463 0.319 0.725-0.725 1.088-1.594 1.088-2.613 0-0.975-0.319-1.788-0.981-2.488-0.762-0.813-1.45-1.125-2.55-1.162-0.444-0.012-0.806 0.006-1.019 0.063zM13.519 16.644c0.569 0.281 1.037 0.756 1.313 1.337 0.188 0.4 0.2 0.462 0.2 1.144 0 0.694-0.006 0.738-0.213 1.156-0.469 0.956-1.475 1.594-2.525 1.594-0.394 0-1.056-0.2-1.412-0.431-2.019-1.3-1.6-4.212 0.713-4.988 0.162-0.050 0.463-0.075 0.856-0.056 0.556 0.019 0.656 0.038 1.069 0.244z"></path>
            <path
                d="M11.588 17.456c-0.4 0.194-0.75 0.544-0.925 0.913-0.194 0.431-0.181 1.119 0.044 1.544 0.475 0.925 1.588 1.288 2.481 0.8 1.025-0.556 1.269-1.919 0.5-2.794-0.356-0.406-0.694-0.563-1.275-0.587-0.438-0.025-0.55-0.006-0.825 0.125zM12.756 18.344c0.588 0.306 0.569 1.269-0.031 1.556-0.869 0.413-1.669-0.613-1.056-1.344 0.094-0.106 0.225-0.219 0.294-0.244 0.213-0.087 0.594-0.069 0.794 0.031z"></path>
            <path
                d="M22.938 20.087c-1.681 0.356-2.994 1.375-3.719 2.869-0.356 0.75-0.462 1.175-0.506 2.012-0.113 2.075 1.012 3.981 2.881 4.9 0.875 0.431 1.319 0.538 2.313 0.531 1.069 0 1.813-0.2 2.706-0.719 0.456-0.275 1.481-1.3 1.756-1.756 0.269-0.469 0.525-1.1 0.525-1.313 0-0.256-0.181-0.425-0.456-0.425-0.25 0-0.394 0.113-0.469 0.375-0.119 0.4-0.581 1.163-0.944 1.556-1.7 1.831-4.538 1.825-6.25-0.006-0.456-0.494-0.706-0.906-0.938-1.581-0.156-0.45-0.175-0.587-0.175-1.313s0.019-0.863 0.175-1.313c0.256-0.738 0.5-1.131 1.063-1.694 0.569-0.563 0.969-0.813 1.681-1.056 2.325-0.775 4.856 0.637 5.475 3.063 0.075 0.288 0.175 0.531 0.238 0.581 0.181 0.131 0.519 0.069 0.663-0.125 0.125-0.169 0.125-0.181 0.019-0.625-0.225-0.962-0.587-1.637-1.281-2.375-0.712-0.762-1.556-1.269-2.506-1.512-0.556-0.144-1.731-0.181-2.25-0.075z"></path>
            <path
                d="M23.563 21.563c-0.119 0.119-0.125 0.206-0.125 1.969v1.85l0.156 0.15c0.081 0.087 0.219 0.156 0.3 0.156 0.163 0 2.313-1.356 2.5-1.575 0.056-0.069 0.106-0.194 0.106-0.281 0-0.194-0.262-0.456-0.456-0.456-0.081 0-0.475 0.212-0.875 0.469-0.406 0.256-0.744 0.469-0.762 0.469s-0.031-0.563-0.031-1.256c0-1.494-0.038-1.619-0.481-1.619-0.125 0-0.256 0.050-0.331 0.125z"></path>
        </symbol>
        <symbol id="icon-icon2" viewBox="0 0 32 32">
            <path
                d="M11.125 0.119c-1.981 0.438-3.525 1.85-4.119 3.781-0.513 1.656-0.106 3.675 1 4.994l0.25 0.294-0.244 0.281c-0.375 0.425-0.838 1.119-1.188 1.781-1.131 2.137-1.456 4.637-0.919 7.031 0.088 0.375 0.156 0.694 0.156 0.7 0 0.012-0.544 0.019-1.2 0.019-1.919 0-1.862-0.069-1.862 2.375 0 1.887 0.019 2 0.394 2.275 0.175 0.125 0.269 0.131 3.037 0.163l2.856 0.031 0.319 0.269c0.438 0.363 0.7 0.675 0.856 1.006 0.125 0.275 0.131 0.406 0.162 3.225 0.025 2.069 0.050 2.975 0.106 3.063 0.113 0.194 0.406 0.456 0.6 0.525 0.119 0.044 1.45 0.069 4.006 0.069h3.831l0.275-0.144c0.438-0.231 0.556-0.5 0.556-1.269 0-0.719-0.063-0.837-0.45-0.837-0.344 0-0.444 0.163-0.488 0.769l-0.031 0.512h-7.438l-0.031-2.875c-0.031-2.756-0.037-2.887-0.169-3.2-0.162-0.406-0.419-0.844-0.544-0.956-0.056-0.044-0.1-0.1-0.1-0.125s0.356-0.063 0.8-0.075c0.906-0.031 1.125-0.106 1.287-0.45 0.056-0.119 0.1-0.356 0.1-0.531s0.019-0.319 0.037-0.319c0.019 0 0.275 0.087 0.569 0.188 2.5 0.881 5.394 0.219 7.294-1.663 1.938-1.925 2.606-4.656 1.788-7.281l-0.113-0.369h1.175c0.65 0 1.194 0.025 1.212 0.050 0.081 0.137 0.3 1.419 0.331 1.975 0.019 0.35 0.075 0.725 0.119 0.837 0.050 0.113 0.563 1.063 1.15 2.1 0.656 1.169 1.063 1.956 1.063 2.063s-0.069 0.244-0.181 0.356l-0.181 0.181h-1.012c-1.163 0-1.375 0.063-1.669 0.512l-0.175 0.262-0.031 1.469c-0.031 1.469-0.031 1.475-0.212 1.831-0.219 0.438-0.587 0.8-1.038 1.031-0.337 0.175-0.363 0.175-1.75 0.206-1.544 0.038-1.637 0.056-1.962 0.438-0.212 0.256-0.256 0.431-0.256 1.006 0 0.581 0.106 0.744 0.469 0.744 0.337 0 0.438-0.144 0.438-0.619 0-0.663-0.063-0.631 1.369-0.631 1.694 0 2.169-0.15 2.95-0.931s0.931-1.256 0.931-2.95c0-0.681 0.019-1.275 0.038-1.331 0.031-0.087 0.175-0.1 0.944-0.1 1.169 0 1.4-0.056 1.8-0.462 0.438-0.438 0.575-0.962 0.4-1.475-0.044-0.113-0.556-1.069-1.15-2.119l-1.075-1.912-0.038-0.594c-0.019-0.325-0.094-0.887-0.169-1.25-0.069-0.363-0.125-0.662-0.125-0.675 0-0.006 0.569-0.012 1.269-0.012 1.925 0 1.856 0.088 1.856-2.375 0-1.881-0.025-2.025-0.387-2.25-0.2-0.119-0.306-0.125-2.875-0.125h-2.669l-0.425-0.381c-1.269-1.131-2.819-1.888-4.775-2.331-0.156-0.031-0.163-0.050-0.2-0.675-0.125-2.069-1.225-3.756-3.025-4.669-1.019-0.512-2.431-0.694-3.519-0.45zM13.075 1.025c1.744 0.331 3.119 1.65 3.556 3.413 0.144 0.563 0.1 1.681-0.075 2.281-0.25 0.825-0.55 1.294-1.306 2.037-0.762 0.744-1.006 1.088-1.2 1.694l-0.137 0.425h-1.225v-2.094l0.331-0.081c1.15-0.269 2.1-1.206 2.45-2.419 0.213-0.713 0.037-2.050-0.287-2.219-0.181-0.1-0.425-0.069-0.563 0.069-0.119 0.119-0.125 0.175-0.088 0.456 0.031 0.175 0.056 0.588 0.056 0.912 0.006 0.519-0.019 0.638-0.162 0.956-0.281 0.606-0.956 1.175-1.575 1.331-0.162 0.037-0.162 0.037-0.162-0.313 0-0.338 0.006-0.35 0.213-0.438 0.119-0.050 0.331-0.194 0.475-0.331 1.144-1.025 0.425-2.956-1.1-2.956-0.706 0-1.238 0.3-1.55 0.875-0.469 0.856-0.119 1.963 0.744 2.369l0.281 0.131v0.344c0 0.4-0.019 0.406-0.494 0.188-0.963-0.45-1.506-1.35-1.425-2.388 0.063-0.838 0.569-1.587 1.325-1.975 0.531-0.269 1.269-0.313 1.912-0.1 0.4 0.131 0.456 0.138 0.606 0.050 0.231-0.125 0.319-0.394 0.194-0.606-0.231-0.425-1.688-0.663-2.531-0.419-1.387 0.394-2.356 1.6-2.444 3.031-0.1 1.606 0.988 3.087 2.531 3.45l0.325 0.081v2.094h-1.231l-0.081-0.3c-0.181-0.669-0.375-0.956-1.156-1.731-0.625-0.619-0.8-0.838-1.012-1.256-0.681-1.319-0.725-2.787-0.113-4.056 0.45-0.938 1.175-1.663 2.125-2.125 0.912-0.444 1.819-0.569 2.794-0.381zM12.625 4.781c0.425 0.219 0.5 0.9 0.131 1.231-0.55 0.487-1.369 0.088-1.3-0.638 0.063-0.55 0.656-0.856 1.169-0.594zM18.5 7.044c0.975 0.275 2.319 0.938 2.906 1.419l0.188 0.156-0.969 0.006c-0.644 0-1.019 0.025-1.125 0.081-0.206 0.106-0.438 0.463-0.438 0.675 0 0.1-0.012 0.181-0.025 0.181s-0.175-0.069-0.369-0.15c-0.488-0.219-1.15-0.412-1.7-0.494l-0.475-0.075 0.188-0.25c0.231-0.313 0.581-1.025 0.725-1.456l0.106-0.331 0.225 0.044c0.131 0.025 0.469 0.112 0.762 0.194zM28.063 11v1.438h-8.063v-2.875h8.063v1.438zM17.281 9.931c0.506 0.125 1.212 0.394 1.575 0.606l0.206 0.119v1.069c0 1.006 0.006 1.081 0.144 1.281 0.225 0.331 0.35 0.369 1.369 0.369h0.919l0.131 0.356c0.356 0.95 0.488 1.912 0.381 2.825-0.175 1.5-0.7 2.625-1.719 3.688-0.769 0.794-1.656 1.331-2.756 1.669-0.519 0.163-0.644 0.175-1.656 0.175-1.219 0-1.675-0.087-2.512-0.475l-0.425-0.194v-0.913c0-1.413-0.1-1.506-1.588-1.506h-0.906l-0.162-0.356c-0.425-0.894-0.6-1.663-0.606-2.662 0-0.406 0.006-0.75 0.019-0.762s0.169 0.025 0.344 0.075l0.319 0.1 0.075 0.381c0.137 0.694 0.2 0.85 0.4 1.081 0.275 0.313 0.613 0.456 1.106 0.456h0.406l0.219 0.425c0.306 0.594 0.963 1.238 1.563 1.531 0.7 0.344 1.162 0.438 1.906 0.406 1.081-0.056 1.587-0.356 1.406-0.831-0.1-0.262-0.325-0.319-0.781-0.2-1.287 0.344-2.519-0.144-3.25-1.281-0.106-0.169-0.106-0.175 0.088-0.337 0.113-0.094 0.238-0.244 0.287-0.344 0.081-0.15 0.131-0.337 0.313-1.156 0.019-0.094 0.113-0.156 0.306-0.213 0.344-0.094 0.694-0.375 0.85-0.694 0.15-0.287 0.162-0.838 0.031-1.162-0.050-0.119-0.094-0.231-0.094-0.244 0-0.006 0.162-0.037 0.356-0.063 1.444-0.181 2.869 0.944 3.075 2.431 0.075 0.537 0 1.019-0.244 1.6-0.181 0.419-0.188 0.456-0.094 0.631 0.106 0.2 0.319 0.288 0.563 0.225 0.113-0.031 0.212-0.15 0.344-0.413 0.95-1.875 0.144-4.169-1.769-5.069-0.488-0.225-1.206-0.381-1.669-0.363l-0.344 0.019-0.037-0.219c-0.044-0.275-0.188-0.55-0.387-0.731l-0.156-0.144 0.137-0.412c0.081-0.262 0.219-0.512 0.381-0.694l0.244-0.281 0.6 0.044c0.325 0.019 0.819 0.094 1.094 0.156zM9.25 10.156c0.069 0.113 0.181 0.369 0.25 0.569l0.125 0.363-0.181 0.188c-0.387 0.4-0.488 0.988-0.256 1.531 0.131 0.294 0.131 0.3 0.006 0.581-0.619 1.45-0.606 3.631 0.031 5.2 0.081 0.206 0.15 0.381 0.15 0.394s-0.519 0.019-1.156 0.019h-1.15l-0.1-0.331c-0.525-1.813-0.5-3.769 0.069-5.525 0.325-1.006 1.063-2.344 1.681-3.069 0.256-0.294 0.3-0.287 0.531 0.081zM14.3 11.912c0.169 0.113 0.188 0.431 0.031 0.6-0.094 0.106-0.244 0.113-2.1 0.113-1.775 0-2.013-0.012-2.119-0.106-0.15-0.131-0.144-0.425 0.012-0.581 0.119-0.119 0.206-0.125 2.081-0.125 1.669 0 1.975 0.012 2.094 0.1zM14.206 13.631c0.188 0.1 0.231 0.175 0.231 0.412 0 0.387-0.050 0.394-2.231 0.394-1.875 0-1.963-0.006-2.081-0.125-0.181-0.181-0.162-0.463 0.037-0.619 0.162-0.125 0.238-0.131 2.037-0.131 1.287 0 1.912 0.025 2.006 0.069zM13.125 15.469c0 0.238-0.15 0.756-0.238 0.825-0.063 0.050-0.313 0.081-0.681 0.081-0.531 0-0.588-0.012-0.669-0.144-0.069-0.106-0.225-0.681-0.225-0.825 0-0.019 0.406-0.031 0.906-0.031 0.75 0 0.906 0.012 0.906 0.094zM12 21.406v1.469l-8.031-0.031-0.019-1.456-0.013-1.45h8.063v1.469z"></path>
            <path
                d="M21.144 10.544c-0.163 0.031-0.394 0.3-0.394 0.456 0 0.063 0.056 0.181 0.131 0.275 0.125 0.162 0.137 0.162 0.931 0.162s0.806 0 0.931-0.162c0.169-0.219 0.163-0.356-0.019-0.569-0.144-0.162-0.175-0.169-0.794-0.181-0.356-0.006-0.712 0-0.788 0.019z"></path>
            <path
                d="M23.831 10.544c-0.163 0.031-0.394 0.3-0.394 0.456 0 0.063 0.056 0.181 0.131 0.275l0.125 0.162h1.675c1.6 0 1.681-0.006 1.788-0.125 0.156-0.175 0.144-0.475-0.025-0.644-0.131-0.131-0.181-0.137-1.65-0.144-0.831-0.006-1.575 0-1.65 0.019z"></path>
            <path
                d="M4.919 21.006c-0.287 0.169-0.256 0.656 0.056 0.8 0.088 0.038 0.463 0.069 0.844 0.069 0.644 0 0.694-0.006 0.838-0.156 0.2-0.194 0.206-0.462 0.013-0.644-0.131-0.125-0.213-0.137-0.894-0.137-0.406 0-0.794 0.031-0.856 0.069z"></path>
            <path
                d="M7.556 21.050c-0.206 0.169-0.188 0.488 0.031 0.681l0.175 0.15 1.619-0.019c1.775-0.019 1.769-0.019 1.844-0.406 0.031-0.163 0.006-0.231-0.119-0.356l-0.162-0.163h-1.619c-1.487 0-1.638 0.012-1.769 0.113z"></path>
        </symbol>
        <symbol id="icon-icon3" viewBox="0 0 32 32">
            <path
                d="M16.15 0.119c-0.681 0.113-0.838 0.369-0.838 1.369v0.681l-0.356 0.138-0.35 0.138-0.544-0.538c-0.537-0.525-0.55-0.531-0.856-0.531-0.381 0-0.588 0.137-1.256 0.831-0.813 0.844-0.819 1.106-0.044 1.913l0.512 0.537-0.131 0.325-0.131 0.331h-0.656c-0.981 0.006-1.287 0.175-1.369 0.781l-0.037 0.25-3.5 0.031c-1.925 0.019-3.513 0.044-3.531 0.050-0.15 0.075-2.913 2.906-2.975 3.056-0.075 0.169-0.087 1.356-0.087 7.175 0 6.719 0.006 6.981 0.119 7.206 0.144 0.288 0.287 0.419 0.588 0.544 0.194 0.081 0.725 0.094 3.763 0.094h3.531v0.337c0 0.294 0.025 0.356 0.162 0.469 0.387 0.306 0.775 0 0.775-0.594v-0.212h0.631c0.6 0 0.631 0.006 0.669 0.137 0.019 0.081 0.15 0.369 0.287 0.644 0.356 0.712 1.063 1.413 1.787 1.762 1.238 0.606 2.488 0.6 3.738-0.012 1.8-0.894 2.688-3.038 2.044-4.95-0.462-1.381-1.619-2.431-3-2.738l-0.469-0.106v-1.169c0-1.056-0.012-1.188-0.113-1.275-0.169-0.15-0.531-0.137-0.675 0.025-0.106 0.119-0.119 0.256-0.137 1.275l-0.019 1.15-0.344 0.069c-0.787 0.163-1.406 0.5-2.044 1.119-0.738 0.706-1.144 1.569-1.219 2.569l-0.044 0.531h-9.063l-0.019-6.844-0.012-6.844 2.531-2.531h6.588l0.037 0.231c0.056 0.375 0.231 0.663 0.469 0.781 0.169 0.088 0.375 0.113 0.906 0.113h0.688l0.125 0.331 0.131 0.325-0.481 0.506c-0.819 0.869-0.8 1.144 0.137 2.081 0.675 0.681 0.981 0.831 1.369 0.675l0.244-0.094 0.019 1.425c0.019 1.3 0.031 1.438 0.137 1.556 0.081 0.088 0.194 0.131 0.356 0.131 0.425 0 0.431-0.025 0.431-2.137 0-1.088 0.025-1.863 0.056-1.863s0.188 0.056 0.344 0.125l0.287 0.119v0.675c0 0.781 0.088 1.031 0.438 1.238 0.194 0.113 0.325 0.125 1.125 0.125 0.794 0 0.931-0.012 1.119-0.125 0.356-0.213 0.444-0.456 0.444-1.25v-0.688l0.331-0.125 0.325-0.131 0.538 0.512c0.813 0.769 1.119 0.756 1.956-0.075 0.65-0.65 0.788-0.856 0.788-1.231 0-0.306-0.006-0.319-0.531-0.85l-0.531-0.544 0.144-0.356 0.137-0.356h0.675c0.994 0 1.281-0.169 1.356-0.806l0.031-0.287 0.394-0.031c0.45-0.037 0.575-0.138 0.575-0.475 0-0.294-0.238-0.463-0.656-0.463h-0.325l-0.038-0.287c-0.063-0.569-0.425-0.775-1.375-0.775h-0.65l-0.131-0.331-0.125-0.325 0.456-0.469c0.538-0.55 0.594-0.65 0.594-1.019 0-0.319-0.206-0.625-0.819-1.206-0.55-0.519-0.669-0.588-0.988-0.588-0.344 0-0.456 0.069-1.038 0.625l-0.438 0.425-0.325-0.125-0.331-0.131v-0.663c0-0.806-0.113-1.113-0.456-1.275-0.256-0.125-1.337-0.188-1.831-0.113zM17.306 1.038l0.194 0.038v0.706c0 0.906 0.069 1.031 0.781 1.338 0.925 0.394 1.169 0.35 1.875-0.362 0.206-0.212 0.4-0.381 0.444-0.381 0.038 0 0.244 0.181 0.462 0.413l0.394 0.406-0.55 0.556-0.544 0.556 0.025 0.331c0.044 0.487 0.406 1.294 0.669 1.469 0.188 0.131 0.288 0.144 0.913 0.144 0.813 0 0.781-0.025 0.781 0.669 0 0.6 0.019 0.581-0.731 0.581-0.706 0-1 0.088-1.156 0.331-0.188 0.294-0.488 1.119-0.488 1.325 0 0.313 0.075 0.431 0.6 0.969l0.462 0.469-0.875 0.875-0.519-0.519c-0.663-0.656-0.794-0.694-1.556-0.381-0.625 0.25-0.781 0.344-0.881 0.519-0.044 0.075-0.087 0.469-0.106 0.881l-0.031 0.75-1.219 0.037v-0.706c0-0.981-0.050-1.063-0.819-1.406-0.381-0.169-0.688-0.262-0.863-0.262-0.262-0.006-0.294 0.019-0.831 0.537l-0.55 0.544-0.875-0.863 0.431-0.444c0.231-0.238 0.475-0.506 0.531-0.594 0.15-0.225 0.125-0.556-0.094-1.069-0.394-0.95-0.387-0.95-1.4-0.994l-0.75-0.031v-1.188l0.762-0.031c0.637-0.025 0.787-0.050 0.931-0.162 0.231-0.169 0.644-1.144 0.65-1.519 0-0.263-0.025-0.3-0.544-0.831l-0.544-0.55 0.863-0.875 0.506 0.5c0.281 0.269 0.581 0.513 0.675 0.531 0.269 0.069 0.6 0 1.137-0.225 0.712-0.306 0.781-0.425 0.781-1.344 0-0.619 0.012-0.706 0.113-0.731 0.169-0.044 0.725-0.050 0.944-0.006zM14.969 20.275c1.481 0.394 2.494 1.794 2.381 3.288-0.144 1.988-1.988 3.356-3.9 2.906-1.469-0.35-2.45-1.581-2.45-3.087 0-1.425 0.838-2.594 2.188-3.050 0.475-0.163 1.287-0.194 1.781-0.056z"></path>
            <path
                d="M16.219 3.638c-0.875 0.163-1.869 0.919-2.275 1.725-0.912 1.806-0.050 3.975 1.844 4.644 1.531 0.544 3.306-0.188 4.025-1.656 0.431-0.875 0.481-1.869 0.131-2.681-0.2-0.463-0.663-0.537-0.875-0.156-0.081 0.144-0.081 0.206 0.031 0.556 0.369 1.219-0.119 2.406-1.212 2.944-0.381 0.188-0.462 0.206-1.012 0.206-0.512 0-0.644-0.025-0.95-0.169-1.106-0.519-1.656-1.713-1.306-2.838 0.381-1.244 1.594-1.931 2.838-1.619 0.506 0.125 0.7 0.094 0.825-0.15 0.137-0.269 0.025-0.531-0.275-0.65-0.525-0.212-1.188-0.269-1.788-0.156z"></path>
            <path
                d="M16.35 5.531c-0.531 0.188-0.906 0.744-0.912 1.35-0.006 1.269 1.506 1.912 2.431 1.037 0.594-0.563 0.6-1.456 0.019-2.037-0.431-0.425-0.975-0.55-1.538-0.35zM17.219 6.531c0.313 0.306 0.106 0.844-0.331 0.844-0.3 0-0.512-0.2-0.512-0.481 0-0.275 0.231-0.519 0.5-0.519 0.119 0 0.25 0.056 0.344 0.156z"></path>
            <path
                d="M14.775 22.881l-0.838 0.831-0.581-0.569c-0.325-0.325-0.656-0.594-0.756-0.619-0.256-0.063-0.5 0.137-0.525 0.438-0.019 0.219 0.019 0.269 0.738 1 0.831 0.85 1.019 0.969 1.3 0.856 0.269-0.113 2.119-2 2.175-2.212 0.063-0.262-0.137-0.506-0.438-0.531-0.231-0.019-0.269 0.012-1.075 0.806z"></path>
            <path
                d="M25.469 6.763c-0.288 0.156-0.356 0.419-0.194 0.725 0.050 0.094 0.106 0.269 0.131 0.394 0.019 0.125 0.087 0.275 0.156 0.338 0.163 0.144 0.462 0.144 0.625 0 0.313-0.281 0.038-1.319-0.394-1.463-0.1-0.037-0.188-0.069-0.194-0.069s-0.063 0.037-0.131 0.075z"></path>
            <path
                d="M25.525 9.131c-0.1 0.106-0.119 0.231-0.119 0.688 0 0.488 0.019 0.569 0.137 0.688 0.169 0.169 0.469 0.181 0.644 0.025 0.106-0.1 0.125-0.194 0.125-0.7 0-0.5-0.019-0.6-0.125-0.706-0.169-0.169-0.506-0.162-0.663 0.006z"></path>
            <path
                d="M3.788 10.881c-0.206 0.162-0.225 0.494-0.038 0.681 0.125 0.125 0.206 0.125 3.537 0.125 2.281 0 3.45-0.025 3.531-0.069 0.3-0.156 0.275-0.656-0.044-0.8-0.113-0.050-1.144-0.069-3.487-0.069-3.275 0-3.337 0-3.5 0.131z"></path>
            <path
                d="M25.525 11.444c-0.1 0.106-0.119 0.231-0.119 0.688 0 0.488 0.019 0.569 0.137 0.688 0.169 0.169 0.469 0.181 0.644 0.025 0.106-0.1 0.125-0.194 0.125-0.7 0-0.5-0.019-0.6-0.125-0.706-0.169-0.169-0.506-0.162-0.663 0.006z"></path>
            <path
                d="M3.75 13.188c-0.156 0.156-0.163 0.444-0.006 0.631l0.119 0.15h6.9l0.15-0.175c0.181-0.213 0.188-0.35 0.019-0.569l-0.125-0.162h-3.469c-3.381 0-3.462 0-3.587 0.125z"></path>
            <path
                d="M25.525 13.756c-0.1 0.113-0.119 0.231-0.119 0.75v0.619h-2.55c-2.8 0-2.819 0-3.012 0.375-0.144 0.281-0.137 3.938 0.006 4.188 0.225 0.375 0.206 0.375 2.988 0.375h2.538v0.938h-2.469c-2.738 0-2.8 0.006-3.031 0.387-0.119 0.194-0.125 0.313-0.125 2.113 0 2.087 0.006 2.113 0.369 2.356 0.212 0.144 0.212 0.144 2.731 0.144h2.525v0.938h-2.525c-2.519 0-2.519 0-2.731 0.144-0.319 0.212-0.369 0.369-0.369 1.144v0.688l-0.188 0.137c-0.156 0.119-0.188 0.188-0.188 0.394 0 0.212 0.025 0.262 0.188 0.356l0.188 0.106v0.719c0 0.613 0.019 0.75 0.125 0.925 0.25 0.4 0.006 0.387 6 0.387s5.75 0.012 6-0.387c0.119-0.194 0.125-0.313 0.125-2.1 0-2.094-0.012-2.156-0.394-2.387-0.188-0.119-0.331-0.125-2.744-0.125h-2.55v-0.938h0.706c0.625 0 0.725-0.012 0.844-0.125 0.087-0.087 0.137-0.206 0.137-0.344s-0.050-0.256-0.137-0.344c-0.131-0.125-0.2-0.125-3.656-0.125h-3.519v-3.125h10.375v3.125h-0.738c-0.656 0-0.756 0.012-0.875 0.125-0.188 0.175-0.188 0.512 0 0.688 0.125 0.113 0.219 0.125 1.044 0.125 0.794 0 0.938-0.019 1.113-0.125 0.381-0.231 0.394-0.294 0.394-2.394 0-1.875 0-1.9-0.144-2.113-0.081-0.119-0.238-0.244-0.356-0.288-0.156-0.050-0.95-0.075-2.706-0.075l-2.488-0.006 0.019-0.456 0.019-0.45 5.219-0.063 0.2-0.206 0.206-0.2 0.019-1.938c0.012-1.706 0.006-1.963-0.087-2.162-0.194-0.4-0.175-0.4-3.025-0.4h-2.563v-0.625c0-0.544-0.019-0.644-0.125-0.75-0.169-0.169-0.506-0.162-0.663 0.006zM31.063 17.594v1.531h-10.375v-3.063h10.375v1.531zM31.063 29.438v1.563h-10.375v-3.125h10.375v1.563z"></path>
            <path
                d="M22.169 17.2c-0.262 0.206-0.231 0.663 0.056 0.794 0.113 0.050 1.175 0.069 3.675 0.069 3.469 0 3.525 0 3.688-0.131 0.212-0.169 0.225-0.494 0.025-0.681-0.131-0.125-0.2-0.125-3.738-0.125-2.781 0-3.625 0.019-3.706 0.075z"></path>
            <path
                d="M22.281 28.994c-0.306 0.125-0.4 0.519-0.188 0.756 0.113 0.125 0.188 0.125 3.762 0.125 3.563 0 3.644 0 3.769-0.125 0.169-0.169 0.163-0.506-0.006-0.663-0.125-0.113-0.288-0.119-3.675-0.131-1.944-0.006-3.594 0.012-3.663 0.038z"></path>
            <path
                d="M3.75 15.438c-0.188 0.188-0.169 0.519 0.038 0.681 0.163 0.131 0.225 0.131 3.5 0.131 2.344 0 3.375-0.019 3.487-0.069 0.319-0.144 0.344-0.644 0.044-0.8-0.081-0.044-1.25-0.069-3.531-0.069-3.331 0-3.413 0-3.538 0.125z"></path>
            <path
                d="M3.788 17.694c-0.206 0.163-0.225 0.494-0.038 0.681 0.125 0.125 0.206 0.125 3.537 0.125 2.281 0 3.45-0.025 3.531-0.069 0.3-0.156 0.275-0.656-0.044-0.8-0.113-0.050-1.144-0.069-3.487-0.069-3.275 0-3.337 0-3.5 0.131z"></path>
            <path
                d="M3.75 20c-0.156 0.156-0.163 0.444-0.006 0.631l0.119 0.15h3.337l0.119-0.15c0.156-0.188 0.15-0.475-0.006-0.631-0.119-0.119-0.206-0.125-1.781-0.125s-1.663 0.006-1.781 0.125z"></path>
            <path
                d="M22.119 23.175c-0.188 0.156-0.188 0.469 0 0.656l0.137 0.137h3.613c3.469 0 3.625-0.006 3.75-0.119 0.169-0.156 0.175-0.494 0.006-0.663-0.125-0.125-0.206-0.125-3.744-0.125-3.425 0-3.625 0.006-3.762 0.113z"></path>
            <path
                d="M8.125 26.188c-0.106 0.106-0.125 0.206-0.125 0.712 0 0.563 0.006 0.6 0.162 0.719 0.194 0.15 0.269 0.163 0.488 0.063 0.194-0.087 0.287-0.344 0.287-0.775 0-0.394-0.1-0.7-0.25-0.781-0.188-0.1-0.425-0.075-0.563 0.063z"></path>
            <path
                d="M8.188 28.5c-0.244 0.244-0.125 0.694 0.281 1.050 0.387 0.344 0.794 0.337 0.956-0.006 0.113-0.231 0.012-0.481-0.238-0.631-0.106-0.056-0.231-0.188-0.281-0.281-0.144-0.288-0.5-0.35-0.719-0.131z"></path>
            <path
                d="M10.438 28.981c-0.213 0.081-0.313 0.231-0.313 0.462 0 0.35 0.156 0.431 0.813 0.431s0.813-0.081 0.813-0.431c0-0.369-0.162-0.469-0.744-0.488-0.262-0.006-0.519 0-0.569 0.025z"></path>
            <path
                d="M12.75 28.981c-0.213 0.081-0.313 0.231-0.313 0.462 0 0.35 0.156 0.431 0.813 0.431s0.813-0.081 0.813-0.431c0-0.369-0.162-0.469-0.744-0.488-0.262-0.006-0.519 0-0.569 0.025z"></path>
            <path
                d="M15.063 28.981c-0.213 0.081-0.313 0.231-0.313 0.462 0 0.35 0.156 0.431 0.813 0.431s0.813-0.081 0.813-0.431c0-0.369-0.163-0.469-0.744-0.488-0.262-0.006-0.519 0-0.569 0.025z"></path>
            <path
                d="M17.375 28.981c-0.212 0.081-0.313 0.231-0.313 0.462 0 0.35 0.156 0.431 0.813 0.431s0.813-0.081 0.813-0.431c0-0.369-0.163-0.469-0.744-0.488-0.262-0.006-0.519 0-0.569 0.025z"></path>
        </symbol>
        <symbol id="icon-icon4" viewBox="0 0 32 32">
            <path
                d="M7.775 0.063c-0.069 0.025-0.206 0.138-0.294 0.25l-0.169 0.2v14.425h-0.95c-0.794 0-1 0.025-1.212 0.119-0.438 0.2-0.713 0.7-0.625 1.15 0.019 0.119 0.231 0.55 0.469 0.956 0.231 0.406 0.456 0.806 0.494 0.881 0.069 0.125 0.056 0.144-0.2 0.262-0.181 0.081-0.338 0.212-0.456 0.387-0.156 0.238-0.175 0.325-0.194 0.925-0.019 0.519 0 0.725 0.075 0.913 0.063 0.137 0.081 0.256 0.044 0.269-0.269 0.087-1.313 0.831-1.756 1.25-0.65 0.606-1.081 1.169-1.425 1.856-0.469 0.95-0.637 1.65-0.644 2.663-0.006 1.050 0.175 1.825 0.631 2.744 0.469 0.931 1.45 2.050 2.188 2.488l0.281 0.169 13.206 0.019c12.15 0.013 13.225 0.006 13.425-0.087 0.462-0.219 0.431 0.269 0.431-7.106v-6.619l-0.15-0.119c-0.188-0.156-0.475-0.15-0.631 0.006-0.125 0.125-0.125 0.206-0.125 6.563v6.438h-17.881l0.356-0.413c0.438-0.519 0.731-0.981 1.006-1.569 0.213-0.456 0.456-1.288 0.456-1.55 0-0.212-0.225-0.406-0.469-0.406-0.294 0-0.4 0.137-0.537 0.7-0.262 1.025-1.006 2.188-1.856 2.887l-0.431 0.35h-3.231c-2.3 0-3.275-0.019-3.369-0.069-0.294-0.156-0.931-0.775-1.288-1.25-0.744-0.981-1.081-1.975-1.075-3.175 0.006-2.075 1.256-3.894 3.406-4.95l0.631-0.306h3.313l0.637 0.313c1.656 0.813 2.756 2.069 3.244 3.7 0.113 0.375 0.231 0.488 0.5 0.488 0.256 0 0.463-0.181 0.463-0.413 0-0.219-0.269-1.012-0.506-1.481-0.588-1.163-1.675-2.275-2.862-2.925-0.281-0.156-0.375-0.238-0.344-0.306 0.106-0.244 0.162-0.762 0.131-1.2-0.044-0.619-0.213-0.95-0.606-1.156-0.156-0.081-0.281-0.169-0.281-0.194s0.225-0.438 0.5-0.919c0.444-0.775 0.494-0.9 0.494-1.194 0-0.419-0.219-0.769-0.6-0.956-0.231-0.113-0.394-0.131-1.006-0.131h-0.731v-14h21.938v7.737c0 7.681 0 7.744 0.125 7.856 0.175 0.156 0.475 0.144 0.644-0.025l0.137-0.137v-7.887c0-7.319-0.006-7.9-0.106-8.081-0.238-0.431 0.681-0.4-11.813-0.394-6.194 0-11.325 0.025-11.4 0.056zM9.619 15.956c0.050 0.063-0.081 0.337-0.544 1.156l-0.606 1.069-0.906 0.006h-0.906l-0.606-1.063c-0.369-0.631-0.594-1.094-0.575-1.156 0.031-0.081 0.294-0.094 2.056-0.094 1.594 0 2.031 0.019 2.088 0.081zM9.5 19.244c0.1 0.2 0.081 0.919-0.037 1.031-0.081 0.087-0.344 0.1-1.925 0.1-1.337 0-1.844-0.019-1.9-0.075-0.075-0.075-0.106-0.894-0.037-1.075 0.031-0.087 0.263-0.1 1.938-0.1 1.813 0 1.9 0.006 1.963 0.119z"></path>
            <path
                d="M9.813 2.438c-0.188 0.188-0.169 0.519 0.037 0.681 0.162 0.131 0.231 0.131 2.875 0.131 1.85 0 2.756-0.025 2.856-0.069 0.156-0.069 0.294-0.294 0.294-0.469 0-0.050-0.069-0.163-0.156-0.244l-0.15-0.156h-2.819c-2.731 0-2.819 0.006-2.938 0.125z"></path>
            <path
                d="M25.106 2.381c-0.288 0.169-0.256 0.656 0.056 0.8 0.1 0.044 0.681 0.069 1.681 0.069 1.506 0 1.525 0 1.694-0.144 0.219-0.194 0.238-0.512 0.031-0.681-0.131-0.1-0.281-0.112-1.75-0.112-1 0-1.644 0.031-1.712 0.069z"></path>
            <path
                d="M25.050 4.125c-0.15 0.156-0.181 0.225-0.15 0.362 0.094 0.375 0.144 0.388 1.913 0.388 1.475 0 1.625-0.013 1.756-0.112 0.206-0.169 0.188-0.487-0.031-0.681-0.169-0.144-0.181-0.144-1.731-0.144h-1.569l-0.188 0.188z"></path>
            <path
                d="M19.969 4.825c-0.069 0.037-0.175 0.125-0.231 0.2-0.1 0.119-0.113 0.438-0.113 4.144v4.019h-0.806l-0.019-1.369c-0.019-1.244-0.031-1.381-0.137-1.5-0.156-0.169-0.538-0.181-0.681-0.019-0.094 0.1-0.106 0.3-0.106 1.5v1.387h-0.625v-6.125h0.625v0.8c0 0.913 0.044 1.013 0.45 1.013 0.387 0 0.45-0.144 0.481-1.044 0.025-1.013-0.019-1.306-0.244-1.531l-0.175-0.175h-1.712l-0.363 0.362v6.7h-0.875v-5.138l-0.175-0.175c-0.219-0.213-0.55-0.275-1.313-0.237-1.044 0.050-1.012-0.037-1.012 3.075v2.475h-0.813v-1.719c0-1.831-0.025-2-0.306-2.156-0.069-0.031-0.488-0.063-0.938-0.063-0.813 0-0.819 0-1.019 0.181l-0.206 0.181v4.15l0.206 0.181 0.2 0.181h18.263l0.425-0.425v-2.463c0-1.838-0.019-2.494-0.081-2.612-0.137-0.281-0.438-0.375-1.169-0.375s-1.031 0.094-1.169 0.375c-0.056 0.119-0.081 0.725-0.081 2.356v2.206h-0.813v-3.144c0-3.025-0.006-3.144-0.125-3.344-0.175-0.287-0.363-0.338-1.238-0.313l-0.775 0.019-0.181 0.206-0.181 0.2v6.375h-0.813v-3.925c0-3.606-0.006-3.938-0.113-4.138-0.056-0.119-0.175-0.25-0.262-0.294-0.2-0.1-1.606-0.106-1.781-0.006zM21.188 9.438v3.75h-0.625v-7.5h0.625v3.75zM24.5 10.25v2.938h-0.625v-5.875h0.625v2.938zM14.5 10.875v2.313h-0.625v-2.269c0-1.25 0.019-2.294 0.044-2.313 0.019-0.025 0.162-0.044 0.313-0.044h0.269v2.313zM27.813 11.188v2h-0.625v-4h0.625v2zM11.188 11.688v1.5h-0.625v-3h0.625v1.5z"></path>
            <path
                d="M22.875 16.531c-0.256 0.081-0.625 0.25-0.813 0.369-0.337 0.212-0.35 0.212-0.469 0.106-0.331-0.306-0.625-0.2-1.063 0.381-0.606 0.8-0.906 1.694-0.906 2.706 0 0.756 0.119 1.275 0.444 1.938 0.431 0.881 1.106 1.55 2.025 2.006 2.65 1.313 5.8-0.337 6.275-3.294 0.131-0.794 0.044-1.038-0.394-1.113-0.238-0.038-0.238-0.038-0.356-0.5-0.319-1.256-1.394-2.331-2.656-2.656-0.594-0.156-1.512-0.131-2.087 0.056zM24.956 17.456c0.469 0.169 0.956 0.512 1.225 0.85 0.238 0.294 0.569 0.988 0.569 1.175v0.144h-2.531l-0.887-0.887c-0.494-0.494-0.894-0.913-0.894-0.938 0-0.063 0.462-0.3 0.781-0.4 0.431-0.137 1.281-0.106 1.738 0.056zM22.563 19.281l1.288 1.281h1.794c2.063 0 1.906-0.063 1.65 0.644-0.206 0.569-0.444 0.944-0.85 1.35-1.125 1.125-2.956 1.319-4.313 0.45-0.681-0.438-1.269-1.256-1.475-2.050-0.119-0.462-0.119-1.269 0-1.731 0.094-0.356 0.506-1.225 0.581-1.225 0.025 0 0.619 0.575 1.325 1.281z"></path>
            <path
                d="M12.844 17.094c-0.162 0.156-0.181 0.219-0.119 0.456 0.088 0.313 0.181 0.325 3.119 0.325h2.725l0.15-0.156c0.2-0.194 0.206-0.462 0.012-0.644-0.144-0.137-0.156-0.137-2.944-0.137h-2.794l-0.15 0.156z"></path>
            <path
                d="M12.819 18.913c-0.169 0.219-0.162 0.356 0.019 0.569l0.15 0.175 2.619 0.019c1.438 0.012 2.706 0 2.819-0.019 0.413-0.075 0.594-0.512 0.325-0.781-0.119-0.119-0.206-0.125-2.963-0.125h-2.844l-0.125 0.163z"></path>
            <path
                d="M13.75 20.544c-0.325 0.119-0.425 0.531-0.188 0.769 0.119 0.119 0.206 0.125 2.581 0.125h2.462l0.131-0.144c0.169-0.181 0.175-0.419 0.019-0.613l-0.119-0.15-2.4-0.012c-1.313-0.006-2.438 0.006-2.488 0.025z"></path>
            <path
                d="M15.037 22.444c-0.213 0.169-0.225 0.481-0.019 0.669 0.144 0.131 0.188 0.137 1.838 0.137 1.613 0 1.694-0.006 1.856-0.131 0.212-0.169 0.219-0.444 0.006-0.65l-0.15-0.156h-1.681c-1.606 0-1.688 0.006-1.85 0.131z"></path>
            <path
                d="M7.294 22.637c-0.138 0.106-0.231 0.381-0.231 0.681 0 0.225-0.013 0.244-0.175 0.244-0.281 0-0.819 0.306-1.013 0.575-0.531 0.731-0.294 1.738 0.506 2.137 0.306 0.15 0.394 0.163 1.094 0.163 0.713 0 0.781 0.012 0.938 0.144 0.219 0.194 0.231 0.481 0.025 0.7-0.144 0.156-0.156 0.156-1.25 0.156-1.025 0-1.119 0.012-1.275 0.131-0.213 0.169-0.225 0.481-0.019 0.669 0.125 0.119 0.219 0.137 0.656 0.137h0.513v0.244c0 0.5 0.181 0.756 0.525 0.756 0.281 0 0.412-0.2 0.412-0.625v-0.375h0.206c0.294 0 0.819-0.281 1.019-0.544 0.469-0.619 0.381-1.431-0.219-1.975-0.319-0.288-0.575-0.356-1.394-0.356-0.744 0-0.944-0.063-1.050-0.319-0.088-0.206-0.037-0.387 0.144-0.556 0.119-0.113 0.225-0.125 1.244-0.125 1.106 0 1.119 0 1.269-0.156 0.213-0.206 0.206-0.481-0.006-0.65-0.137-0.106-0.256-0.131-0.688-0.131h-0.525v-0.375c0-0.3-0.025-0.394-0.138-0.5-0.156-0.144-0.412-0.163-0.569-0.050z"></path>
            <path
                d="M16.219 26.244c-0.519 0.238-0.838 0.731-0.844 1.306 0 0.581 0.3 1.050 0.844 1.3l0.313 0.15 5.344-0.006c5.756 0 5.581 0.012 6.025-0.331 0.663-0.5 0.675-1.65 0.025-2.194-0.425-0.356-0.163-0.344-6.031-0.344-5.131 0-5.438 0.006-5.675 0.119zM23.625 27.563v0.5h-7.006l-0.15-0.156c-0.2-0.194-0.206-0.5-0.019-0.7l0.131-0.144h7.044v0.5zM27.306 27.169c0.069 0.063 0.15 0.2 0.169 0.313 0.031 0.169 0.006 0.231-0.15 0.394l-0.188 0.188h-2.575v-1h1.306c1.15 0 1.319 0.012 1.438 0.106z"></path>
        </symbol>
        <symbol id="icon-icon5" viewBox="0 0 32 32">
            <path
                d="M2.237 4.063c-0.288 0.088-0.531 0.3-0.669 0.581-0.131 0.269-0.131 0.294-0.131 8.119v7.85l-0.5 0.025c-0.469 0.019-0.512 0.031-0.7 0.225l-0.206 0.2v3.188l0.206 0.2c0.188 0.194 0.231 0.206 0.7 0.225l0.5 0.025v1.313c0 1.438 0.038 1.619 0.363 1.844 0.156 0.106 0.406 0.113 3.956 0.113 3.644 0 3.8-0.006 3.925-0.119 0.088-0.081 0.131-0.194 0.131-0.356 0-0.45 0.162-0.431-3.856-0.431h-3.581v-2.369l4.813-0.038 0.2-0.2c0.181-0.188 0.206-0.25 0.225-0.644 0.025-0.381 0.044-0.438 0.131-0.4 1.337 0.55 2.462 0.738 3.631 0.594 0.738-0.094 0.906-0.212 0.856-0.6-0.044-0.356-1.044-3.219-1.169-3.344-0.069-0.069-0.262-0.119-0.563-0.15-0.262-0.025-0.619-0.106-0.838-0.2-0.544-0.231-0.669-0.244-0.869-0.087-0.219 0.175-0.231 0.481-0.025 0.675 0.194 0.181 0.863 0.45 1.231 0.494 0.169 0.019 0.331 0.056 0.369 0.075 0.037 0.025 0.231 0.531 0.431 1.125 0.294 0.869 0.35 1.087 0.275 1.113-0.169 0.069-1.363-0.044-1.856-0.175-0.275-0.069-0.744-0.244-1.044-0.381l-0.537-0.25-0.025-0.619c-0.019-0.6-0.025-0.619-0.225-0.819-0.2-0.206-0.213-0.206-0.869-0.225-0.756-0.025-0.7 0.006-1.050-0.65-0.463-0.875-0.656-1.675-0.656-2.725 0-0.4 0.044-0.931 0.094-1.169 0.1-0.481 0.344-1.219 0.4-1.219 0.025 0 0.425 0.387 0.894 0.856l0.85 0.863 0.025 0.75c0.019 0.587 0.056 0.813 0.156 1.044 0.156 0.337 0.375 0.444 0.631 0.294 0.262-0.15 0.294-0.25 0.2-0.731-0.056-0.3-0.069-0.644-0.037-1.056l0.037-0.613-1.338-1.338c-1.156-1.15-1.369-1.338-1.531-1.338-0.256 0-0.356 0.094-0.612 0.606-0.494 0.975-0.706 1.906-0.706 3.063 0 1.119 0.194 1.994 0.65 2.931l0.2 0.419h-2.35v-12.875h28.688v19.313h-9.831c-10.969 0-10.106-0.038-10.106 0.431 0 0.163 0.044 0.275 0.131 0.356 0.131 0.119 0.387 0.119 10.175 0.119 9.856 0 10.044 0 10.219-0.125 0.369-0.25 0.35 0.462 0.35-11.731 0-10.875-0.006-11.213-0.119-11.469-0.075-0.162-0.219-0.325-0.387-0.438l-0.269-0.175h-1.731c-1.613 0-1.738 0.006-1.863 0.119-0.087 0.081-0.131 0.194-0.131 0.356 0 0.419 0.056 0.431 1.819 0.431 0.85 0 1.587 0.019 1.644 0.037 0.087 0.031 0.1 0.175 0.1 0.938v0.9h-23.688v-1.875h9.269c10.344 0 9.544 0.037 9.544-0.431 0-0.162-0.044-0.275-0.131-0.356-0.131-0.119-0.425-0.119-11.894-0.131-6.463-0.006-11.831 0.013-11.925 0.044zM6.375 5.875v0.938h-4v-0.862c0-0.588 0.025-0.888 0.075-0.938 0.056-0.056 0.587-0.075 2-0.075h1.925v0.938zM6.688 22.656v1.094h-5.75v-2.188h5.75v1.094z"></path>
            <path
                d="M1.575 22.231c-0.044 0.019-0.119 0.113-0.175 0.219-0.081 0.156-0.081 0.219-0.019 0.369 0.038 0.106 0.125 0.212 0.188 0.244 0.063 0.038 0.6 0.063 1.194 0.063 1.013 0 1.1-0.006 1.225-0.125 0.188-0.175 0.188-0.512 0-0.688-0.125-0.119-0.212-0.125-1.231-0.119-0.606 0-1.137 0.019-1.181 0.038z"></path>
            <path
                d="M4.638 22.331c-0.181 0.194-0.181 0.481 0.006 0.656 0.131 0.119 0.213 0.137 0.737 0.137 0.625-0.006 0.763-0.050 0.856-0.319 0.069-0.175-0.006-0.413-0.162-0.531-0.069-0.056-0.313-0.081-0.706-0.087-0.544 0-0.606 0.012-0.731 0.144z"></path>
            <path
                d="M4.219 9.419c-0.225 0.056-0.344 0.213-0.344 0.456 0 0.425 0.044 0.438 1.638 0.438 1.281 0 1.413-0.012 1.506-0.113 0.15-0.169 0.138-0.531-0.025-0.675-0.119-0.106-0.25-0.119-1.394-0.131-0.688-0.006-1.313 0.006-1.381 0.025z"></path>
            <path
                d="M13.213 9.438c-0.1 0.031-0.256 0.131-0.344 0.225-0.125 0.137-0.15 0.231-0.169 0.65l-0.025 0.481-0.45-0.113c-0.606-0.162-0.856-0.156-1.025 0.025-0.137 0.144-0.137 0.188-0.137 1.912 0 1.037 0.025 1.813 0.063 1.881 0.031 0.063 0.294 0.225 0.581 0.369 0.644 0.313 1.137 0.8 1.356 1.356 0.256 0.663 0.113 0.619 2.188 0.619 1.787 0 1.812 0 1.95-0.137 0.175-0.175 0.169-0.4-0.019-1.162-0.087-0.369-0.275-0.838-0.525-1.338l-0.387-0.762 4.169-0.037 0.2-0.206 0.206-0.2 0.019-1.463c0.019-1.613-0.012-1.8-0.337-2.019-0.163-0.106-0.4-0.113-3.65-0.125-1.931-0.006-3.556 0.012-3.662 0.044zM19.925 11.419l0.012 1.081h-6.313v-2.188l6.281 0.031 0.019 1.075zM12.688 12.381c0.050 0.988 0.15 1.056 1.463 1.056h0.906l0.25 0.325c0.344 0.469 0.606 0.956 0.819 1.544 0.106 0.281 0.188 0.537 0.188 0.569 0 0.037-0.45 0.063-1.156 0.063h-1.162l-0.106-0.194c-0.381-0.7-0.887-1.238-1.481-1.588l-0.406-0.238v-2.35l0.331 0.113 0.325 0.113 0.031 0.588z"></path>
            <path
                d="M14.219 11.088c-0.2 0.2-0.206 0.469-0.012 0.65 0.131 0.125 0.213 0.137 0.806 0.137 0.644 0 0.669-0.006 0.794-0.162 0.162-0.206 0.169-0.406 0.012-0.594-0.113-0.137-0.175-0.15-0.781-0.169-0.631-0.025-0.662-0.019-0.819 0.137z"></path>
            <path
                d="M16.419 11.063c-0.212 0.169-0.231 0.5-0.044 0.688 0.119 0.119 0.206 0.125 1.494 0.125h1.375l0.125-0.162c0.163-0.206 0.169-0.406 0.012-0.594-0.119-0.15-0.137-0.15-1.456-0.169-1.281-0.019-1.344-0.012-1.506 0.113z"></path>
            <path
                d="M22.844 9.419c-0.225 0.056-0.344 0.213-0.344 0.456 0 0.425 0.044 0.438 1.637 0.438 1.281 0 1.413-0.012 1.506-0.113 0.15-0.169 0.137-0.531-0.025-0.675-0.119-0.106-0.25-0.119-1.394-0.131-0.688-0.006-1.313 0.006-1.381 0.025z"></path>
            <path
                d="M26.837 9.419c-0.331 0.069-0.469 0.519-0.244 0.769 0.106 0.119 0.188 0.125 1.512 0.125 1.313 0 1.4-0.006 1.519-0.125 0.156-0.156 0.163-0.444 0.006-0.631-0.119-0.15-0.137-0.15-1.394-0.156-0.694-0.006-1.331 0-1.4 0.019z"></path>
            <path
                d="M8.85 10.725c-0.969 0.262-2.037 0.844-2.719 1.481-0.213 0.194-0.256 0.275-0.256 0.469 0 0.219 0.075 0.306 1.237 1.463 1.394 1.394 1.4 1.394 1.888 1.044 0.15-0.113 0.431-0.269 0.619-0.35 0.613-0.269 0.569-0.1 0.569-2.188 0-1.75-0.006-1.838-0.125-1.956-0.169-0.169-0.506-0.156-1.213 0.037zM9.225 13.906c-0.012 0.031-0.156 0.131-0.319 0.213l-0.287 0.15-0.781-0.775c-0.425-0.425-0.775-0.794-0.775-0.819 0-0.137 1.075-0.725 1.738-0.95l0.419-0.144 0.019 1.131c0.006 0.619 0.006 1.156-0.012 1.194z"></path>
            <path
                d="M22.475 12.95c-0.363 0.1-0.75 0.519-0.837 0.9-0.044 0.169-0.069 0.35-0.056 0.406 0.006 0.069-0.256 0.313-0.725 0.675l-0.738 0.575-0.356-0.075c-0.45-0.094-0.738-0.044-1.056 0.188-1.119 0.806-0.25 2.562 1.075 2.194 0.525-0.15 0.962-0.775 0.894-1.294l-0.031-0.238 0.712-0.55 0.712-0.556 0.25 0.1c0.281 0.113 0.719 0.131 0.962 0.037 0.156-0.056 0.238-0.019 0.938 0.481l0.762 0.55 0.031 0.294c0.063 0.587 0.519 1.031 1.125 1.094 0.281 0.025 0.381 0.006 0.675-0.15 0.275-0.144 0.375-0.244 0.519-0.519 0.15-0.288 0.175-0.394 0.15-0.663l-0.031-0.319 0.356-0.356 0.363-0.356 0.438-0.012c0.369-0.012 0.475-0.037 0.694-0.194 0.331-0.225 0.512-0.594 0.512-1.044-0.006-1.281-1.738-1.681-2.325-0.531-0.131 0.262-0.163 0.825-0.056 1.025 0.050 0.1 0.006 0.169-0.275 0.45-0.319 0.319-0.337 0.325-0.538 0.256-0.3-0.106-0.613-0.081-0.906 0.063-0.169 0.075-0.306 0.106-0.356 0.075-0.050-0.025-0.356-0.244-0.688-0.488l-0.606-0.431v-0.381c0-0.313-0.031-0.431-0.181-0.675-0.3-0.463-0.869-0.681-1.406-0.531zM23.075 13.963c0.075 0.106 0.056 0.319-0.025 0.4-0.119 0.119-0.344 0.088-0.45-0.063-0.131-0.181-0.125-0.213 0.031-0.369 0.131-0.131 0.35-0.119 0.444 0.031zM28.756 13.875c0.137 0.075 0.163 0.369 0.044 0.488s-0.344 0.088-0.45-0.056c-0.1-0.144-0.075-0.294 0.075-0.419 0.119-0.094 0.175-0.094 0.331-0.012zM26.45 16.294c0.137 0.125 0.144 0.256 0.006 0.406-0.125 0.137-0.288 0.144-0.419 0.012-0.188-0.181-0.056-0.525 0.194-0.525 0.056 0 0.156 0.044 0.219 0.106zM19.637 16.419c0.137 0.125 0.144 0.256 0.006 0.406-0.125 0.137-0.288 0.144-0.419 0.012-0.188-0.181-0.056-0.525 0.194-0.525 0.056 0 0.156 0.044 0.219 0.106z"></path>
            <path
                d="M13.369 17.769c-0.056 0.044-0.2 0.294-0.325 0.569-0.175 0.375-0.325 0.581-0.637 0.875-0.331 0.319-0.406 0.431-0.406 0.587 0 0.144 0.844 2.731 1.094 3.337 0.075 0.181 0.375 0.262 0.613 0.169 0.431-0.181 1.287-0.819 1.781-1.331 0.938-0.981 1.525-2.081 1.794-3.375 0.1-0.506 0.075-0.663-0.15-0.831-0.144-0.113-3.619-0.113-3.762 0zM16.275 18.794c-0.169 0.725-0.738 1.756-1.331 2.406-0.444 0.488-1.125 1.025-1.194 0.944-0.025-0.025-0.206-0.525-0.4-1.1l-0.35-1.056 0.281-0.319c0.162-0.175 0.375-0.481 0.488-0.681l0.2-0.363h2.344l-0.038 0.169z"></path>
            <path
                d="M18.406 18.906c-0.331 0.331-0.081 0.781 0.438 0.781 0.219 0 0.325-0.038 0.438-0.156 0.331-0.331 0.081-0.781-0.438-0.781-0.219 0-0.325 0.038-0.438 0.156z"></path>
            <path
                d="M20.144 18.825c-0.2 0.1-0.288 0.394-0.175 0.613 0.050 0.094 0.137 0.188 0.188 0.212 0.056 0.019 1.525 0.038 3.256 0.038h3.156l0.163-0.163c0.125-0.125 0.15-0.194 0.119-0.356-0.081-0.438 0.050-0.419-3.438-0.413-2.069 0-3.175 0.025-3.269 0.069z"></path>
            <path
                d="M27.538 18.881c-0.206 0.163-0.225 0.494-0.038 0.681 0.113 0.113 0.206 0.125 1.050 0.125s0.938-0.012 1.063-0.125c0.2-0.188 0.188-0.512-0.025-0.681-0.15-0.119-0.25-0.131-1.025-0.131s-0.875 0.012-1.025 0.131z"></path>
            <path
                d="M18.406 20.594c-0.331 0.331-0.081 0.781 0.438 0.781 0.219 0 0.325-0.038 0.438-0.156 0.331-0.331 0.081-0.781-0.438-0.781-0.219 0-0.325 0.038-0.438 0.156z"></path>
            <path
                d="M20.137 20.481c-0.15 0.056-0.269 0.375-0.2 0.544 0.137 0.363 0.069 0.356 3.519 0.337 3.481-0.019 3.313 0 3.394-0.406 0.031-0.163 0.006-0.231-0.119-0.356l-0.163-0.163-3.175 0.006c-1.744 0-3.212 0.019-3.256 0.038z"></path>
            <path
                d="M27.5 20.563c-0.188 0.188-0.169 0.519 0.038 0.681 0.15 0.119 0.25 0.131 1.025 0.131s0.875-0.012 1.025-0.131c0.212-0.169 0.225-0.494 0.025-0.681-0.125-0.113-0.219-0.125-1.063-0.125s-0.938 0.012-1.050 0.125z"></path>
            <path
                d="M18.381 22.288c-0.163 0.206-0.169 0.4-0.006 0.569 0.256 0.281 0.85 0.231 0.994-0.081 0.1-0.219 0.087-0.294-0.063-0.488-0.113-0.137-0.175-0.163-0.462-0.163s-0.35 0.025-0.462 0.163z"></path>
            <path
                d="M20.031 22.25c-0.156 0.175-0.144 0.475 0.025 0.644l0.137 0.137h6.381l0.15-0.175c0.181-0.212 0.188-0.35 0.019-0.569l-0.125-0.163h-3.238c-3.163 0-3.238 0-3.35 0.125z"></path>
            <path
                d="M27.5 22.25c-0.169 0.169-0.163 0.506 0.006 0.663 0.119 0.106 0.238 0.119 1.069 0.119 0.906 0 0.938-0.006 1.056-0.15 0.156-0.188 0.15-0.475-0.006-0.631-0.113-0.113-0.206-0.125-1.063-0.125s-0.95 0.012-1.063 0.125z"></path>
            <path
                d="M18.531 23.825c-0.306 0.163-0.363 0.431-0.15 0.7 0.113 0.137 0.175 0.163 0.462 0.163s0.35-0.025 0.462-0.163c0.15-0.188 0.163-0.269 0.063-0.481-0.119-0.262-0.55-0.375-0.837-0.219z"></path>
            <path
                d="M20.087 23.894c-0.219 0.194-0.238 0.512-0.031 0.681 0.131 0.106 0.288 0.113 2.006 0.113 2.038 0 1.994 0.006 2.094-0.387 0.038-0.137 0.006-0.206-0.144-0.363l-0.188-0.188h-1.788c-1.775 0-1.781 0-1.95 0.144z"></path>
            <path
                d="M27.688 23.794c-0.325 0.125-0.425 0.531-0.188 0.769 0.113 0.113 0.206 0.125 1.063 0.125s0.95-0.012 1.063-0.125c0.169-0.169 0.163-0.506-0.006-0.663-0.113-0.1-0.244-0.119-0.988-0.131-0.469-0.006-0.894 0-0.944 0.025z"></path>
        </symbol>
        <symbol id="icon-icon6" viewBox="0 0 32 32">
            <path
                d="M13.406 0.063c-0.069 0.025-0.512 0.444-0.988 0.919-0.7 0.706-0.875 0.919-0.919 1.119-0.031 0.131-0.063 1.531-0.063 3.1v2.863h-2.5v-1.55c0-1.544 0-1.556-0.144-1.688-0.194-0.181-0.45-0.175-0.637 0.019l-0.156 0.15v3.069h-2.6c-1.688 0-2.694 0.025-2.869 0.069-0.344 0.088-0.762 0.438-0.913 0.769-0.106 0.238-0.119 0.463-0.119 2.725v2.475l-0.244 0.238c-0.137 0.137-0.281 0.319-0.319 0.406-0.044 0.113-0.063 1.169-0.050 3.394l0.019 3.225 0.144 0.156c0.081 0.087 0.219 0.175 0.3 0.194l0.15 0.038v2.038c0 1.906 0.006 2.044 0.125 2.275 0.075 0.15 0.231 0.306 0.394 0.406l0.275 0.156h9.581v2.363l-1.419 0.025c-1.319 0.019-1.444 0.031-1.675 0.156-0.575 0.306-0.781 0.7-0.781 1.494 0 0.625 0.113 0.9 0.481 1.15l0.231 0.156 14.431 0.031 0.275-0.131c0.425-0.206 0.581-0.525 0.581-1.206 0-0.794-0.206-1.188-0.781-1.494-0.231-0.125-0.356-0.137-1.669-0.156l-1.425-0.025v-2.363h9.575l0.25-0.137c0.137-0.081 0.319-0.256 0.4-0.4l0.15-0.256v-4.081l0.15-0.038c0.081-0.019 0.219-0.106 0.3-0.194 0.144-0.15 0.144-0.175 0.163-1.694 0.019-1.494 0.012-1.55-0.113-1.688-0.175-0.188-0.512-0.188-0.688 0-0.119 0.125-0.125 0.212-0.125 1.406v1.269h-5.125v-5.656l0.969-0.969h4.156v1.113c0 1.038 0.006 1.125 0.125 1.25 0.175 0.188 0.512 0.188 0.688 0 0.119-0.131 0.125-0.212 0.125-1.506v-1.369l-0.212-0.213c-0.119-0.119-0.256-0.213-0.313-0.213-0.087 0-0.1-0.213-0.1-2.031 0-1.7-0.019-2.075-0.1-2.269-0.119-0.294-0.363-0.55-0.681-0.719-0.244-0.131-0.319-0.137-2.919-0.156l-2.675-0.019v-1.55c0-1.538 0-1.55-0.144-1.681-0.194-0.181-0.45-0.175-0.637 0.019l-0.156 0.15v3.069h-2.613l-0.019-0.806c-0.019-0.688-0.044-0.825-0.144-0.938-0.163-0.181-0.538-0.181-0.7 0-0.113 0.125-0.119 0.263-0.137 2l-0.019 1.869h-7.119v-7.906l1.344-1.344h5.775l0.019 1.837c0.019 1.706 0.025 1.844 0.137 1.969 0.163 0.181 0.538 0.181 0.7 0 0.113-0.125 0.119-0.25 0.119-2.144 0-1.1-0.019-2.087-0.050-2.181-0.025-0.094-0.137-0.225-0.25-0.294-0.194-0.119-0.325-0.125-3.45-0.119-1.787 0-3.306 0.025-3.375 0.056zM8 10.044v1.044l-0.219-0.213c-0.375-0.363-0.844-0.225-0.844 0.25 0 0.206 0.063 0.287 0.681 0.894 0.531 0.531 0.713 0.669 0.85 0.669s0.319-0.137 0.85-0.669c0.375-0.369 0.7-0.719 0.719-0.787 0.056-0.169-0.088-0.456-0.269-0.537-0.206-0.094-0.375-0.037-0.625 0.2l-0.206 0.194v-2.088h2.487l0.025 0.825c0.037 1.331-0.019 1.3 2.325 1.3h1.725v1.787c0 1.369-0.019 1.781-0.075 1.762-0.044-0.019-0.175-0.262-0.3-0.556-0.119-0.287-0.256-0.594-0.306-0.669-0.162-0.294-0.369-0.325-2.238-0.325-1.613 0-1.75 0.006-1.938 0.125-0.375 0.225-0.363 0.050-0.363 4.412 0 4.369-0.006 4.25 0.356 4.438 0.25 0.131 10.475 0.131 10.725 0 0.363-0.188 0.356-0.137 0.356-3.688 0-3.044-0.006-3.269-0.113-3.425-0.063-0.088-0.2-0.194-0.306-0.231-0.125-0.044-1.019-0.069-2.494-0.069h-2.306v-3.563h1.712c1.056 0 1.781-0.025 1.9-0.069 0.344-0.119 0.413-0.306 0.438-1.231l0.025-0.825h2.613v2.088l-0.219-0.213c-0.375-0.363-0.844-0.225-0.844 0.25 0 0.206 0.063 0.287 0.681 0.894 0.531 0.531 0.712 0.669 0.85 0.669s0.319-0.137 0.85-0.669c0.375-0.369 0.7-0.719 0.719-0.787 0.056-0.169-0.087-0.456-0.269-0.537-0.206-0.094-0.375-0.037-0.625 0.2l-0.206 0.194v-2.094l2.587 0.019c2.444 0.019 2.594 0.025 2.719 0.137 0.131 0.119 0.131 0.169 0.131 2.112v1.988h-3.894l-0.688 0.669c-0.375 0.375-0.725 0.762-0.769 0.875-0.131 0.3-0.125 6.238 0 6.55 0.169 0.4 0.194 0.406 2.913 0.406h2.438v1.5h-27.125v-1.5h2.438c2.719 0 2.744-0.006 2.912-0.406 0.131-0.313 0.131-7.369 0-7.681-0.175-0.425-0.106-0.412-2.862-0.412h-2.487v-1.988c0-1.819 0.013-2 0.112-2.088 0.056-0.056 0.15-0.113 0.2-0.131s1.256-0.037 2.675-0.037l2.575-0.006v1.044zM14.206 14.331c0.056 0.144 0.106 0.287 0.106 0.313s-0.688 0.044-1.531 0.044h-1.531v-0.625h2.844l0.113 0.269zM6.938 17.5v3.313h-5.125v-5.656l0.969-0.969h4.156v3.313zM15.5 17.038v1.413l-0.219-0.194c-0.269-0.231-0.488-0.244-0.688-0.038-0.294 0.288-0.231 0.431 0.55 1.206 0.494 0.488 0.756 0.7 0.856 0.7s0.363-0.212 0.856-0.7c0.781-0.775 0.844-0.919 0.55-1.206-0.2-0.206-0.419-0.194-0.688 0.038l-0.219 0.194v-2.825h4.25v5.625h-9.5v-5.625h4.25v1.413zM29.55 24.919l-0.019 0.738h-27.063l-0.019-0.738-0.019-0.731h27.138l-0.019 0.731zM19.188 27.806v1.181l-0.525 0.019c-0.631 0.031-0.788 0.131-0.788 0.494 0 0.413-0.050 0.4 2.575 0.438l2.375 0.031 0.119 0.15c0.1 0.119 0.119 0.231 0.106 0.531l-0.019 0.381h-14.063l-0.019-0.413c-0.031-0.7-0.35-0.644 3.831-0.681 2.9-0.025 3.594-0.050 3.675-0.119 0.156-0.125 0.137-0.519-0.025-0.669-0.119-0.113-0.262-0.119-1.875-0.137l-1.744-0.019v-2.369h6.375v1.181z"></path>
            <path
                d="M2.781 15.156c-0.188 0.181-0.2 0.4-0.038 0.6 0.119 0.15 0.131 0.15 1.538 0.169 1.531 0.019 1.656 0 1.775-0.319 0.063-0.175-0.031-0.463-0.181-0.544-0.069-0.037-0.725-0.063-1.531-0.063h-1.413l-0.15 0.156z"></path>
            <path
                d="M2.931 16.381c-0.156 0.056-0.306 0.281-0.306 0.456 0 0.044 0.056 0.156 0.131 0.25l0.125 0.163h1.488c1.381 0 1.494-0.006 1.594-0.119 0.156-0.169 0.15-0.488-0.019-0.65-0.131-0.131-0.188-0.137-1.494-0.15-0.769-0.006-1.425 0.012-1.519 0.050z"></path>
            <path
                d="M2.894 17.75c-0.281 0.113-0.344 0.45-0.138 0.712l0.125 0.163h1.469c1.381 0 1.469-0.006 1.588-0.125 0.206-0.206 0.188-0.469-0.037-0.675-0.15-0.131-0.194-0.137-1.513-0.131-0.744 0-1.419 0.025-1.494 0.056z"></path>
            <path
                d="M2.781 19.219c-0.087 0.081-0.156 0.225-0.156 0.313s0.069 0.231 0.156 0.313c0.144 0.15 0.188 0.156 0.862 0.156 0.625 0 0.731-0.019 0.881-0.131 0.213-0.169 0.225-0.481 0.019-0.669-0.131-0.125-0.213-0.137-0.881-0.137-0.694 0-0.738 0.006-0.881 0.156z"></path>
            <path
                d="M17.438 1.637c-0.119 0.125-0.125 0.212-0.125 1.313 0 1.131-0.006 1.175-0.125 1.175s-0.125-0.044-0.125-0.756c0-0.413-0.025-0.8-0.063-0.863-0.031-0.063-0.137-0.15-0.244-0.188-0.15-0.063-0.212-0.063-0.369 0.019-0.1 0.050-0.2 0.144-0.225 0.194-0.019 0.056-0.038 0.438-0.038 0.85 0 0.7-0.006 0.744-0.125 0.744s-0.125-0.044-0.125-0.994c0-0.906-0.012-1.006-0.131-1.156-0.094-0.119-0.188-0.163-0.338-0.163s-0.244 0.044-0.338 0.163c-0.119 0.15-0.131 0.25-0.131 1.156 0 0.95-0.006 0.994-0.125 0.994-0.113 0-0.125-0.044-0.125-0.531s-0.012-0.55-0.156-0.688c-0.081-0.087-0.225-0.156-0.313-0.156s-0.231 0.069-0.313 0.156c-0.144 0.138-0.156 0.2-0.156 0.681 0 0.531 0 0.538-0.169 0.575-0.275 0.063-0.394 0.206-0.394 0.463 0 0.45-0.088 0.438 2.825 0.438 2.431 0 2.6-0.006 2.694-0.112 0.137-0.156 0.137-0.531 0-0.65-0.063-0.050-0.188-0.112-0.281-0.138l-0.175-0.037v-1.175c0-1.1-0.006-1.188-0.125-1.313-0.175-0.188-0.512-0.188-0.688 0z"></path>
            <path
                d="M13.294 5.862c-0.15 0.162-0.137 0.531 0.019 0.669 0.188 0.175 0.713 0.162 0.887-0.019 0.162-0.162 0.175-0.469 0.019-0.638-0.156-0.175-0.775-0.181-0.925-0.013z"></path>
            <path
                d="M14.688 5.875c-0.269 0.269-0.088 0.706 0.325 0.781 0.113 0.019 0.956 0.031 1.869 0.019 1.538-0.019 1.681-0.025 1.8-0.138 0.169-0.156 0.181-0.537 0.019-0.681-0.1-0.094-0.337-0.106-2-0.106-1.806 0-1.894 0.006-2.012 0.125z"></path>
            <path
                d="M13.325 7.188c-0.088 0.088-0.137 0.206-0.137 0.344 0 0.3 0.194 0.469 0.537 0.469 0.356 0 0.45-0.044 0.563-0.263 0.081-0.156 0.081-0.219 0.019-0.369-0.094-0.237-0.231-0.306-0.569-0.306-0.194 0-0.319 0.037-0.412 0.125z"></path>
            <path
                d="M14.725 7.194c-0.119 0.094-0.162 0.188-0.162 0.338s0.044 0.244 0.162 0.338c0.162 0.125 0.238 0.131 1.987 0.131s1.831-0.006 1.962-0.125c0.087-0.088 0.137-0.206 0.137-0.344s-0.050-0.256-0.137-0.344c-0.131-0.119-0.212-0.125-1.962-0.125s-1.825 0.006-1.988 0.131z"></path>
            <path
                d="M13.294 8.55c-0.15 0.162-0.137 0.531 0.019 0.669 0.188 0.175 0.713 0.162 0.887-0.019 0.162-0.162 0.175-0.469 0.019-0.637-0.156-0.175-0.775-0.181-0.925-0.012z"></path>
            <path
                d="M14.688 8.563c-0.269 0.269-0.088 0.706 0.325 0.781 0.113 0.019 0.956 0.031 1.869 0.019 1.538-0.019 1.681-0.025 1.8-0.137 0.169-0.156 0.181-0.537 0.019-0.681-0.1-0.094-0.337-0.106-2-0.106-1.806 0-1.894 0.006-2.012 0.125z"></path>
            <path
                d="M26.106 15.075c-0.256 0.2-0.238 0.588 0.044 0.769 0.131 0.088 0.35 0.1 1.569 0.081 1.406-0.019 1.419-0.019 1.538-0.169 0.163-0.2 0.15-0.419-0.038-0.6l-0.15-0.156h-1.431c-1.044 0-1.456 0.019-1.531 0.075z"></path>
            <path
                d="M26.219 16.375c-0.3 0.119-0.394 0.519-0.181 0.756 0.1 0.113 0.212 0.119 1.594 0.119h1.488l0.125-0.163c0.075-0.094 0.131-0.206 0.131-0.25 0-0.181-0.156-0.4-0.331-0.462-0.219-0.075-2.637-0.081-2.825 0z"></path>
            <path
                d="M26.094 17.831c-0.219 0.188-0.231 0.519-0.025 0.681 0.119 0.1 0.294 0.113 1.587 0.113h1.462l0.125-0.163c0.163-0.206 0.169-0.406 0.012-0.594-0.119-0.15-0.131-0.15-1.556-0.169-1.438-0.019-1.438-0.019-1.606 0.131z"></path>
            <path
                d="M26.106 19.137c-0.262 0.206-0.231 0.663 0.056 0.794 0.219 0.1 1.462 0.087 1.6-0.019 0.256-0.194 0.231-0.706-0.044-0.813-0.194-0.075-1.5-0.044-1.613 0.038z"></path>
        </symbol>
<symbol id="icon-tablet" viewBox="0 0 32 32">
<path d="M25 0h-20c-1.65 0-3 1.35-3 3v26c0 1.65 1.35 3 3 3h20c1.65 0 3-1.35 3-3v-26c0-1.65-1.35-3-3-3zM15 31c-0.552 0-1-0.448-1-1s0.448-1 1-1 1 0.448 1 1-0.448 1-1 1zM24 28h-18v-24h18v24z"></path>
</symbol>
<symbol id="icon-cogs" viewBox="0 0 32 32">
<path d="M11.366 22.564l1.291-1.807-1.414-1.414-1.807 1.291c-0.335-0.187-0.694-0.337-1.071-0.444l-0.365-2.19h-2l-0.365 2.19c-0.377 0.107-0.736 0.256-1.071 0.444l-1.807-1.291-1.414 1.414 1.291 1.807c-0.187 0.335-0.337 0.694-0.443 1.071l-2.19 0.365v2l2.19 0.365c0.107 0.377 0.256 0.736 0.444 1.071l-1.291 1.807 1.414 1.414 1.807-1.291c0.335 0.187 0.694 0.337 1.071 0.444l0.365 2.19h2l0.365-2.19c0.377-0.107 0.736-0.256 1.071-0.444l1.807 1.291 1.414-1.414-1.291-1.807c0.187-0.335 0.337-0.694 0.444-1.071l2.19-0.365v-2l-2.19-0.365c-0.107-0.377-0.256-0.736-0.444-1.071zM7 27c-1.105 0-2-0.895-2-2s0.895-2 2-2 2 0.895 2 2-0.895 2-2 2zM32 12v-2l-2.106-0.383c-0.039-0.251-0.088-0.499-0.148-0.743l1.799-1.159-0.765-1.848-2.092 0.452c-0.132-0.216-0.273-0.426-0.422-0.629l1.219-1.761-1.414-1.414-1.761 1.219c-0.203-0.149-0.413-0.29-0.629-0.422l0.452-2.092-1.848-0.765-1.159 1.799c-0.244-0.059-0.492-0.109-0.743-0.148l-0.383-2.106h-2l-0.383 2.106c-0.251 0.039-0.499 0.088-0.743 0.148l-1.159-1.799-1.848 0.765 0.452 2.092c-0.216 0.132-0.426 0.273-0.629 0.422l-1.761-1.219-1.414 1.414 1.219 1.761c-0.149 0.203-0.29 0.413-0.422 0.629l-2.092-0.452-0.765 1.848 1.799 1.159c-0.059 0.244-0.109 0.492-0.148 0.743l-2.106 0.383v2l2.106 0.383c0.039 0.251 0.088 0.499 0.148 0.743l-1.799 1.159 0.765 1.848 2.092-0.452c0.132 0.216 0.273 0.426 0.422 0.629l-1.219 1.761 1.414 1.414 1.761-1.219c0.203 0.149 0.413 0.29 0.629 0.422l-0.452 2.092 1.848 0.765 1.159-1.799c0.244 0.059 0.492 0.109 0.743 0.148l0.383 2.106h2l0.383-2.106c0.251-0.039 0.499-0.088 0.743-0.148l1.159 1.799 1.848-0.765-0.452-2.092c0.216-0.132 0.426-0.273 0.629-0.422l1.761 1.219 1.414-1.414-1.219-1.761c0.149-0.203 0.29-0.413 0.422-0.629l2.092 0.452 0.765-1.848-1.799-1.159c0.059-0.244 0.109-0.492 0.148-0.743l2.106-0.383zM21 15.35c-2.402 0-4.35-1.948-4.35-4.35s1.948-4.35 4.35-4.35 4.35 1.948 4.35 4.35c0 2.402-1.948 4.35-4.35 4.35z"></path>
</symbol>
<symbol id="icon-stats-dots" viewBox="0 0 32 32">
<path d="M4 28h28v4h-32v-32h4zM9 26c-1.657 0-3-1.343-3-3s1.343-3 3-3c0.088 0 0.176 0.005 0.262 0.012l3.225-5.375c-0.307-0.471-0.487-1.033-0.487-1.638 0-1.657 1.343-3 3-3s3 1.343 3 3c0 0.604-0.179 1.167-0.487 1.638l3.225 5.375c0.086-0.007 0.174-0.012 0.262-0.012 0.067 0 0.133 0.003 0.198 0.007l5.324-9.316c-0.329-0.482-0.522-1.064-0.522-1.691 0-1.657 1.343-3 3-3s3 1.343 3 3c0 1.657-1.343 3-3 3-0.067 0-0.133-0.003-0.198-0.007l-5.324 9.316c0.329 0.481 0.522 1.064 0.522 1.691 0 1.657-1.343 3-3 3s-3-1.343-3-3c0-0.604 0.179-1.167 0.487-1.638l-3.225-5.375c-0.086 0.007-0.174 0.012-0.262 0.012s-0.176-0.005-0.262-0.012l-3.225 5.375c0.307 0.471 0.487 1.033 0.487 1.637 0 1.657-1.343 3-3 3z"></path>
</symbol>
<symbol id="icon-stats-bars" viewBox="0 0 32 32">
<path d="M0 26h32v4h-32zM4 18h4v6h-4zM10 10h4v14h-4zM16 16h4v8h-4zM22 4h4v20h-4z"></path>
</symbol>
<symbol id="icon-sphere" viewBox="0 0 32 32">
<path d="M15 2c-8.284 0-15 6.716-15 15s6.716 15 15 15c8.284 0 15-6.716 15-15s-6.716-15-15-15zM23.487 22c0.268-1.264 0.437-2.606 0.492-4h3.983c-0.104 1.381-0.426 2.722-0.959 4h-3.516zM6.513 12c-0.268 1.264-0.437 2.606-0.492 4h-3.983c0.104-1.381 0.426-2.722 0.959-4h3.516zM21.439 12c0.3 1.28 0.481 2.62 0.54 4h-5.979v-4h5.439zM16 10v-5.854c0.456 0.133 0.908 0.355 1.351 0.668 0.831 0.586 1.625 1.488 2.298 2.609 0.465 0.775 0.867 1.638 1.203 2.578h-4.852zM10.351 7.422c0.673-1.121 1.467-2.023 2.298-2.609 0.443-0.313 0.895-0.535 1.351-0.668v5.854h-4.852c0.336-0.94 0.738-1.803 1.203-2.578zM14 12v4h-5.979c0.059-1.38 0.24-2.72 0.54-4h5.439zM2.997 22c-0.533-1.278-0.854-2.619-0.959-4h3.983c0.055 1.394 0.224 2.736 0.492 4h-3.516zM8.021 18h5.979v4h-5.439c-0.3-1.28-0.481-2.62-0.54-4zM14 24v5.854c-0.456-0.133-0.908-0.355-1.351-0.668-0.831-0.586-1.625-1.488-2.298-2.609-0.465-0.775-0.867-1.638-1.203-2.578h4.852zM19.649 26.578c-0.673 1.121-1.467 2.023-2.298 2.609-0.443 0.312-0.895 0.535-1.351 0.668v-5.854h4.852c-0.336 0.94-0.738 1.802-1.203 2.578zM16 22v-4h5.979c-0.059 1.38-0.24 2.72-0.54 4h-5.439zM23.98 16c-0.055-1.394-0.224-2.736-0.492-4h3.516c0.533 1.278 0.855 2.619 0.959 4h-3.983zM25.958 10h-2.997c-0.582-1.836-1.387-3.447-2.354-4.732 1.329 0.636 2.533 1.488 3.585 2.54 0.671 0.671 1.261 1.404 1.766 2.192zM5.808 7.808c1.052-1.052 2.256-1.904 3.585-2.54-0.967 1.285-1.771 2.896-2.354 4.732h-2.997c0.504-0.788 1.094-1.521 1.766-2.192zM4.042 24h2.997c0.583 1.836 1.387 3.447 2.354 4.732-1.329-0.636-2.533-1.488-3.585-2.54-0.671-0.671-1.261-1.404-1.766-2.192zM24.192 26.192c-1.052 1.052-2.256 1.904-3.585 2.54 0.967-1.285 1.771-2.896 2.354-4.732h2.997c-0.504 0.788-1.094 1.521-1.766 2.192z"></path>
</symbol>
<symbol id="icon-earth" viewBox="0 0 32 32">
<path d="M16 0c-8.837 0-16 7.163-16 16s7.163 16 16 16 16-7.163 16-16-7.163-16-16-16zM16 30c-1.967 0-3.84-0.407-5.538-1.139l7.286-8.197c0.163-0.183 0.253-0.419 0.253-0.664v-3c0-0.552-0.448-1-1-1-3.531 0-7.256-3.671-7.293-3.707-0.188-0.188-0.442-0.293-0.707-0.293h-4c-0.552 0-1 0.448-1 1v6c0 0.379 0.214 0.725 0.553 0.894l3.447 1.724v5.871c-3.627-2.53-6-6.732-6-11.489 0-2.147 0.484-4.181 1.348-6h3.652c0.265 0 0.52-0.105 0.707-0.293l4-4c0.188-0.188 0.293-0.442 0.293-0.707v-2.419c1.268-0.377 2.61-0.581 4-0.581 2.2 0 4.281 0.508 6.134 1.412-0.13 0.109-0.256 0.224-0.376 0.345-1.133 1.133-1.757 2.64-1.757 4.243s0.624 3.109 1.757 4.243c1.139 1.139 2.663 1.758 4.239 1.758 0.099 0 0.198-0.002 0.297-0.007 0.432 1.619 1.211 5.833-0.263 11.635-0.014 0.055-0.022 0.109-0.026 0.163-2.541 2.596-6.084 4.208-10.004 4.208z"></path>
</symbol>
<symbol id="icon-facebook" viewBox="0 0 32 32">
<path d="M19 6h5v-6h-5c-3.86 0-7 3.14-7 7v3h-4v6h4v16h6v-16h5l1-6h-6v-3c0-0.542 0.458-1 1-1z"></path>
</symbol>
<symbol id="icon-instagram" viewBox="0 0 32 32">
<path d="M16 2.881c4.275 0 4.781 0.019 6.462 0.094 1.563 0.069 2.406 0.331 2.969 0.55 0.744 0.288 1.281 0.638 1.837 1.194 0.563 0.563 0.906 1.094 1.2 1.838 0.219 0.563 0.481 1.412 0.55 2.969 0.075 1.688 0.094 2.194 0.094 6.463s-0.019 4.781-0.094 6.463c-0.069 1.563-0.331 2.406-0.55 2.969-0.288 0.744-0.637 1.281-1.194 1.837-0.563 0.563-1.094 0.906-1.837 1.2-0.563 0.219-1.413 0.481-2.969 0.55-1.688 0.075-2.194 0.094-6.463 0.094s-4.781-0.019-6.463-0.094c-1.563-0.069-2.406-0.331-2.969-0.55-0.744-0.288-1.281-0.637-1.838-1.194-0.563-0.563-0.906-1.094-1.2-1.837-0.219-0.563-0.481-1.413-0.55-2.969-0.075-1.688-0.094-2.194-0.094-6.463s0.019-4.781 0.094-6.463c0.069-1.563 0.331-2.406 0.55-2.969 0.288-0.744 0.638-1.281 1.194-1.838 0.563-0.563 1.094-0.906 1.838-1.2 0.563-0.219 1.412-0.481 2.969-0.55 1.681-0.075 2.188-0.094 6.463-0.094zM16 0c-4.344 0-4.887 0.019-6.594 0.094-1.7 0.075-2.869 0.35-3.881 0.744-1.056 0.412-1.95 0.956-2.837 1.85-0.894 0.888-1.438 1.781-1.85 2.831-0.394 1.019-0.669 2.181-0.744 3.881-0.075 1.713-0.094 2.256-0.094 6.6s0.019 4.887 0.094 6.594c0.075 1.7 0.35 2.869 0.744 3.881 0.413 1.056 0.956 1.95 1.85 2.837 0.887 0.887 1.781 1.438 2.831 1.844 1.019 0.394 2.181 0.669 3.881 0.744 1.706 0.075 2.25 0.094 6.594 0.094s4.888-0.019 6.594-0.094c1.7-0.075 2.869-0.35 3.881-0.744 1.050-0.406 1.944-0.956 2.831-1.844s1.438-1.781 1.844-2.831c0.394-1.019 0.669-2.181 0.744-3.881 0.075-1.706 0.094-2.25 0.094-6.594s-0.019-4.887-0.094-6.594c-0.075-1.7-0.35-2.869-0.744-3.881-0.394-1.063-0.938-1.956-1.831-2.844-0.887-0.887-1.781-1.438-2.831-1.844-1.019-0.394-2.181-0.669-3.881-0.744-1.712-0.081-2.256-0.1-6.6-0.1v0z"></path>
<path d="M16 7.781c-4.537 0-8.219 3.681-8.219 8.219s3.681 8.219 8.219 8.219 8.219-3.681 8.219-8.219c0-4.537-3.681-8.219-8.219-8.219zM16 21.331c-2.944 0-5.331-2.387-5.331-5.331s2.387-5.331 5.331-5.331c2.944 0 5.331 2.387 5.331 5.331s-2.387 5.331-5.331 5.331z"></path>
<path d="M26.462 7.456c0 1.060-0.859 1.919-1.919 1.919s-1.919-0.859-1.919-1.919c0-1.060 0.859-1.919 1.919-1.919s1.919 0.859 1.919 1.919z"></path>
</symbol>
<symbol id="icon-whatsapp" viewBox="0 0 32 32">
<path d="M27.281 4.65c-2.994-3-6.975-4.65-11.219-4.65-8.738 0-15.85 7.112-15.85 15.856 0 2.794 0.731 5.525 2.119 7.925l-2.25 8.219 8.406-2.206c2.319 1.262 4.925 1.931 7.575 1.931h0.006c0 0 0 0 0 0 8.738 0 15.856-7.113 15.856-15.856 0-4.238-1.65-8.219-4.644-11.219zM16.069 29.050v0c-2.369 0-4.688-0.637-6.713-1.837l-0.481-0.288-4.987 1.306 1.331-4.863-0.313-0.5c-1.325-2.094-2.019-4.519-2.019-7.012 0-7.269 5.912-13.181 13.188-13.181 3.519 0 6.831 1.375 9.319 3.862 2.488 2.494 3.856 5.8 3.856 9.325-0.006 7.275-5.919 13.188-13.181 13.188zM23.294 19.175c-0.394-0.2-2.344-1.156-2.706-1.288s-0.625-0.2-0.894 0.2c-0.262 0.394-1.025 1.288-1.256 1.556-0.231 0.262-0.462 0.3-0.856 0.1s-1.675-0.619-3.188-1.969c-1.175-1.050-1.975-2.35-2.206-2.744s-0.025-0.613 0.175-0.806c0.181-0.175 0.394-0.463 0.594-0.694s0.262-0.394 0.394-0.662c0.131-0.262 0.069-0.494-0.031-0.694s-0.894-2.15-1.219-2.944c-0.319-0.775-0.65-0.669-0.894-0.681-0.231-0.012-0.494-0.012-0.756-0.012s-0.694 0.1-1.056 0.494c-0.363 0.394-1.387 1.356-1.387 3.306s1.419 3.831 1.619 4.1c0.2 0.262 2.794 4.269 6.769 5.981 0.944 0.406 1.681 0.65 2.256 0.837 0.95 0.3 1.813 0.256 2.494 0.156 0.762-0.113 2.344-0.956 2.675-1.881s0.331-1.719 0.231-1.881c-0.094-0.175-0.356-0.275-0.756-0.475z"></path>
</symbol>
        <symbol id="icon-logo" viewBox="0 0 725 344">
            <path fill="#86C232"
                d="M236.75 142.72c2.6 10.02 17.67 12.9 22.81 4.36 5.15-8.58.34-22.28-5.62-29.53q-5.47-6.67-25.64-30.85c-20.73-24.87-13.4-67.29 26.89-62.45 25.28 3.04 30.6 24.9 24.11 46.3a.63.62 8 0 1-.6.45h-15.33a.42.42 0 0 1-.42-.44c.32-7.78.59-21.8-6.39-27.2q-5.8-4.49-13.63-1.14c-5.18 2.21-6.25 9.21-5.51 14.48 1.63 11.65 12.77 21.96 20.04 30.77 12.02 14.56 25.76 29.33 25.43 48.13-.35 20.49-14 33.2-34.75 32.63-28.48-.78-36.51-21.13-29.82-46.36q.1-.37.49-.37h15.72a.6.6 0 0 1 .6.63q-.66 11.78 1.62 20.59ZM422.69 123.86c-.86 6.95.01 21.27 6.48 25.89q5.61 4.01 12.91 1.29c5.37-2 7.22-6.96 7.07-12.57q-.32-11.89-8.84-22.3-11.05-13.52-22.37-26.87-3.02-3.56-6.46-9.05c-12.47-19.9-9.44-49.61 17.24-55.52 15.21-3.37 34.99 2.22 39.33 19.27q3.19 12.51-1.28 26.6-.13.4-.55.4h-14.75a1.11 1.11 0 0 1-1.11-1.21c.92-10.54-.16-33.55-17.92-28.24-12.99 3.88-7.09 22.27-1.25 29.26 11.49 13.75 25.19 28.01 33.76 43.74 11.59 21.28 5.25 49.34-21.96 53.18-31.88 4.5-44.88-17.62-36.96-45.84q.11-.39.51-.39h15.47q.51 0 .61.51.18.95.07 1.85ZM67.75 85.04v15.92a.54.54 0 0 1-.54.54H42.54a.54.54 0 0 0-.54.54l.01 64.42a.54.54 0 0 1-.54.54H21.04a.54.54 0 0 1-.54-.54V25.79a.54.54 0 0 1 .54-.54h53.17a.54.54 0 0 1 .54.54v15.92a.54.54 0 0 1-.54.54H42.54a.54.54 0 0 0-.54.54v41.17a.54.54 0 0 0 .54.54h24.67a.54.54 0 0 1 .54.54Z" />
            <rect fill="#86C232" x="89.24" y="25.25" width="21.26" height="141.74" rx=".49" />
            <path fill="#86C232"
                d="M156 114.54v51.96q0 .51-.5.51l-19.91-.02q-.59 0-.59-.59V25.78a.47.47 0 0 1 .47-.47c25.32-.29 60.28-4.89 64.88 30.21 2.4 18.3 1.74 44.15-17.03 54.5q-.41.22-.24.65l22.35 55.64q.28.69-.46.69h-21.38q-.65 0-.86-.61l-18.54-52.25a.64.64 0 0 0-.63-.42l-7.1.35q-.46.02-.46.47Zm.09-73.21-.2 56.5a.56.56 0 0 0 .56.56l5.73.02A17.47 17.21-89.8 0 0 179.45 81l.08-22.68a17.47 17.21-89.8 0 0-17.15-17.53l-5.73-.02a.56.56 0 0 0-.56.56ZM313.81 42.25h-21.87a.44.44 0 0 1-.44-.44V25.69a.44.44 0 0 1 .44-.44h66.12a.44.44 0 0 1 .44.44v16.12a.44.44 0 0 1-.44.44h-21.87a.44.44 0 0 0-.44.44v123.87a.44.44 0 0 1-.44.44h-20.62a.44.44 0 0 1-.44-.44V42.69a.44.44 0 0 0-.44-.44ZM501.28 42.25h-21.81a.47.47 0 0 1-.47-.47V25.72a.47.47 0 0 1 .47-.47h66.01a.47.47 0 0 1 .47.47l.16 16.06a.47.47 0 0 1-.47.47h-21.92a.47.47 0 0 0-.47.47v123.81a.47.47 0 0 1-.47.47h-20.56a.47.47 0 0 1-.47-.47V42.72a.47.47 0 0 0-.47-.47ZM613.72 150.45l.08 16.1a.45.45 0 0 1-.45.45h-52.4a.45.45 0 0 1-.45-.45V25.7a.45.45 0 0 1 .45-.45h51.58a.45.45 0 0 1 .45.45l.06 16.1a.45.45 0 0 1-.45.45h-30.16a.45.45 0 0 0-.45.45l.03 41.34a.45.45 0 0 0 .45.45l23.09.02a.45.45 0 0 1 .45.45v16.09a.45.45 0 0 1-.45.45h-23.1a.45.45 0 0 0-.45.45v47.6a.45.45 0 0 0 .45.45h30.82a.45.45 0 0 1 .45.45ZM650.99 124.17l.02 42.2q0 .63-.63.63H630a.5.5 0 0 1-.5-.5V25.77q0-.47.46-.47 13.11-.18 26.1.05c37.25.66 41.12 31.95 37.92 60.9-2.86 25.83-17.17 37.67-42.59 37.52a.4.4 0 0 0-.4.4Zm-.12-83.3.24 66.82a.24.24 0 0 0 .24.24l3.02-.01a19.56 18.38 89.8 0 0 18.31-19.63l-.1-28.18a19.56 18.38 89.8 0 0-18.45-19.49l-3.02.01a.24.24 0 0 0-.24.24ZM576.85 196.22q3.62-4.11 8.55-4.96c3.36-.58 5.13-2.39 8.14-3.03 12.94-2.74 23.55-1.42 35.48 1.21q3.17.7 5.19 3.17.34.42.83.65l4.68 2.2a.82.81 48.1 0 1-.08 1.51c-1.95.65-10.56-2.15-12.9-2.86-15.28-4.63-34.51-3.25-49.14 3.13q-2.67 1.16-.75-1.02ZM673.22 231.39q-.33 1.16-.96.13-3.23-5.22-7.08-10.49c-1.88-2.57-3.48-6.81-6.47-9.33-3.32-2.8-5.17-5.28-8.04-7.96-1.52-1.42-3.58-1.89-5.16-3.2a.88.87 77.1 0 1 .92-1.47q5.23 2.34 9.68 5.24c1.85 1.2 2.54 2.99 4.12 4.47q8.64 8.12 13.13 19.16c.6 1.49.26 2.02-.14 3.45ZM434.76 230.71l8.56-27.85q.17-.58.77-.58l6.6-.04q.72-.01.49.67l-12.91 37.44q-.14.4-.57.4h-6.46q-.54 0-.71-.52l-6.66-20.22q-.33-1.02-.67 0l-6.7 20.42q-.11.31-.44.31l-6.44.01q-.66 0-.86-.62l-12.2-37.34q-.18-.54.39-.54h6.71q.53 0 .67.5l8.01 27.48q.42 1.45.87 0l7.29-23.71a3.02 3.02 0 0 1 5.76-.04l7.8 24.24a.37.37 0 0 0 .7-.01ZM465.47 218.5h15.84a.44.44 0 0 1 .44.44v5.15a.44.44 0 0 1-.44.44l-15.77-.05a.44.44 0 0 0-.44.43l-.14 9.42a.44.44 0 0 0 .44.45l17.16-.09a.44.44 0 0 1 .44.44v5.18a.44.44 0 0 1-.44.44h-24.12a.44.44 0 0 1-.44-.44v-37.62a.44.44 0 0 1 .44-.44h24.12a.44.44 0 0 1 .44.44v5.09a.44.44 0 0 1-.44.44l-17.13.09a.44.44 0 0 0-.44.44l.04 9.31a.44.44 0 0 0 .44.44ZM515.37 221.08a.19.19 0 0 0-.01.35c12.57 5.15 6.79 18.81-4.93 19.15q-8.6.25-17.18.16a.5.5 0 0 1-.5-.5v-37.46q0-.41.41-.43c6.01-.3 18.76-1.14 23.88 2.07 6.59 4.13 5.87 13.94-1.67 16.66Zm-15.63-12.57v9.76a.24.24 0 0 0 .24.24h8.87a5.61 5.06 0 0 0 5.61-5.06v-.12a5.61 5.06 0 0 0-5.61-5.06h-8.87a.24.24 0 0 0-.24.24Zm0 16.74v8.92a.57.57 0 0 0 .57.57h8.78a5.45 4.62 0 0 0 5.45-4.62v-.82a5.45 4.62 0 0 0-5.45-4.62h-8.78a.57.57 0 0 0-.57.57ZM538.37 270.63c-2.7-2.57-2.69-13.92-2.55-15.32.23-2.17 1.31-4.08 1.27-6.87q-.06-5.23 2.51-9.87.21-.37.64-.46l.89-.17a1.24 1.23-80.8 0 0 .84-.61q1.79-3.09.53-6.33-.16-.43.04-.84l1.92-3.82q.25-.5.28-1.06.21-3.72 2.01-6.27 4.61-6.54 11.88-11.6c2.22-1.54 4.93-4.22 8.38-5.15a.46.46 0 0 1 .39.82q-2.53 1.88-5.36 3.47c-1.29.72-2.15 4.12-3.19 5.49-6.09 8.07-9.88 15.73-14.17 23.91-2.06 3.91-2.61 7.45-3.74 11.51q-.15.5-.51.88-2.36 2.41.25 4.92a.96.94 31 0 1 .25.96c-1.11 3.69.91 8.85 1.58 12.64q.66 3.78-3.2 4.1-.55.05-.94-.33Z" />
            <rect fill="#86C232" x="-1.87" y="-5.88" transform="rotate(-.1 125567.28 -338875.344)"
                width="3.74" height="11.76" rx="1.66" />
            <rect fill="#86C232" x="-1.85" y="-5.92" transform="rotate(-44.7 561.753 -588.291)"
                width="3.7" height="11.84" rx="1.75" />
            <rect fill="#86C232" x="-1.89" y="-5.88" transform="rotate(44.5 28.517 854.466)"
                width="3.78" height="11.76" rx="1.82" />
            <path fill="#86C232"
                d="m615.93 273.9-9.32 16.1a1.34 1.33 13.4 0 1-1.08.66q-1.78.09-2.67-2.61-8.39-25.48-16.72-50.58-.23-.69-.07-1.4.39-1.69 2.12-1.13 26.05 8.39 52.46 17.25a1.8 1.79 24.7 0 1 .97 2.62c-1.18 1.98-14 8.41-16.76 9.95a.28.27-37.5 0 0-.06.43l21.63 21.61a1.31 1.31 0 0 1-.01 1.85l-6.48 6.45q-.98.97-1.96 0l-21.31-21.3q-.43-.43-.74.1Zm-.74-5.43a1.66 1.59-32.8 0 1 1.75.34l21.51 21.51q.58.58 1.14-.01l1.95-2.04a.76.76 0 0 0-.01-1.06l-21.48-21.45a1.67 1.67 0 0 1 .34-2.63l14.31-8.31a.36.36 0 0 0-.06-.65l-43.39-14.52q-.49-.17-.32.32l14.49 43.37a.43.43 0 0 0 .78.07c1.08-1.99 7.55-14.37 8.99-14.94Z" />
            <rect fill="#86C232" x="-5.87" y="-1.87" transform="rotate(-.1 138012.5 -326396.915)"
                width="11.74" height="3.74" rx="1.59" />
            <path fill="#86C232"
                d="M678.98 258.38c1.76 4.8.38 11.44-1.15 16.06a1.68 1.65-9 0 1-.62.84q-2.37 1.65-1.83 4.82a.72.71-24.2 0 1-.27.7l-.83.61a1.46 1.44-11.1 0 0-.53.78q-2.47 8.97-8.61 15.97-.8.91-.66-.16.02-.14-.01-.28a1.21 1.21 0 0 1 .24-.99q4.74-6.03 7.38-13.18.2-.53.58-.94c1.96-2.13.05-4.47 1.59-6.99 2.6-4.25 4.58-14.18 2.21-18.69a1.56 1.54 36.2 0 1-.16-.99l.96-5.54a1.21 1.2 12.3 0 1 1.5-.96c2.51.67 1.39 6.65.33 8.1q-.28.39-.12.84Z" />
            <rect fill="#86C232" x="-1.91" y="-5.82" transform="rotate(44.8 -22.24 826.98)"
                width="3.82" height="11.64" rx="1.66" />
            <path fill="#86C232"
                d="M559.16 307.34c-2.09-1.96-23.91-23.62-14.6-25.87q.49-.11.88.21c4.24 3.58 4.81 7.31 8.15 11.74 10.16 13.46 23.31 21.25 37.87 28.33 3.62 1.76 8.68.86 12.61.72 6.36-.22 13.7.3 20.71-1.15 6.81-1.4 14.12-5.7 20.93-8.75 2.08-.94 4.22-2.67 6.45-3.8a1.64 1.58-88.1 0 0 .67-.65c1.62-2.89 5.7-8.46 9.67-6.72a.57.56-63.4 0 1 .26.79c-3.86 6.99-15.63 13.61-23.07 17.5-6.91 3.62-18.72 5.86-27.77 6.28-4.59.22-9.72-.93-14.56-1.41-13.42-1.33-28.36-8-38.2-17.22Z" />
        </symbol>


</defs>
</svg>
