<?xml version="1.0" standalone="no"?>
<!DOCTYPE svg PUBLIC "-//W3C//DTD SVG 20010904//EN"
 "http://www.w3.org/TR/2001/REC-SVG-20010904/DTD/svg10.dtd">
<svg version="1.0" xmlns="http://www.w3.org/2000/svg"
 width="512.000000pt" height="512.000000pt" viewBox="0 0 512.000000 512.000000"
 preserveAspectRatio="xMidYMid meet">

<g transform="translate(0.000000,512.000000) scale(0.100000,-0.100000)"
fill="#000000" stroke="none">
<path d="M358 4470 c-46 -14 -85 -48 -107 -93 -21 -43 -21 -47 -21 -1299 l0
-1256 -80 -4 c-75 -3 -82 -5 -112 -36 l-33 -32 0 -255 0 -255 33 -32 c30 -31
37 -33 112 -36 l80 -4 0 -210 c0 -230 6 -259 58 -295 25 -17 65 -18 633 -18
583 0 608 1 628 19 14 13 21 31 21 57 0 72 26 69 -617 69 l-573 0 0 190 0 189
385 3 385 3 32 32 c29 30 33 40 36 103 4 61 7 70 21 64 214 -88 394 -118 581
-95 118 15 145 34 137 96 -7 57 -167 515 -187 535 -11 11 -42 19 -90 24 -42 4
-99 17 -134 32 -87 37 -107 39 -139 14 -35 -28 -37 -77 -4 -108 31 -29 138
-72 197 -79 27 -3 53 -9 59 -12 6 -4 37 -85 69 -180 47 -139 56 -174 44 -178
-27 -11 -218 7 -297 28 -44 11 -119 39 -167 61 l-86 40 -4 99 c-3 96 -4 99
-36 131 -32 33 -34 33 -139 36 -121 4 -112 -1 -168 104 -74 140 -105 268 -105
436 0 64 7 149 15 187 16 77 55 195 64 195 4 0 68 -62 143 -137 l136 -138 4
-120 c3 -94 9 -130 25 -167 25 -54 60 -71 101 -47 42 24 47 40 32 117 -9 48
-11 103 -6 169 l6 98 -214 214 c-185 184 -219 214 -245 214 -41 0 -57 -15 -98
-97 -79 -156 -113 -305 -113 -490 0 -179 31 -319 104 -469 l32 -67 -188 0
-188 0 0 1030 0 1030 2295 0 2295 0 0 -1545 0 -1545 -1573 0 c-1755 0 -1617 6
-1617 -69 0 -26 7 -44 21 -57 21 -19 62 -19 1628 -19 1577 0 1607 0 1635 20
59 40 56 -74 56 1877 0 1740 -1 1794 -19 1835 -12 26 -35 52 -62 70 l-43 28
-277 0 c-258 0 -278 -1 -298 -19 -14 -13 -21 -31 -21 -57 0 -67 9 -69 291 -69
136 0 254 -3 263 -6 14 -5 16 -28 16 -150 l0 -144 -1895 0 -1895 0 0 150 0
150 1483 0 c1655 0 1527 -6 1527 69 0 26 -7 44 -21 57 -21 19 -68 19 -1903 21
-1034 1 -1893 -2 -1908 -7z m662 -290 l0 -150 -320 0 -320 0 0 138 c0 94 4
142 12 150 9 9 94 12 320 12 l308 0 0 -150z m50 -2685 l0 -175 -460 0 -460 0
0 175 0 175 460 0 460 0 0 -175z"/>
<path d="M252 1563 c-7 -3 -19 -18 -28 -35 -13 -25 -13 -35 -3 -59 6 -17 20
-34 30 -39 10 -6 96 -10 191 -10 162 0 176 1 196 20 30 28 30 82 0 110 -20 19
-34 20 -197 19 -97 0 -182 -3 -189 -6z"/>
<path d="M742 1547 c-29 -31 -29 -77 1 -105 21 -19 34 -22 118 -22 100 1 122
8 137 51 11 28 -1 66 -26 85 -11 9 -50 13 -113 14 -87 0 -97 -2 -117 -23z"/>
<path d="M675 3613 c-36 -9 -55 -34 -55 -73 0 -68 7 -70 262 -70 205 0 226 2
241 18 24 27 22 85 -4 108 -19 17 -40 19 -223 21 -110 1 -210 -1 -221 -4z"/>
<path d="M2114 3610 c-16 -5 -41 -21 -55 -36 -20 -22 -24 -37 -27 -104 l-4
-77 -72 18 c-97 26 -137 25 -164 -4 -22 -23 -22 -30 -22 -306 0 -166 4 -290
10 -301 5 -10 47 -36 93 -59 103 -50 182 -128 217 -217 41 -106 18 -99 350
-99 286 0 290 0 312 22 28 28 27 64 -3 186 -14 59 -44 134 -84 214 l-62 122
333 3 334 3 32 33 33 32 3 234 c3 258 -2 288 -54 323 -26 17 -64 18 -584 20
-309 1 -569 -2 -586 -7z m1074 -317 l2 -173 -505 0 -505 0 0 175 0 175 503 -2
502 -3 3 -172z m-1158 -154 c8 -158 24 -169 234 -169 l145 0 40 -52 c55 -75
97 -153 131 -247 17 -45 30 -86 30 -91 0 -6 -72 -10 -185 -10 l-186 0 -17 31
c-61 112 -142 198 -237 254 l-65 38 0 188 0 188 53 -18 52 -18 5 -94z"/>
<path d="M2275 3346 c-32 -32 -33 -75 -2 -104 21 -20 34 -22 129 -22 103 0
107 1 127 26 26 33 27 65 2 95 -18 22 -28 24 -125 27 -101 4 -106 3 -131 -22z"/>
<path d="M2627 3350 c-34 -27 -37 -80 -7 -110 19 -19 33 -20 239 -20 l220 0
20 26 c26 33 27 65 2 95 -19 24 -22 24 -233 27 -205 3 -215 2 -241 -18z"/>
<path d="M3655 3613 c-36 -9 -55 -34 -55 -73 0 -68 7 -70 262 -70 205 0 226 2
241 18 24 27 22 85 -4 108 -19 17 -40 19 -223 21 -110 1 -210 -1 -221 -4z"/>
<path d="M4294 3613 c-53 -11 -75 -83 -39 -123 17 -19 30 -20 242 -20 210 0
224 1 243 20 25 25 26 71 1 101 -19 24 -22 24 -223 25 -111 1 -213 0 -224 -3z"/>
<path d="M1416 3404 c-155 -42 -326 -135 -435 -237 -34 -31 -41 -44 -41 -75 0
-35 12 -49 198 -234 223 -223 224 -223 302 -167 24 18 69 43 99 56 98 43 91
16 91 350 0 280 -1 294 -20 313 -27 27 -81 25 -194 -6z m60 -509 c-2 -5 -25
-21 -51 -34 l-46 -24 -125 124 c-68 68 -124 127 -124 131 0 22 172 116 278
152 l67 23 3 -181 c1 -99 1 -185 -2 -191z"/>
<path d="M3596 3048 c-58 -16 -120 -83 -134 -144 -7 -27 -11 -56 -9 -65 1 -11
-41 -50 -116 -108 l-118 -92 -57 12 c-72 15 -118 7 -169 -30 -179 -129 -40
-410 172 -351 84 24 154 124 143 207 l-5 38 114 88 114 89 40 -16 c45 -18 115
-21 154 -6 25 9 38 3 150 -77 l122 -88 5 -47 c10 -94 83 -165 180 -175 45 -4
61 -1 108 24 44 23 60 39 83 83 24 46 28 63 24 106 l-5 51 57 57 58 57 70 2
c59 2 76 6 111 31 53 36 82 95 82 167 -1 205 -278 269 -372 85 -21 -42 -26
-132 -9 -164 8 -16 1 -27 -44 -72 -51 -51 -54 -52 -86 -41 -48 17 -98 13 -145
-10 -27 -12 -49 -17 -57 -12 -8 4 -57 39 -110 78 l-97 69 0 61 c0 50 -5 69
-29 108 -48 74 -139 109 -225 85z m96 -162 c12 -17 9 -51 -4 -64 -19 -19 -55
-14 -72 10 -21 29 -20 34 5 59 21 21 56 19 71 -5z m909 14 c22 -12 26 -59 7
-78 -19 -19 -55 -14 -72 9 -16 23 -12 47 12 67 19 15 28 15 53 2z m-369 -387
c22 -20 23 -41 1 -65 -20 -22 -46 -23 -67 -2 -30 29 -9 84 31 84 9 0 25 -7 35
-17z m-1090 -20 c22 -20 23 -41 1 -65 -20 -22 -46 -23 -67 -2 -30 29 -9 84 31
84 9 0 25 -7 35 -17z"/>
<path d="M2139 2277 c-9 -7 -32 -47 -52 -91 -28 -60 -52 -93 -102 -140 -53
-51 -65 -69 -65 -94 0 -23 135 -437 175 -534 12 -29 60 -42 98 -27 69 29 206
131 285 213 150 157 244 333 287 540 16 81 12 106 -24 133 -23 18 -579 18
-602 0z m465 -164 c-27 -116 -118 -281 -213 -385 -71 -78 -180 -164 -191 -151
-4 4 -33 84 -64 176 l-56 169 45 51 c26 28 60 77 78 109 l32 58 188 0 187 0
-6 -27z"/>
<path d="M2945 2095 c-53 -53 -13 -125 70 -125 35 0 52 6 70 25 53 53 13 125
-70 125 -35 0 -52 -6 -70 -25z"/>
<path d="M3223 2108 c-32 -16 -46 -63 -28 -98 8 -15 22 -30 30 -34 9 -3 244
-6 521 -6 l505 0 26 26 c20 20 24 31 19 57 -13 70 8 67 -550 66 -331 0 -508
-4 -523 -11z"/>
<path d="M4406 2099 c-33 -26 -36 -79 -6 -109 18 -18 33 -20 168 -20 135 0
150 2 170 20 32 30 30 82 -4 109 -24 19 -40 21 -164 21 -124 0 -140 -2 -164
-21z"/>
<path d="M2945 1825 c-53 -53 -13 -125 70 -125 35 0 52 6 70 25 53 53 13 125
-70 125 -35 0 -52 -6 -70 -25z"/>
<path d="M3222 1843 c-24 -9 -43 -60 -32 -87 22 -58 11 -57 563 -54 557 3 530
0 543 65 5 26 1 37 -19 57 l-26 26 -508 -1 c-279 0 -514 -3 -521 -6z"/>
<path d="M4400 1830 c-30 -30 -27 -83 6 -109 24 -19 40 -21 164 -21 124 0 140
2 164 21 34 27 36 79 4 109 -20 18 -35 20 -170 20 -135 0 -150 -2 -168 -20z"/>
<path d="M2941 1554 c-26 -33 -27 -64 -1 -91 41 -45 136 -37 159 13 16 35 14
47 -10 78 -18 22 -28 26 -74 26 -46 0 -56 -4 -74 -26z"/>
<path d="M3205 1560 c-25 -28 -23 -76 4 -103 l22 -22 510 0 511 0 24 28 c29
34 30 56 3 91 l-20 26 -518 0 c-506 0 -518 0 -536 -20z"/>
<path d="M4400 1560 c-27 -27 -26 -81 1 -106 19 -17 38 -19 171 -19 145 0 150
1 169 24 25 30 24 76 -1 101 -18 18 -33 20 -170 20 -137 0 -152 -2 -170 -20z"/>
<path d="M2965 1308 c-49 -26 -58 -69 -24 -112 18 -22 28 -26 74 -26 46 0 56
4 74 26 24 30 26 43 10 77 -19 42 -88 60 -134 35z"/>
<path d="M3214 1297 c-35 -31 -38 -82 -5 -109 21 -17 46 -18 321 -18 326 0
319 -1 335 62 6 22 1 33 -23 58 l-30 30 -286 0 c-284 0 -285 0 -312 -23z"/>
<path d="M4430 1313 c-52 -20 -68 -85 -30 -123 18 -18 33 -20 170 -20 137 0
152 2 170 20 27 27 26 81 -1 106 -18 16 -39 19 -158 21 -75 1 -143 0 -151 -4z"/>
</g>
</svg>
