<?xml version="1.0" standalone="no"?>
<!DOCTYPE svg PUBLIC "-//W3C//DTD SVG 20010904//EN"
 "http://www.w3.org/TR/2001/REC-SVG-20010904/DTD/svg10.dtd">
<svg version="1.0" xmlns="http://www.w3.org/2000/svg"
 width="512.000000pt" height="512.000000pt" viewBox="0 0 512.000000 512.000000"
 preserveAspectRatio="xMidYMid meet">

<g transform="translate(0.000000,512.000000) scale(0.100000,-0.100000)"
fill="#000000" stroke="none">
<path d="M1780 5101 c-317 -70 -564 -296 -659 -605 -82 -265 -17 -588 160
-799 l40 -47 -39 -45 c-60 -68 -134 -179 -190 -285 -181 -342 -233 -742 -147
-1125 14 -60 25 -111 25 -112 0 -2 -87 -3 -192 -3 -307 0 -298 11 -298 -380 0
-302 3 -320 63 -364 28 -20 43 -21 486 -26 l457 -5 51 -43 c70 -58 112 -108
137 -161 20 -44 21 -65 26 -516 4 -331 8 -476 17 -490 18 -31 65 -73 96 -84
19 -7 232 -11 641 -11 l613 0 44 23 c70 37 89 80 89 203 0 115 -10 134 -72
134 -55 0 -71 -26 -78 -123 l-5 -82 -595 0 -595 0 -5 460 c-5 441 -6 462 -27
512 -26 65 -67 135 -87 153 -9 7 -16 16 -16 20 0 4 57 10 128 12 145 5 180 17
206 72 9 19 16 57 16 85 0 28 3 51 6 51 3 0 44 -14 91 -30 400 -141 863 -35
1167 266 310 308 417 745 286 1165 l-18 59 188 0 c104 0 191 -4 194 -8 13 -22
48 -227 53 -316 3 -56 12 -116 19 -134 8 -18 90 -170 184 -336 105 -187 170
-313 170 -330 0 -17 -11 -39 -29 -57 l-29 -29 -162 0 c-186 0 -220 -10 -267
-82 l-28 -42 -5 -235 c-5 -235 -5 -236 -34 -293 -35 -70 -94 -128 -166 -165
-54 -28 -58 -28 -280 -33 -247 -6 -262 -9 -314 -70 -34 -41 -41 -69 -41 -161
0 -93 17 -119 75 -119 54 0 70 23 70 99 0 106 -10 101 219 101 271 0 347 24
472 149 125 125 149 201 149 472 0 109 3 204 6 213 5 14 28 16 151 16 187 0
224 9 288 74 70 70 92 154 64 236 -7 18 -89 171 -184 339 l-172 306 -6 95 c-3
52 -15 142 -27 200 -11 58 -20 106 -20 108 0 1 91 2 203 2 308 0 297 -14 297
380 0 301 -4 324 -62 360 -32 19 -49 20 -460 20 l-427 0 -68 61 c-203 181
-451 302 -764 373 -25 5 -26 8 -32 108 -20 331 -196 601 -484 747 -163 82
-389 111 -563 72z m312 -145 c279 -53 499 -264 569 -546 23 -90 16 -269 -12
-365 -40 -132 -88 -207 -209 -326 -122 -119 -161 -174 -192 -271 l-22 -68 -98
0 -98 0 0 168 0 167 53 13 c184 43 336 193 392 387 34 114 6 328 -46 355 -29
16 -68 11 -90 -11 -19 -19 -20 -28 -14 -73 5 -28 9 -94 9 -146 1 -83 -3 -102
-26 -153 -45 -97 -153 -188 -252 -213 -26 -6 -26 -6 -26 50 0 54 1 56 34 70
19 8 53 31 76 53 183 164 68 473 -176 473 -113 0 -198 -48 -248 -140 -75 -137
-19 -314 119 -379 l45 -21 0 -55 c0 -64 -3 -65 -79 -30 -154 72 -241 216 -228
382 10 134 91 254 212 316 85 43 203 50 306 16 64 -21 73 -22 97 -8 37 20 51
63 31 97 -37 68 -270 106 -405 67 -222 -63 -377 -256 -391 -485 -16 -257 158
-494 405 -552 l52 -13 0 -167 0 -168 -99 0 -98 0 -13 48 c-29 107 -60 153
-185 277 -100 99 -128 134 -162 201 -109 211 -116 446 -18 649 72 150 188 266
340 340 146 71 291 91 447 61z m-72 -601 c68 -35 80 -144 21 -197 -88 -78
-219 -14 -208 102 10 88 105 137 187 95z m940 -362 c156 -44 371 -150 465
-227 l30 -25 -155 -1 c-103 0 -163 -4 -180 -13 -33 -17 -70 -74 -70 -108 0
-16 -2 -29 -4 -29 -2 0 -28 11 -59 24 -78 35 -184 66 -272 79 l-76 12 30 40
c37 50 93 164 116 233 l17 53 36 -7 c21 -4 75 -18 122 -31z m1530 -633 l0
-230 -645 0 -645 0 0 230 0 230 645 0 645 0 0 -230z m-1725 171 c81 -20 194
-63 252 -97 l33 -19 0 -171 c0 -161 1 -173 23 -205 36 -53 56 -59 219 -59
l147 0 21 -57 c57 -152 78 -306 61 -452 -28 -240 -112 -420 -275 -590 -123
-127 -265 -213 -441 -267 -83 -26 -103 -28 -265 -28 -195 0 -268 14 -402 76
l-68 31 0 146 c0 226 -16 241 -254 241 l-145 0 -26 57 c-68 143 -96 266 -97
426 0 65 1 120 3 122 2 2 27 -4 55 -12 l51 -16 12 -61 c22 -111 32 -136 64
-173 44 -50 98 -73 177 -73 l65 0 35 -68 c49 -95 154 -198 250 -245 112 -55
186 -70 305 -65 173 9 254 57 225 133 -16 42 -52 51 -125 32 -206 -55 -403 23
-520 205 -17 27 -17 28 14 54 18 15 38 39 46 55 13 24 21 54 50 185 3 15 18
25 49 34 55 15 111 60 136 111 24 46 26 134 5 186 -8 19 -15 37 -15 39 0 1 26
6 57 10 231 29 459 -151 492 -389 12 -86 0 -163 -39 -256 -29 -67 -30 -73 -15
-101 17 -32 51 -46 90 -36 18 5 34 24 55 66 152 300 23 667 -283 811 -78 36
-193 61 -267 58 l-55 -3 -6 35 c-7 44 -30 88 -62 117 l-25 23 22 66 c13 42 35
82 61 111 l39 45 96 -7 c52 -3 131 -15 175 -25z m-1285 -36 c11 -18 29 -59 40
-91 l20 -58 -29 -30 c-62 -64 -78 -158 -41 -245 21 -47 21 -48 1 -93 -99 -232
-97 -581 5 -832 13 -33 24 -61 24 -63 0 -2 -83 -3 -185 -3 l-184 0 -16 53
c-84 290 -80 603 11 884 52 161 170 375 269 491 41 47 48 46 85 -13z m808
-281 c27 -18 30 -69 5 -96 -15 -17 -39 -18 -336 -18 -284 0 -322 2 -339 17
-24 21 -23 68 2 93 19 19 33 20 333 20 267 0 316 -2 335 -16z m-15 -275 c30
-16 37 -28 37 -66 0 -62 -8 -63 -357 -63 -300 0 -314 1 -333 20 -29 29 -26 74
6 99 26 20 38 21 326 21 206 0 306 -4 321 -11z m-173 -294 c0 -38 -24 -121
-38 -132 -10 -8 -50 -13 -109 -13 -85 0 -94 2 -107 23 -11 17 -36 109 -36 132
0 3 65 5 145 5 120 0 145 -2 145 -15z m-180 -950 l0 -235 -642 2 -643 3 -3
233 -2 232 645 0 645 0 0 -235z"/>
<path d="M3383 3433 c-26 -5 -63 -48 -63 -73 0 -10 9 -29 21 -44 20 -26 22
-26 149 -26 127 0 129 0 149 26 27 35 26 57 -3 91 -23 26 -28 27 -127 29 -57
1 -114 0 -126 -3z"/>
<path d="M3813 3433 c-26 -5 -63 -48 -63 -73 0 -10 9 -29 21 -44 l20 -26 268
0 c256 0 269 1 286 20 25 28 23 76 -4 103 -21 21 -29 22 -264 23 -133 1 -252
0 -264 -3z"/>
<path d="M787 1759 c-46 -27 -41 -105 9 -128 14 -6 74 -11 135 -11 103 0 111
1 134 25 32 31 33 74 2 103 -21 20 -34 22 -143 22 -65 0 -127 -5 -137 -11z"/>
<path d="M1209 1752 c-33 -27 -30 -78 5 -109 l28 -24 259 3 c284 3 283 3 295
65 5 26 1 37 -19 57 l-26 26 -259 0 c-238 0 -262 -2 -283 -18z"/>
</g>
</svg>
