<?xml version="1.0" standalone="yes"?>
<svg xmlns="http://www.w3.org/2000/svg" width="512" height="512">
<path style="fill:#ffffff; stroke:none;" d="M0 0L0 135L1 135C3.83527 68.9655 68.9656 3.83569 135 1C124.258 -3.50745 105.682 0 94 0L0 0z"/>
<path style="fill:#8f20a7; stroke:none;" d="M0 166L52 166C52 126.046 64.2895 89.7005 100 67.4251C137.119 44.2713 186.199 52 228 52L313 52C362.105 52 410.779 50.3603 441.971 96C447.699 104.381 452.154 113.329 455.254 123C459.784 137.132 460 151.337 460 166L512 166C512 145.405 511.79 125.819 505.33 106C500.475 91.1044 493.689 76.7791 484.573 64C462.279 32.751 427.966 9.61996 390 2.45987C347.278 -5.59717 299.418 0 256 0C212.582 0 164.721 -5.59711 122 2.45987C84.0343 9.61996 49.7209 32.751 27.4275 64C18.3107 76.7791 11.5248 91.1045 6.66975 106C0.209913 125.819 0 145.405 0 166z"/>
<path style="fill:#ffffff; stroke:none;" d="M377 0L377 1C443.035 3.83572 508.164 68.9653 511 135L512 135L512 0L377 0M143 52.4252C102.994 57.8708 68.3054 83.3357 56.4383 123C49.9658 144.633 52 167.699 52 190L52 298C52 339.67 45.898 384.413 72.1559 420C101.838 460.227 146.011 460 191 460L294 460C320.503 460 348.789 462.774 375 458.725C412.701 452.902 445.455 424.96 455.845 388C462.118 365.684 460 341.94 460 319L460 207C460 167.172 464.914 125.977 439.844 92C410.398 52.0922 366.691 52 322 52L223 52C196.978 52 168.774 48.9168 143 52.4252z"/>
<path style="fill:#8f20a7; stroke:none;" d="M387 92.5146C345.668 95.3106 348.723 159.796 390 156.816C431.732 153.802 429.054 89.6698 387 92.5146M159 166L353 166C346.533 155.293 333.606 147.217 323 141.012C285.129 118.854 236.269 117.119 197 136.753C183.68 143.413 166.884 152.946 159 166z"/>
<path style="fill:#c33165; stroke:none;" d="M0 166L0 369L52 369L52 166L0 166M158.015 167.028C147.942 172.192 140.532 189.28 135.756 199C115.333 240.563 120.067 292.992 146.029 331C155.09 344.265 169.447 362.247 185 368.157C192.841 371.136 204.675 369 213 369L275 369L311 369C316.368 369 323.016 370.053 328 367.721C341.055 361.613 353.121 348.315 361.625 337C389.004 300.57 396.569 251.776 380.424 209C375.327 195.498 367.408 177.615 355.91 168.318C352.021 165.174 346.683 166 342 166L310 166L202 166C190.417 166 168.344 161.731 158.015 167.028M460 166L460 369L512 369L512 166L460 166z"/>
<path style="fill:#ffffff; stroke:none;" d="M245 176.428C233.647 178.055 222.757 182.012 213 188.066C204.185 193.535 196.674 200.497 190.721 209C151.425 265.135 197.734 345.495 267 335.572C278.353 333.945 289.243 329.988 299 323.934C307.815 318.465 315.326 311.503 321.279 303C360.575 246.865 314.266 166.505 245 176.428z"/>
<path style="fill:#d47545; stroke:none;" d="M0 369C0.071207 394.805 10.3637 421.496 24.054 443C28.3324 449.72 34.1939 459.95 41.2855 463.972C47.9816 467.77 62.3993 465 70 465L141 465L380 465L445 465C451.91 465 464.605 467.437 470.715 463.972C477.806 459.95 483.668 449.72 487.946 443C501.636 421.496 511.929 394.805 512 369L459 369C458.187 408.358 424.966 443.726 389 455.254C366.908 462.335 342.864 460 320 460L207 460C175.62 460 142.671 463.674 113 451.548C81.5462 438.693 53.7185 403.812 53 369L0 369M187 369L187 370C232.646 394.017 279.354 394.017 325 370C314.02 365.393 294.944 369 283 369L187 369z"/>
<path style="fill:#ffffff; stroke:none;" d="M0 377L0 512L135 512L135 511C86.4955 508.917 38.2734 472.308 16.9699 430C11.6701 419.475 7.26994 408.433 4.37423 397C2.75308 390.599 2.67547 382.96 0 377M511 377C508.164 443.034 443.035 508.165 377 511L377 512L512 512L512 418C512 406.318 515.507 387.742 511 377z"/>
<path style="fill:#de943f; stroke:none;" d="M42 465C58.7639 488.601 93.4983 503.575 121 509.335C157.509 516.981 198.802 512 236 512C285.692 512 338.872 517.283 388 509.866C416.223 505.605 453.129 488.752 470 465L42 465z"/>
</svg>
