<?xml version="1.0" standalone="yes"?>
<svg xmlns="http://www.w3.org/2000/svg" width="512" height="512">
<path style="fill:#ffffff; stroke:none;" d="M0 0L0 512L8 512L8 511C-2.70262 502.919 5.53925 484.131 7.80093 473C12.2707 451.002 16.6085 428.925 21.4244 407C23.8996 395.731 29.223 381.544 28.6165 370C28.3609 365.134 24.848 360.413 23.0116 356C19.059 346.502 15.3147 336.881 12.4244 327C3.91301 297.902 0.713614 268.276 2.03935 238C6.16115 143.87 70.3375 56.9392 156 20.1505C179.959 9.86102 207.677 1.01736 234 1L212 0L165 0L0 0z"/>
<path style="fill:#7bd16d; stroke:none;" d="M234 0.424377C198.605 5.07394 165.686 13.1696 134 30.3087C59.4484 70.6333 5.77828 151.614 2.03935 237C0.683979 267.953 3.71885 298.238 12.4244 328C16.2674 341.139 27.1754 356.733 28.3202 370C29.2705 381.013 23.789 395.235 21.4244 406C16.5361 428.255 12.0958 450.663 7.60031 473C5.83399 481.776 -2.43784 502.498 5.27855 509.566C10.8057 514.629 20.6984 510.975 27 509.576C46.0611 505.342 64.9074 500.091 84 496C97.7188 493.061 111.324 489.487 125 486.349C130.264 485.141 136.564 482.294 142 482.691C147.622 483.101 153.811 487.284 159 489.397C169.435 493.645 180.099 497.253 191 500.116C224.012 508.785 258.251 509.938 292 505.845C325.893 501.735 358.866 489.08 388 471.6C516.069 394.76 547.986 218.498 459.105 100C442.567 77.9517 421.903 58.3374 399 43.0008C374.365 26.5044 346.867 13.9669 318 7.11572C291.272 0.772339 261.47 -3.18414 234 0.424377z"/>
<path style="fill:#ffffff; stroke:none;" d="M278 0L278 1C308.465 1.02008 341.056 12.2828 368 25.7531C409.822 46.6612 445.856 78.3844 470.947 118C531.558 213.698 520.819 344.53 441.961 427C386.673 484.82 307.085 516.421 227 506.715C207.581 504.361 188.426 499.872 170 493.308C161.533 490.292 150.933 482.792 142 482.387C131.479 481.91 118.256 487.684 108 490.116C78.4693 497.117 48.0887 507.114 18 511L18 512L512 512L512 0L278 0M72 441C90.0896 437.266 107.995 432.481 126 428.349C133.179 426.701 141.574 422.993 149 423.383C155.954 423.749 163.865 429.707 170 432.752C181.062 438.244 193.028 442.593 205 445.626C258.549 459.189 315.018 450.839 362 421.575C383.809 407.991 402.517 389.856 417.421 369C431.644 349.097 441.944 326.717 447.873 303C455.09 274.136 456.062 244.28 450.54 215C429.247 102.094 310.798 33.3643 202 63.152C170.865 71.6764 143.943 88.5042 120.001 109.715C94.716 132.114 76.911 163.109 66.5185 195C54.4905 231.91 54.5479 275.08 66.3441 312C69.8673 323.027 74.0701 333.646 79.2469 344C81.9341 349.374 86.7763 355.954 87.436 362C88.1669 368.699 84.7205 377.397 83.3997 384C79.6645 402.672 73.5491 422.034 72 441z"/>
<path style="fill:#7bd16d; stroke:none;" d="M168 131.529C158.84 133.643 150.697 143.063 144.921 150C121.014 178.706 125.438 213.855 140.309 246C147.562 261.676 158.514 275.877 169.59 289C178.096 299.077 187.314 308.178 197 317.086C235.879 352.84 297.445 394.272 353 372.935C369.766 366.496 404.405 335.08 389.2 315.093C384.785 309.29 377.637 307.741 371 305.86C356.45 301.736 339.207 293.638 324 294.016C307.015 294.439 299.766 321.623 282 315.451C259.158 307.516 237.943 286.52 221 269.985C212.018 261.22 196.882 247.946 194.405 235C191.95 222.165 207.952 213.347 211.072 202C215.181 187.054 200.32 165.341 194.306 152C191.932 146.736 190.031 140.441 185.787 136.329C181.135 131.822 174.275 130.081 168 131.529z"/>
</svg>
